<svg width="50" height="50" viewBox="0 0 50 50" fill="none" xmlns="http://www.w3.org/2000/svg">
<mask id="mask0_197_2728" style="mask-type:alpha" maskUnits="userSpaceOnUse" x="0" y="0" width="50" height="50">
<rect width="50" height="50" fill="#C4C4C4"/>
</mask>
<g mask="url(#mask0_197_2728)">
<path d="M37.5263 32.4626C37.2945 34.5668 36.1982 39.9939 33.6956 42.6918C27.4248 49.4444 17.7112 46.5017 14.2138 40.835C10.1565 34.2647 10.4169 22.0251 10.4169 22.0251C10.4169 22.0251 22.1904 17.8845 37.5263 19.421C37.7607 21.5043 37.9091 26.2439 37.9091 26.2439" stroke="#463F3A" stroke-width="1.5" stroke-linecap="round" stroke-linejoin="round"/>
<path d="M17.1278 28.2621C17.1426 28.3903 17.1267 28.5202 17.0814 28.6411C17.0361 28.762 16.9628 28.8704 16.8674 28.9574C16.775 29.0428 16.6654 29.1075 16.5459 29.1472C16.4265 29.1869 16.2999 29.2007 16.1747 29.1877C16.0496 29.1746 15.9286 29.135 15.8199 29.0715C15.7112 29.008 15.6173 28.922 15.5445 28.8194C15.4229 28.6276 15.3469 28.4105 15.3225 28.1847C15.2981 27.9589 15.326 27.7306 15.4039 27.5173C15.4489 27.4038 15.5171 27.301 15.6042 27.2154C15.6913 27.1299 15.7954 27.0635 15.9097 27.0206C16.024 26.9777 16.146 26.9591 16.2679 26.9662C16.3898 26.9732 16.5088 27.0057 16.6174 27.0616C16.7947 27.1844 16.9363 27.352 17.0277 27.5473C17.1192 27.7427 17.1574 27.9587 17.1383 28.1735C17.1383 28.2022 17.133 28.2334 17.1278 28.2621Z" fill="#463F3A"/>
<path d="M28.7399 27.5199C28.6615 27.6245 28.5603 27.7099 28.4439 27.7696C28.3276 27.8293 28.1992 27.8618 28.0685 27.8646C27.9378 27.8673 27.8082 27.8403 27.6894 27.7856C27.5707 27.7308 27.4659 27.6498 27.3832 27.5486C27.2573 27.3682 27.1771 27.16 27.1495 26.9418C27.1218 26.7237 27.1475 26.502 27.2243 26.296C27.3094 26.0892 27.472 25.9239 27.6773 25.8353C27.8826 25.7468 28.1145 25.742 28.3233 25.822C28.4868 25.9115 28.6252 26.0407 28.7258 26.1977C28.8264 26.3547 28.8859 26.5345 28.8988 26.7205C28.9094 26.8153 28.9041 26.9112 28.8832 27.0043C28.8976 27.1877 28.8469 27.3703 28.7399 27.5199Z" fill="#463F3A"/>
<path d="M36.8883 26.8428C36.8883 26.8428 38.6722 25.322 40.7217 26.4261C43.3805 27.8584 41.6514 34.499 36.7451 32.1709" stroke="#463F3A" stroke-width="1.5" stroke-linecap="round" stroke-linejoin="round"/>
<path d="M37.6616 28.3038C37.6616 28.3038 38.5028 27.4991 39.3517 28.1501C39.8595 28.5434 39.7606 29.3064 39.422 29.8454" stroke="#463F3A" stroke-width="1.5" stroke-linecap="round" stroke-linejoin="round"/>
<path d="M28.6849 21.7855C27.9922 21.7855 27.7865 22.0459 28.2709 22.3064C28.6485 22.5069 30.7605 23.0199 31.1745 22.723C31.6693 22.361 30.9245 21.8011 28.6849 21.7855Z" fill="#463F3A"/>
<path d="M14.6593 23.6735C15.0707 23.5615 15.266 23.7412 15.0525 24.0199C14.8832 24.236 13.7739 24.973 13.4431 24.8011C13.0473 24.5928 13.3311 24.0303 14.6593 23.6735Z" fill="#463F3A"/>
<path d="M17.7085 44.421C17.7085 44.421 2.86475 42.6449 2.86475 40.2803C2.86475 37.9158 2.92204 23.5303 7.81266 14.2126C13.2814 3.79597 24.5418 0.74649 33.3335 5.71264C41.9272 10.5668 44.5444 22.1658 45.5731 27.2335C46.6017 32.3012 47.1356 38.171 46.8752 40.7751C46.6147 43.4783 32.5522 44.1606 32.5522 44.1606" stroke="#463F3A" stroke-width="1.5" stroke-linecap="round" stroke-linejoin="round"/>
<path d="M21.4844 26.8115C21.4844 26.8115 21.8802 31.6605 20.3594 32.6501C18.7266 33.7074 21.3594 35.0459 22.6614 34.0042" stroke="#463F3A" stroke-width="1.5" stroke-linecap="round" stroke-linejoin="round"/>
<path d="M22.917 38.9523C22.917 38.9523 23.6982 39.9939 25.5212 39.7335C26.2901 39.6331 26.9989 39.2646 27.5229 38.693C28.0469 38.1214 28.3524 37.3832 28.3857 36.6085" stroke="#463F3A" stroke-width="1.5" stroke-linecap="round" stroke-linejoin="round"/>
</g>
</svg>
