<svg width="454" height="380" viewBox="0 0 454 380" fill="none" xmlns="http://www.w3.org/2000/svg">
<path d="M246.718 40.856C246.718 40.856 247.517 27.2707 254.765 27.5544C262.013 27.8381 267.895 23.6745 272.47 18.3643C281.84 18.6639 284.357 24.0182 284.357 24.0182C284.357 24.0182 288.501 46.9175 286.511 55.1846C284.521 63.4517 275.523 72.502 259.564 67.3635" stroke="#3D3C3C" stroke-width="3" stroke-linecap="round" stroke-linejoin="round"/>
<path d="M278.446 36.9924C278.446 36.9924 278.446 43.6093 280.844 44.9319C283.669 46.5022 282.274 49.3271 279.177 49.7867" stroke="#3D3C3C" stroke-width="3" stroke-linecap="round" stroke-linejoin="round"/>
<path d="M284.751 30.2236C283.113 29.852 281.691 30.4154 281.523 31.0227C281.335 31.698 282.454 31.754 283.588 31.4902C284.499 31.3113 285.443 31.4348 286.278 31.8419C286.761 32.0656 286.453 30.6072 284.751 30.2236Z" fill="#3D3C3C"/>
<path d="M265.032 30.1718C267.486 29.988 269.667 30.5274 269.743 31.3705C269.819 32.2136 268.277 31.9938 265.528 31.9139C262.779 31.834 260.877 32.6092 260.098 32.6092C259.318 32.6092 261.412 30.4435 265.032 30.1718Z" fill="#3D3C3C"/>
<path d="M271.41 40.928C271.433 41.1347 271.407 41.3439 271.333 41.5384C271.26 41.7329 271.141 41.9071 270.987 42.0468C270.838 42.1844 270.661 42.2886 270.469 42.3527C270.276 42.4167 270.072 42.4391 269.87 42.4183C269.669 42.3975 269.473 42.3341 269.298 42.2321C269.123 42.1302 268.971 41.9921 268.853 41.8271C268.656 41.5178 268.533 41.1675 268.493 40.8031C268.453 40.4388 268.497 40.0701 268.621 39.7253C268.694 39.5425 268.805 39.3769 268.945 39.2391C269.086 39.1014 269.254 38.9944 269.438 38.9252C269.622 38.856 269.819 38.8261 270.015 38.8372C270.212 38.8484 270.404 38.9005 270.579 38.9901C270.868 39.1868 271.099 39.4565 271.249 39.7717C271.399 40.0869 271.463 40.4362 271.434 40.7842C271.43 40.8327 271.422 40.8808 271.41 40.928V40.928Z" fill="#3D3C3C"/>
<path d="M284.756 40.9762C284.63 41.145 284.466 41.2827 284.278 41.3789C284.09 41.4751 283.883 41.5274 283.672 41.5316C283.461 41.5358 283.252 41.492 283.06 41.4034C282.869 41.3147 282.7 41.1837 282.567 41.0201C282.363 40.7294 282.233 40.3933 282.188 40.0409C282.144 39.6886 282.186 39.3307 282.311 38.9983C282.448 38.6647 282.711 38.3982 283.043 38.2556C283.374 38.113 283.748 38.1057 284.085 38.2351C284.349 38.3795 284.572 38.5881 284.734 38.8416C284.896 39.0951 284.992 39.3854 285.012 39.6856C285.03 39.839 285.022 39.9944 284.988 40.1451C285.009 40.4406 284.927 40.7344 284.756 40.9762Z" fill="#3D3C3C"/>
<path d="M248.969 41.8073C248.969 41.8073 245.629 40.209 242.812 42.4187C239.931 44.6922 240.127 49.519 243.918 51.8565C247.515 54.0741 252.525 52.9673 252.525 52.9673" stroke="#3D3C3C" stroke-width="3" stroke-linecap="round" stroke-linejoin="round"/>
<path d="M249.574 46.618C249.574 46.618 248.898 44.1646 246.377 43.9608C244.439 43.805 243.884 45.1915 243.884 45.1915" stroke="#3D3C3C" stroke-width="3" stroke-linecap="round" stroke-linejoin="round"/>
<path d="M284.472 25.4168C284.472 25.4168 288.688 21.2973 285.483 16.4825C282.279 11.6676 277.915 11.6557 275.646 8.74678C271.546 3.49644 250.137 -4.29517 236.384 11.0883C219.602 29.868 237.183 47.4491 238.382 55.4405C239.581 63.4319 246.981 57.6981 247.049 53.8742" stroke="#3D3C3C" stroke-width="3" stroke-linecap="round" stroke-linejoin="round"/>
<path d="M251.916 84.4094C252.31 83.5179 253.022 82.8054 253.914 82.4116C255.996 81.3687 257.91 81.6125 262.896 78.3759C267.883 75.1394 268.091 68.8622 268.091 68.8622C268.091 68.8622 271.351 71.5393 270.62 75.7787C269.889 80.0182 264.303 93.2 262.305 93.5995C260.307 93.9991 258.821 82.1519 254.769 82.4835" stroke="#3D3C3C" stroke-width="3" stroke-linecap="round" stroke-linejoin="round"/>
<path d="M241.447 65.3099C241.447 65.3099 239.21 63.8914 236.972 64.7585C234.734 65.6256 232.725 69.5533 232.928 77.3809C233.132 85.2085 234.527 86.8946 236.832 84.8528C239.138 82.811 241.927 79.6145 246.322 82.811C242.726 78.8153 240.021 71.0917 240.021 71.0917C242.514 66.9681 242.378 60.2354 242.378 60.2354" stroke="#3D3C3C" stroke-width="3" stroke-linecap="round" stroke-linejoin="round"/>
<path d="M250.315 92.8003C250.315 92.8003 254.962 87.2063 252.565 85.3123C249.916 83.2106 244.47 81.944 243.922 84.4093C243.123 88.0054 242.172 90.6386 244.322 91.6016C246.471 92.5645 249.516 93.5994 250.315 92.8003Z" stroke="#3D3C3C" stroke-width="3" stroke-linecap="round" stroke-linejoin="round"/>
<path d="M248.834 92.7762C248.834 92.7762 247.724 113.554 211.407 118.397C187.584 121.569 175.597 133.956 175.597 133.956C175.597 133.956 162.248 144.317 157.217 145.943C153.509 147.142 156.818 128.362 167.606 119.172C181.327 110.585 199.951 107.62 216.353 105.986C232.652 104.364 241.666 96.1086 243.792 90.8583" stroke="#3D3C3C" stroke-width="3" stroke-linecap="round" stroke-linejoin="round"/>
<path d="M387.553 116.187C387.553 116.187 386.422 117.973 384.504 116.375C382.586 114.777 375.606 101.071 381.088 100.128C383.569 99.7008 338.621 101.583 332.84 101.195C327.058 100.808 307.055 88.8085 294.673 83.3384C287.023 80.0104 278.976 77.6844 270.73 76.4178" stroke="#3D3C3C" stroke-width="3" stroke-linecap="round" stroke-linejoin="round"/>
<path d="M276.94 105.187C276.94 105.187 269.073 126.672 265.281 136.501C261.489 146.331 257.214 187.934 248.771 193.692C239.98 199.685 223.098 203.621 212.809 205.279C201.893 207.041 179.194 211.473 178.794 196.688C179.194 179.907 181.991 129.161 181.991 129.161" stroke="#3D3C3C" stroke-width="3" stroke-linecap="round" stroke-linejoin="round"/>
<path d="M271.412 121.517C271.412 121.517 282.177 120.526 300.209 124.642C318.242 128.758 322.693 128.893 332.055 128.238C341.417 127.583 385.769 117.174 385.769 117.174" stroke="#3D3C3C" stroke-width="3" stroke-linecap="round" stroke-linejoin="round"/>
<path d="M240.532 107.061C240.532 107.061 235.182 126.768 236.936 143.146C238.69 159.524 237.783 191.31 232.788 200.484" stroke="#3D3C3C" stroke-width="3" stroke-linecap="round" stroke-linejoin="round"/>
<path d="M234.138 67.2278C234.138 67.2278 214.04 62.7447 205.205 62.397C196.371 62.0494 146.816 62.453 141.026 62.6528C135.236 62.8525 127.689 65.202 111.486 73.4172C95.2834 81.6323 80.4993 89.6037 79.7002 92.0012C81.2985 90.8024 85.0584 93.979 86.1732 97.9947C87.288 102.01 87.9353 104.264 86.2132 105.327C94.4843 102.798 127.509 91.7414 139.568 90.8664C151.627 89.9913 174.274 97.1596 187.32 104.372C185.986 105.986 184.787 111.18 184.787 111.18" stroke="#3D3C3C" stroke-width="3" stroke-linecap="round" stroke-linejoin="round"/>
<path d="M179.243 199.286C170.852 216.467 178.444 239.243 207.613 246.435C238.571 254.071 277.138 253.228 286.887 254.163C295.558 254.994 306.207 256.96 312.859 266.026C319.512 275.092 341.269 297.064 354.255 307.905C367.241 318.745 379.088 330.065 382.121 332.594C387.871 332.478 394.172 324.359 396.13 320.939C398.088 317.518 397.652 317.614 394.132 313.994C390.612 310.374 349.74 248.385 340.322 236.941C330.904 225.497 326.301 222.353 315.796 219.184C305.292 216.016 248.768 193.692 248.768 193.692" stroke="#3D3C3C" stroke-width="3" stroke-linecap="round" stroke-linejoin="round"/>
<path d="M176.449 217.666C176.848 220.463 176.449 225.981 175.25 230.452C172.409 240.965 168.633 256.024 166.06 266.014C162.524 279.755 161.105 294.279 144.571 294.955C128.037 295.63 91.1406 305.915 72.9163 315.94C70.427 323.188 74.1749 334.856 77.0958 336.614C101.07 331.659 125.52 327.823 146.285 326.529C167.051 325.234 173.456 323.732 179.561 319.14C185.667 314.549 216.394 268.511 222.399 250.415" stroke="#3D3C3C" stroke-width="3" stroke-linecap="round" stroke-linejoin="round"/>
<path d="M63.078 316.595C63.078 316.595 59.8814 330.648 65.5433 339.886C58.4989 350.879 54.6231 370.006 52.5173 373.694C50.4116 377.382 47.8544 378.225 44.5259 376.091C41.1975 373.958 39.6232 358.91 41.0976 346.715C42.572 334.52 40.2266 326.189 41.3014 321.822C42.3763 317.455 47.4308 313.311 63.078 316.595Z" stroke="#3D3C3C" stroke-width="3" stroke-linecap="round" stroke-linejoin="round"/>
<path d="M46.5829 377.893C46.5829 377.893 41.0928 378.884 38.9671 375.839C36.8414 372.795 34.6597 356.624 36.4977 348.249C38.3358 339.874 36.0382 330.552 35.6986 324.914C35.359 319.276 40.1858 315.532 44.5571 316.643" stroke="#3D3C3C" stroke-width="3" stroke-linecap="round" stroke-linejoin="round"/>
<path d="M72.2955 318.325C72.2955 318.325 65.6067 319.125 62.7578 318.325" stroke="#3D3C3C" stroke-width="3" stroke-linecap="round" stroke-linejoin="round"/>
<path d="M74.9341 334.488C74.9341 334.488 69.0205 335.079 64.9648 338.883" stroke="#3D3C3C" stroke-width="3" stroke-linecap="round" stroke-linejoin="round"/>
<path d="M390.27 340.769C390.27 340.769 403.307 334.632 407.119 324.503C420.121 323.304 437.591 314.593 441.794 313.99C445.998 313.387 448.231 314.881 448.607 318.833C448.982 322.785 438.062 333.273 427.549 339.61C417.037 345.948 411.898 352.92 407.791 354.758C403.683 356.596 397.302 355.126 390.27 340.769Z" stroke="#3D3C3C" stroke-width="3" stroke-linecap="round" stroke-linejoin="round"/>
<path d="M448.751 316.084C448.751 316.084 452.911 319.804 451.816 323.356C450.721 326.908 439.313 338.564 431.578 342.268C423.842 345.972 417.901 353.507 413.653 357.235C409.406 360.963 403.496 359.461 401.666 355.333" stroke="#3D3C3C" stroke-width="3" stroke-linecap="round" stroke-linejoin="round"/>
<path d="M385.967 332.434C385.967 332.434 390.698 337.229 391.84 339.946" stroke="#3D3C3C" stroke-width="3" stroke-linecap="round" stroke-linejoin="round"/>
<path d="M397.087 320.415C397.087 320.415 401.194 324.719 406.677 325.61" stroke="#3D3C3C" stroke-width="3" stroke-linecap="round" stroke-linejoin="round"/>
<path d="M80.403 91.8374C80.403 91.8374 65.7588 99.1935 61.5393 101.383C57.3198 103.573 53.0125 110.749 55.1662 113.77" stroke="#3D3C3C" stroke-width="3" stroke-linecap="round" stroke-linejoin="round"/>
<path d="M59.322 107.584C59.322 107.584 54.2794 113.798 56.8007 117.286" stroke="#3D3C3C" stroke-width="3" stroke-linecap="round" stroke-linejoin="round"/>
<path d="M61.5427 111.181C61.5427 111.181 53.4834 119.032 58.4021 121.302" stroke="#3D3C3C" stroke-width="3" stroke-linecap="round" stroke-linejoin="round"/>
<path d="M64.2502 115.452C64.2502 115.452 57.3256 122.368 58.1248 124.366C58.9239 126.364 61.5451 126.364 63.8306 124.366C66.1161 122.368 68.9131 119.172 74.5071 117.574" stroke="#3D3C3C" stroke-width="3" stroke-linecap="round" stroke-linejoin="round"/>
<path d="M85.7097 105.107C85.7097 105.107 82.705 113.31 80.4035 116.239C78.1019 119.168 68.9678 128.898 68.9678 128.898" stroke="#3D3C3C" stroke-width="3" stroke-linecap="round" stroke-linejoin="round"/>
<path d="M68.1583 121.302C68.1583 121.302 69.425 129.896 67.7587 132.126C66.0925 134.355 62.5643 136.841 61.5295 136.597C60.4946 136.353 58.269 134.683 59.9871 133.72C61.7053 132.757 65.0337 131.031 64.9697 128.897C64.9058 126.764 64.6141 124.023 64.6141 124.023" stroke="#3D3C3C" stroke-width="3" stroke-linecap="round" stroke-linejoin="round"/>
<path d="M64.4686 98.7936C63.7002 98.3269 62.8184 98.0801 61.9193 98.0801C61.0203 98.0801 60.1385 98.3269 59.3701 98.7936C56.5251 100.392 54.5752 102.042 54.759 103.213C54.9428 104.384 56.8088 104.615 56.8088 104.615" stroke="#3D3C3C" stroke-width="3" stroke-linecap="round" stroke-linejoin="round"/>
<path d="M61.9265 97.4874C61.9265 97.4874 60.6239 80.6415 56.9759 79.1271C53.3278 77.6128 43.1907 73.649 30.876 84.809C18.5612 95.969 16.7152 97.5953 16.0439 109.183" stroke="#3D3C3C" stroke-width="3" stroke-linecap="round" stroke-linejoin="round"/>
<path d="M65.5237 134.583C65.5237 134.583 70.1427 160.048 67.9211 166.98C65.6995 173.913 33.8857 197.555 29.8181 197.719C25.7505 197.883 15.957 190.056 15.957 190.056" stroke="#3D3C3C" stroke-width="3" stroke-linecap="round" stroke-linejoin="round"/>
<path d="M67.7252 164.103C67.7252 164.103 64.9043 157.119 54.919 158.509C44.9338 159.9 32.9427 172.698 28.947 173.497C24.9513 174.296 22.7137 169.825 22.1543 162.309" stroke="#3D3C3C" stroke-width="3" stroke-linecap="round" stroke-linejoin="round"/>
<path d="M25.2556 158.158C25.3955 155.133 24.6043 148.057 22.9861 149C21.3678 149.943 15.9337 152.037 15.4502 154.194C14.9667 156.352 13.8999 164.639 16.4211 164.679C18.9424 164.719 25.1517 160.388 25.2556 158.158Z" stroke="#3D3C3C" stroke-width="3" stroke-linecap="round" stroke-linejoin="round"/>
<path d="M21.6589 117.402C21.7988 114.377 21.0077 107.301 19.3894 108.244C17.7711 109.187 12.337 111.28 11.8535 113.438C11.37 115.596 10.3032 123.883 12.8245 123.923C15.3457 123.963 21.5551 119.631 21.6589 117.402Z" stroke="#3D3C3C" stroke-width="3" stroke-linecap="round" stroke-linejoin="round"/>
<path d="M17.0566 122.84L19.1624 150.99" stroke="#3D3C3C" stroke-width="3" stroke-linecap="round" stroke-linejoin="round"/>
<path d="M17.0561 99.1935C17.0561 99.1935 4.24988 106.693 2.43583 110.138C0.621783 113.582 4.98109 128.362 6.1798 145.144C7.37851 161.926 12.3851 187.974 13.0764 189.532C13.7676 191.091 18.1349 188.373 20.3485 186.735C22.5622 185.097 52.1183 163.988 52.3141 160.555" stroke="#3D3C3C" stroke-width="3" stroke-linecap="round" stroke-linejoin="round"/>
<path d="M380.068 101.747C380.068 101.747 388.02 98.2024 390.565 93.5993C394.96 85.6079 398.872 85.4281 401.353 84.8088C406.148 83.6101 404.15 88.4049 401.353 90.0032C398.249 91.7773 397.705 92.2927 396.958 96.3963C396.159 100.792 393.762 104.388 390.965 105.187" stroke="#3D3C3C" stroke-width="3" stroke-linecap="round" stroke-linejoin="round"/>
<path d="M403.689 111.92C403.689 111.92 400.153 113.977 394.559 113.977C388.965 113.977 385.769 115.847 385.769 115.847" stroke="#3D3C3C" stroke-width="3" stroke-linecap="round" stroke-linejoin="round"/>
<path d="M286.531 55.1848C286.531 55.1848 282.351 59.0366 274.36 57.4384C269.029 56.3715 265.969 53.8422 265.969 55.8401C265.969 57.8379 269.781 66.5645 278.863 65.7974" stroke="#3D3C3C" stroke-width="3" stroke-linecap="round" stroke-linejoin="round"/>
<path d="M399.785 91.0981C402.204 95.1871 403.587 99.8057 403.812 104.552C404.611 120.97 402.186 124.762 401.015 127.059C399.844 129.357 408.935 124.87 425.789 98.594C442.57 72.4222 442.97 70.2245 444.568 64.231C443.769 59.4361 441.771 48.2482 435.378 38.6585C429.784 30.2676 418.197 21.477 412.834 21.7048C412.834 21.7048 411.576 41.0479 402.102 58.2334C392.628 75.4189 389.168 80.014 389.168 80.014C391.887 81.7521 394.329 83.8898 396.412 86.3552" stroke="#3D3C3C" stroke-width="3" stroke-linecap="round" stroke-linejoin="round"/>
<path d="M419.294 34.7828C418.311 34.8388 417.547 35.55 417.072 36.3811C416.561 37.2184 416.358 38.2072 416.497 39.1781C416.591 39.6864 416.865 40.1435 417.27 40.4652C417.675 40.7868 418.182 40.9513 418.698 40.9282C420.153 40.9282 421.395 39.7775 421.827 38.4429C421.959 38.0609 422.005 37.6544 421.962 37.2525C421.919 36.8506 421.789 36.4631 421.579 36.1174C421.37 35.761 421.081 35.4586 420.734 35.2345C420.387 35.0103 419.992 34.8707 419.581 34.8268C419.423 34.8278 419.271 34.8913 419.159 35.0035C419.046 35.1157 418.983 35.2675 418.982 35.4261C418.986 35.5838 419.05 35.7339 419.162 35.8455C419.273 35.957 419.424 36.0215 419.581 36.0255C419.477 36.0255 419.681 36.0455 419.677 36.0455C419.742 36.0594 419.804 36.0795 419.865 36.1054C419.781 36.0695 419.973 36.1614 419.965 36.1574C420.023 36.1895 420.079 36.2256 420.133 36.2652C420.305 36.4016 420.452 36.5665 420.568 36.7527C420.689 36.9377 420.764 37.1485 420.788 37.3681C420.788 37.2841 420.788 37.42 420.788 37.44C420.788 37.46 420.788 37.5519 420.788 37.6078C420.788 37.6078 420.764 37.8156 420.788 37.7237C420.788 37.8116 420.752 37.9035 420.728 37.9914C420.599 38.4553 420.338 38.8717 419.977 39.1901C419.658 39.4913 419.25 39.6794 418.814 39.7255C418.616 39.741 418.418 39.7152 418.231 39.6496C418.195 39.6496 418.075 39.5697 418.231 39.6496L418.119 39.5937C418.088 39.5774 418.059 39.5587 418.031 39.5377C417.995 39.5137 418.007 39.5377 418.071 39.5737L418.011 39.5217C417.971 39.4858 417.823 39.298 417.919 39.4378C417.881 39.3853 417.847 39.3306 417.815 39.274C417.795 39.2406 417.778 39.2059 417.763 39.1701C417.835 39.314 417.763 39.2021 417.763 39.1701C417.763 39.1381 417.715 39.0143 417.699 38.9344C417.683 38.8545 417.699 38.8505 417.699 38.8105C417.727 38.9783 417.699 38.8345 417.699 38.8105C417.699 38.7865 417.699 38.6627 417.699 38.5907C417.699 38.5188 417.699 38.4109 417.699 38.319C417.699 38.2911 417.727 38.1392 417.699 38.2951C417.699 38.2431 417.699 38.1872 417.727 38.1352C417.763 37.955 417.811 37.7774 417.871 37.6038C417.899 37.5279 417.927 37.452 417.959 37.376C417.903 37.5119 417.959 37.376 417.959 37.3441L418.043 37.1723C418.14 36.9904 418.249 36.8155 418.371 36.6488C418.287 36.7647 418.446 36.5569 418.478 36.525C418.51 36.493 418.622 36.3771 418.698 36.3092L418.766 36.2533C418.838 36.1853 418.674 36.3052 418.814 36.2213L419.042 36.0894C419.082 36.0655 419.166 36.0495 419.042 36.0894L419.19 36.0415L419.306 36.0135C419.405 35.9855 419.166 36.0135 419.338 36.0135C419.495 36.0095 419.645 35.945 419.757 35.8335C419.868 35.7219 419.933 35.5718 419.937 35.4142C419.936 35.2555 419.872 35.1037 419.76 34.9915C419.648 34.8793 419.496 34.8158 419.338 34.8148L419.294 34.7828Z" fill="#3D3C3C"/>
<path d="M424.677 37.5796C424.677 37.5796 424.797 37.6675 424.769 37.6436L424.857 37.7155L425.097 37.9073C425.261 38.0431 425.42 38.183 425.58 38.3068C425.888 38.5785 426.184 38.8662 426.467 39.1579C427.059 39.7653 427.61 40.4086 428.154 41.0599C428.266 41.1721 428.418 41.2352 428.577 41.2352C428.736 41.2352 428.888 41.1721 429.001 41.0599C429.109 40.9455 429.17 40.7939 429.17 40.6363C429.17 40.4787 429.109 40.3271 429.001 40.2128C427.907 38.8439 426.661 37.6051 425.285 36.5208C425.147 36.4417 424.983 36.4201 424.829 36.4604C424.675 36.5008 424.543 36.5999 424.461 36.7365C424.386 36.8755 424.367 37.0378 424.407 37.1906C424.447 37.3434 424.544 37.4753 424.677 37.5596V37.5796Z" fill="#3D3C3C"/>
<path d="M424.384 37.0803C424.332 38.383 424.086 39.6707 423.652 40.9002C423.216 42.2209 422.682 43.5071 422.054 44.7481C421.714 45.4393 422.745 46.0467 423.093 45.3554C424.348 42.8261 425.546 39.9532 425.574 37.0803C425.574 36.9214 425.511 36.7689 425.399 36.6565C425.286 36.5441 425.134 36.481 424.975 36.481C424.816 36.481 424.663 36.5441 424.551 36.6565C424.439 36.7689 424.376 36.9214 424.376 37.0803H424.384Z" fill="#3D3C3C"/>
<path d="M424.157 41.8791L426.554 44.2766C426.667 44.3878 426.819 44.4502 426.978 44.4502C427.136 44.4502 427.288 44.3878 427.401 44.2766C427.511 44.1627 427.572 44.0109 427.572 43.853C427.572 43.6951 427.511 43.5433 427.401 43.4295L425.004 41.032C424.891 40.9208 424.739 40.8584 424.58 40.8584C424.422 40.8584 424.27 40.9208 424.157 41.032C424.047 41.1459 423.986 41.2977 423.986 41.4556C423.986 41.6135 424.047 41.7653 424.157 41.8791V41.8791Z" fill="#3D3C3C"/>
<path d="M430.243 42.9658C430.732 43.4889 431.17 44.0576 431.55 44.664C431.75 44.9717 431.949 45.2913 432.101 45.615C432.181 45.7748 432.261 45.9346 432.333 46.0945C432.405 46.2543 432.481 46.4221 432.537 46.5659C432.587 46.7133 432.691 46.8362 432.828 46.9103C432.965 46.9843 433.125 47.004 433.276 46.9655C433.425 46.9184 433.549 46.8155 433.624 46.6784C433.698 46.5414 433.717 46.3807 433.676 46.2303C433.067 44.7069 432.184 43.3079 431.07 42.1028C430.957 41.9969 430.807 41.9392 430.651 41.942C430.496 41.9447 430.348 42.0076 430.238 42.1174C430.128 42.2273 430.065 42.3754 430.063 42.5307C430.06 42.6859 430.117 42.8362 430.223 42.9498L430.243 42.9658Z" fill="#3D3C3C"/>
<path d="M429.976 42.4543C429.906 43.8731 429.584 45.2681 429.025 46.5739C428.539 47.9044 427.834 49.1442 426.939 50.242C426.435 50.8213 427.279 51.6724 427.786 51.089C428.79 49.8691 429.584 48.4903 430.135 47.0094C430.754 45.5662 431.106 44.023 431.174 42.4543C431.174 42.2954 431.111 42.1429 430.999 42.0305C430.886 41.9181 430.734 41.855 430.575 41.855C430.416 41.855 430.264 41.9181 430.151 42.0305C430.039 42.1429 429.976 42.2954 429.976 42.4543V42.4543Z" fill="#3D3C3C"/>
<path d="M429.064 47.2493C429.752 48.1556 430.351 49.1256 430.854 50.1461C430.937 50.282 431.068 50.3805 431.222 50.4207C431.376 50.461 431.539 50.4399 431.677 50.3619C431.812 50.2782 431.909 50.1463 431.949 49.9933C431.989 49.8402 431.969 49.6776 431.893 49.5388C431.386 48.5195 430.786 47.5497 430.099 46.6419C430.017 46.5104 429.891 46.4126 429.743 46.3662C429.587 46.3253 429.421 46.3468 429.28 46.4261C429.144 46.5084 429.046 46.6404 429.005 46.794C428.965 46.9476 428.986 47.1109 429.064 47.2493Z" fill="#3D3C3C"/>
<path d="M434.442 49.6787C434.932 50.9721 435.295 52.3104 435.524 53.6744C435.572 53.8232 435.674 53.9479 435.812 54.0224C435.949 54.0969 436.109 54.1154 436.26 54.074C436.408 54.0244 436.531 53.9205 436.605 53.7832C436.679 53.646 436.699 53.4857 436.659 53.3348C436.43 51.9711 436.068 50.633 435.58 49.3391C435.535 49.1875 435.433 49.0593 435.295 48.9812C435.157 48.9031 434.995 48.881 434.841 48.9196C434.693 48.9675 434.569 49.0705 434.495 49.2074C434.42 49.3442 434.401 49.5044 434.442 49.6548V49.6787Z" fill="#3D3C3C"/>
<path d="M434.373 49.6469C433.785 51.2994 433.002 52.8756 432.039 54.3418C431.82 54.7054 431.576 55.053 431.356 55.4167C431.068 55.8881 431.288 56.2518 431.42 56.7472C431.616 57.4704 431.76 58.2057 431.991 58.9209C432.223 59.6361 433.386 59.3205 433.146 58.6012C432.838 57.6463 432.667 56.6553 432.347 55.7003L432.287 56.1638C433.574 54.2219 434.796 52.1881 435.516 49.9665C435.755 49.2273 434.597 48.9157 434.361 49.6469H434.373Z" fill="#3D3C3C"/>
<path d="M432.772 53.4027C433 54.3297 433.26 55.2487 433.544 56.1597C433.563 56.2376 433.597 56.3109 433.645 56.3752C433.693 56.4395 433.753 56.4935 433.823 56.5341C433.892 56.5747 433.969 56.6009 434.048 56.6113C434.128 56.6217 434.208 56.616 434.286 56.5946C434.363 56.5732 434.435 56.5366 434.498 56.4867C434.561 56.4369 434.613 56.375 434.652 56.3046C434.69 56.2343 434.714 56.1569 434.722 56.0771C434.73 55.9973 434.722 55.9167 434.698 55.8401C434.415 54.9291 434.155 54.01 433.927 53.087C433.885 52.934 433.784 52.8039 433.646 52.7253C433.509 52.6466 433.345 52.6258 433.192 52.6675C433.044 52.7163 432.921 52.8194 432.847 52.956C432.773 53.0926 432.753 53.2523 432.792 53.4027H432.772Z" fill="#3D3C3C"/>
<path d="M436.539 57.0109C435.832 59.1248 434.801 61.1159 433.482 62.9125C433.401 63.0498 433.379 63.2134 433.419 63.3674C433.459 63.5214 433.558 63.6531 433.696 63.7337C433.833 63.8142 433.997 63.8369 434.151 63.7968C434.305 63.7567 434.436 63.6571 434.517 63.5199C435.896 61.6345 436.974 59.5465 437.713 57.3306C437.957 56.5993 436.802 56.2837 436.559 57.0109H436.539Z" fill="#3D3C3C"/>
<path d="M436.736 57.2385C437.09 58.415 437.281 59.6343 437.303 60.8626C437.303 61.1623 437.303 61.462 437.303 61.7616C437.309 61.8805 437.294 61.9994 437.259 62.1133L437.223 62.2052C437.168 62.2731 437.156 62.2811 437.18 62.2291C437.108 62.2291 436.844 61.8056 436.78 61.7097C436.648 61.4901 436.548 61.2535 436.48 61.0064C436.332 60.483 435.409 60.3911 435.326 61.0064C435.104 62.5371 435.052 64.0874 435.17 65.6295C435.23 66.3966 436.428 66.4006 436.368 65.6295C436.247 64.1858 436.286 62.7332 436.484 61.2981H435.33C435.515 62.0533 435.95 62.7236 436.564 63.2001C437.335 63.7235 438.23 63.1761 438.43 62.341C438.578 61.4648 438.586 60.5706 438.454 59.6919C438.359 58.7449 438.177 57.8086 437.911 56.8949C437.691 56.1557 436.536 56.4713 436.752 57.2145L436.736 57.2385Z" fill="#3D3C3C"/>
<path d="M415.566 50.5339C417.887 52.2768 419.925 54.3672 421.608 56.7313C426.363 63.2123 429.044 70.948 431.657 78.5518" stroke="#3D3C3C" stroke-width="3" stroke-linecap="round" stroke-linejoin="round"/>
<path d="M413.033 60.2434C414.232 60.8188 415.131 61.9096 415.874 63.0404C416.945 64.7336 417.906 66.494 418.751 68.3107L421.396 73.6929" stroke="#3D3C3C" stroke-width="3" stroke-linecap="round" stroke-linejoin="round"/>
<path d="M407.6 66.0532C410.221 68.2828 411.771 71.5153 412.938 74.7519C415.143 80.8773 416.282 87.4382 419.447 93.1321" stroke="#3D3C3C" stroke-width="3" stroke-linecap="round" stroke-linejoin="round"/>
<path d="M411.899 98.546C410.781 100.329 409.809 102.2 408.994 104.14C409.543 104.014 410.079 103.833 410.592 103.601L417.745 100.664" stroke="#3D3C3C" stroke-width="3" stroke-linecap="round" stroke-linejoin="round"/>
<path d="M283.482 22.8755C283.482 22.8755 277.341 16.5823 269.35 17.6811C267.352 21.2773 263.412 28.0939 256.563 27.2708C246.574 26.0721 246.574 40.8562 246.574 40.8562L242.079 42.6782L240.529 47.0495L242.051 50.1861L247.193 53.2428C247.193 53.2428 246.754 56.5713 244.576 58.0377C242.399 59.5041 241.999 61.2342 241.38 57.2385C240.581 52.0441 235.242 44.6201 233.388 41.6553C231.39 38.4588 227.395 28.0699 231.79 19.2794C236.185 10.4889 241.048 4.31552 254.565 2.89705C267.699 1.51854 272.81 6.81683 275.647 8.75474C278.484 10.6927 277.245 10.2851 279.886 12.8863C282.527 15.4875 285.081 18.8798 283.482 22.8755Z" fill="#3D3C3C"/>
</svg>
