<svg width="50" height="50" viewBox="0 0 50 50" fill="none" xmlns="http://www.w3.org/2000/svg">
<mask id="mask0_197_2722" style="mask-type:alpha" maskUnits="userSpaceOnUse" x="0" y="0" width="50" height="50">
<rect width="50" height="50" fill="#C4C4C4"/>
</mask>
<g mask="url(#mask0_197_2722)">
<path d="M37.4765 25.7309C37.7109 21.4835 37.6197 14.5824 32.763 13.671C28.5963 12.8897 24.0338 17.1918 20.5234 18.0981C17.013 19.0043 14.5338 18.0981 14.013 14.9731C9.58588 18.0981 10.3671 26.171 10.3671 26.171C10.3671 26.171 11.4427 36.1423 14.164 40.5538C17.6588 46.2231 27.3749 49.1632 33.6458 42.4106C36.1484 39.7127 37.2447 34.2856 37.4765 32.1814" stroke="#463F3A" stroke-width="1.5" stroke-linecap="round" stroke-linejoin="round"/>
<path d="M17.078 27.9808C17.0928 28.1091 17.0769 28.239 17.0316 28.3599C16.9863 28.4807 16.913 28.5891 16.8176 28.6761C16.7252 28.7616 16.6156 28.8263 16.4961 28.866C16.3767 28.9057 16.2501 28.9195 16.1249 28.9064C15.9997 28.8933 15.8788 28.8537 15.7701 28.7902C15.6614 28.7267 15.5675 28.6408 15.4947 28.5381C15.3731 28.3464 15.2971 28.1292 15.2727 27.9035C15.2483 27.6777 15.2762 27.4493 15.3541 27.236C15.3991 27.1225 15.4673 27.0197 15.5544 26.9342C15.6415 26.8486 15.7456 26.7823 15.8599 26.7393C15.9742 26.6964 16.0962 26.6779 16.2181 26.6849C16.34 26.692 16.459 26.7245 16.5676 26.7803C16.7449 26.9032 16.8865 27.0708 16.9779 27.2661C17.0694 27.4614 17.1075 27.6775 17.0885 27.8923C17.0885 27.9209 17.0832 27.9522 17.078 27.9808Z" fill="#463F3A"/>
<path d="M28.6901 27.2387C28.6117 27.3433 28.5105 27.4287 28.3941 27.4884C28.2778 27.5481 28.1494 27.5806 28.0187 27.5833C27.888 27.5861 27.7584 27.5591 27.6396 27.5043C27.5209 27.4496 27.4161 27.3685 27.3334 27.2673C27.2058 27.0879 27.1238 26.8801 27.0943 26.6619C27.0648 26.4437 27.0887 26.2216 27.1641 26.0147C27.2492 25.8079 27.4118 25.6426 27.6171 25.5541C27.8224 25.4655 28.0542 25.4607 28.263 25.5408C28.4266 25.6303 28.565 25.7595 28.6656 25.9164C28.7662 26.0734 28.8257 26.2532 28.8386 26.4392C28.8492 26.534 28.8439 26.63 28.8229 26.7231C28.8404 26.9052 28.7934 27.0877 28.6901 27.2387Z" fill="#463F3A"/>
<path d="M36.8385 26.5615C36.8385 26.5615 38.6224 25.0407 40.6719 26.1449C43.3307 27.5772 41.6016 34.2178 36.6953 31.8897" stroke="#463F3A" stroke-width="1.5" stroke-linecap="round" stroke-linejoin="round"/>
<path d="M37.6118 28.0225C37.6118 28.0225 38.453 27.2178 39.3019 27.8689C39.8097 28.2621 39.7108 29.0251 39.3722 29.5642" stroke="#463F3A" stroke-width="1.5" stroke-linecap="round" stroke-linejoin="round"/>
<path d="M24.9165 37.5564C24.9165 37.5564 28.0415 37.1918 29.1483 34.8376" stroke="#463F3A" stroke-width="1.5" stroke-linecap="round" stroke-linejoin="round"/>
<path d="M27.685 21.0068C26.6434 21.1006 26.383 21.4209 27.1642 21.6318C27.7762 21.7985 31.0705 22.0641 31.6356 21.6787C32.3126 21.2178 31.0705 20.7074 27.685 21.0068Z" fill="#463F3A"/>
<path d="M15.1485 23.3324C15.8672 23.2178 16.0964 23.3923 15.6094 23.671C15.2266 23.8897 13.0651 24.6371 12.6172 24.4704C12.0834 24.2699 12.823 23.71 15.1485 23.3324Z" fill="#463F3A"/>
<path d="M10.3671 26.1709C9.31873 24.9766 8.56147 23.5555 8.15481 22.0193C7.74815 20.483 7.70316 18.8734 8.02337 17.3168C9.02858 12.0433 13.4921 11.0668 13.4921 11.0668C13.4921 11.0668 14.013 7.42095 17.9192 8.2022C17.9192 4.03553 22.8359 2.96782 28.5963 4.03553C35.6275 5.33761 45.5234 14.1918 39.6536 25.7308" stroke="#463F3A" stroke-width="1.5" stroke-linecap="round" stroke-linejoin="round"/>
<path d="M21.5024 25.9053C21.5024 25.9053 21.8253 29.8115 20.2628 31.6344C19.1768 32.9001 21.6352 33.611 22.7706 33.4053" stroke="#463F3A" stroke-width="1.5" stroke-linecap="round" stroke-linejoin="round"/>
</g>
</svg>
