<svg width="42" height="21" viewBox="0 0 42 21" fill="none" xmlns="http://www.w3.org/2000/svg">
<path fill-rule="evenodd" clip-rule="evenodd" d="M41.9005 13.13H37.7376V0.279297L24.6154 13.13C24.8869 12.225 25.0679 11.2295 25.0679 10.3245C25.0679 4.89468 20.6335 0.460292 15.2036 0.460292C11.6742 0.460292 8.50679 2.36074 6.78733 5.16617V0.460292L2.98643 0.55079L0 3.89921H3.25792V20.2793H6.78733V15.4829C8.50679 18.2883 11.6742 20.1888 15.2036 20.1888C18.552 20.1888 21.5385 18.5598 23.2579 16.0259H32.8507V16.1164H34.4796V20.1888H37.8281V16.1164H41.991V13.13H41.9005ZM15.1131 16.6594C11.5837 16.6594 8.68778 13.7635 8.68778 10.234C8.68778 6.70464 11.5837 3.80871 15.1131 3.80871C18.6425 3.80871 21.5385 6.70464 21.5385 10.234C21.5385 13.7635 18.6425 16.6594 15.1131 16.6594ZM28.5973 13.13L34.3891 7.42862V13.13H32.8507H28.5973Z" fill="#3D3C3C"/>
</svg>
