<svg width="124" height="17" viewBox="0 0 124 17" fill="none" xmlns="http://www.w3.org/2000/svg">
<path d="M11.2924 11.3872C11.406 11.5009 11.5196 11.6145 11.6333 11.7281C12.0878 12.1827 12.5424 12.6372 12.9969 13.0918C13.4514 13.5463 13.4514 13.5463 12.9969 14.1145C8.45145 18.0918 1.29237 15.5918 0.156011 9.68269C-0.753078 5.02361 2.42873 1.04634 6.63327 0.364524C9.13327 0.0236155 11.2924 0.705432 13.2242 2.40997C13.4514 2.63725 13.4514 2.75088 13.2242 2.97816C12.656 3.54634 12.0878 4.11452 11.5196 4.6827C11.2924 4.90997 11.1787 4.90997 10.9514 4.6827C9.58781 3.4327 7.99691 3.20543 6.17873 3.77361C4.47419 4.45543 3.45146 5.70542 3.22419 7.5236C2.88328 9.79633 4.70146 12.2963 6.97418 12.6372C8.45145 12.8645 9.81508 12.5236 10.9514 11.5009L11.0651 11.3872C11.1787 11.5009 11.1787 11.3872 11.2924 11.3872Z" fill="#3D3C3C"/>
<path d="M21.7465 6.61346C21.7465 6.27255 21.7465 6.04528 21.7465 5.70437C22.6556 5.70437 23.4511 5.70437 24.3602 5.70437C24.3602 9.11345 24.3602 12.5225 24.3602 15.9316C23.4511 15.9316 22.6556 15.9316 21.7465 15.9316C21.7465 15.7043 21.7465 15.3634 21.6329 15.0225C20.1556 16.0453 18.5647 16.2725 16.8602 15.7043C15.7238 15.3634 14.9284 14.6816 14.2466 13.7725C12.8829 11.8407 12.9966 9.34072 14.4738 7.52255C15.3829 6.49982 16.5193 5.818 17.8829 5.59073C19.3602 5.36346 20.6102 5.818 21.7465 6.61346ZM18.6784 13.318C20.1556 13.318 21.292 12.1816 21.292 10.818C21.292 9.568 20.3829 8.318 18.6784 8.20436C17.3147 8.20436 16.1784 9.34072 16.1784 10.818C16.1784 12.1816 17.3147 13.318 18.6784 13.318Z" fill="#3D3C3C"/>
<path d="M28.7921 12.1821C28.7921 13.4321 28.7921 14.6821 28.7921 15.8184C27.7694 15.8184 26.8603 15.8184 25.9512 15.8184C25.9512 10.7048 25.9512 5.7048 25.9512 0.477539C26.8603 0.477539 27.7694 0.477539 28.7921 0.477539C28.7921 3.09117 28.7921 5.81844 28.7921 8.54571C30.383 7.40934 31.7466 6.27298 33.2239 5.13662C33.7921 5.93207 34.4739 6.61389 35.0421 7.40934C33.7921 8.43207 32.4284 9.34116 31.1784 10.3639C31.7466 10.8184 32.2012 11.273 32.7693 11.7275C33.5648 12.4093 34.2466 12.9775 35.0421 13.6593C35.2693 13.8866 35.383 14.0002 35.0421 14.2275C34.4739 14.6821 34.0193 15.1366 33.5648 15.7048C33.3375 15.9321 33.1102 15.9321 32.883 15.7048C31.7466 14.5684 30.4966 13.5457 29.3603 12.523C29.133 12.523 29.0193 12.4093 28.7921 12.1821Z" fill="#3D3C3C"/>
<path d="M44.8157 15.0237C44.0202 15.7055 43.2248 16.0464 42.2021 16.1601C40.3839 16.3874 38.793 16.1601 37.2021 15.1374C35.2703 13.8874 34.4748 11.7283 34.9293 9.56919C35.3839 7.4101 37.2021 5.70556 39.3612 5.47828C42.4293 5.02374 44.9293 6.50101 45.4975 10.1374C45.6111 10.8192 45.6111 11.501 45.6111 12.2965C43.1111 12.2965 40.6112 12.2965 38.1112 12.2965C38.6793 12.9783 39.2475 13.4328 40.043 13.5465C40.9521 13.7737 41.8612 13.5465 42.6566 13.0919C42.9975 12.9783 43.1111 12.9783 43.3384 13.2055C43.9066 13.7737 44.3611 14.3419 44.8157 15.0237ZM42.7702 9.91009C42.543 8.6601 41.5202 7.86464 40.2702 7.97828C39.1339 8.09192 38.1112 9.00101 38.1112 9.91009C39.5884 9.91009 41.1793 9.91009 42.7702 9.91009Z" fill="#3D3C3C"/>
<path d="M55.951 15.7048C54.9283 15.7048 53.9055 15.7048 52.8828 15.7048C52.8828 10.5912 52.8828 5.59117 52.8828 0.477539C53.1101 0.477539 53.2237 0.477539 53.3374 0.477539C55.0419 0.477539 56.7464 0.477539 58.451 0.477539C60.7237 0.477539 62.7692 2.40935 63.1101 4.56844C63.3373 6.50026 62.7692 7.97753 61.2919 9.22752C61.0646 9.45479 61.0646 9.56843 61.1783 9.7957C62.0873 11.5002 63.1101 13.3184 64.0192 15.023C64.1328 15.2502 64.2464 15.3639 64.3601 15.7048C63.6782 15.7048 63.1101 15.7048 62.5419 15.7048C61.9737 15.7048 61.4055 15.8184 60.951 15.5911C60.6101 15.3639 60.3828 14.6821 60.1555 14.2275C59.5873 12.9775 59.0192 11.8412 58.451 10.5912C58.3373 10.2502 58.1101 10.1366 57.8828 10.2502C57.3146 10.2502 56.8601 10.2502 56.2919 10.2502C55.951 10.2502 55.8374 10.3639 55.8374 10.7048C55.8374 12.1821 55.8374 13.773 55.8374 15.2502C56.0646 15.4775 55.951 15.5911 55.951 15.7048ZM56.0646 5.25026C56.0646 5.7048 56.0646 6.27298 56.0646 6.72753C56.0646 6.9548 56.0646 7.06844 56.4055 7.06844C57.201 7.06844 57.9964 7.06844 58.7919 6.9548C59.701 6.84116 60.3828 6.04571 60.3828 5.13662C60.3828 4.22753 59.701 3.43208 58.7919 3.31844C58.1101 3.20481 57.3146 3.31844 56.6328 3.20481C56.2919 3.20481 56.1783 3.31844 56.1783 3.65935C56.0646 4.34117 56.0646 4.79571 56.0646 5.25026Z" fill="#3D3C3C"/>
<path d="M105.269 6.50077C106.065 5.70531 106.86 5.36441 107.883 5.25077C110.156 5.0235 112.201 7.06895 112.087 8.88713C112.087 11.0462 112.087 13.2053 112.087 15.3644C112.087 15.478 112.087 15.7053 112.087 15.8189C111.178 15.8189 110.269 15.8189 109.246 15.8189C109.246 15.5917 109.246 15.478 109.246 15.2508C109.246 13.5462 109.246 11.8417 109.246 10.1371C109.246 9.68258 109.246 9.22803 109.133 8.77349C109.019 7.97804 108.337 7.63713 107.428 7.8644C106.519 8.09167 106.065 8.77349 105.951 9.68258C105.951 11.5008 105.951 13.4326 105.951 15.2508C105.951 15.478 105.951 15.5917 105.951 15.8189C104.928 15.8189 103.906 15.8189 102.769 15.8189C102.769 15.5917 102.769 15.478 102.769 15.2508C102.769 13.5462 102.769 11.9553 102.769 10.2508C102.769 9.79622 102.769 9.34167 102.656 9.00076C102.542 7.97804 101.974 7.63713 101.065 7.8644C100.156 8.09167 99.5874 8.77349 99.5874 9.68258C99.5874 11.6144 99.5874 13.4326 99.5874 15.3644C99.5874 15.478 99.5874 15.7053 99.5874 15.8189C98.5646 15.8189 97.6555 15.8189 96.6328 15.8189C96.6328 12.2962 96.6328 8.88713 96.6328 5.36441C97.6555 5.36441 98.5646 5.36441 99.5874 5.36441C99.5874 5.70531 99.5874 6.04622 99.5874 6.38713C100.383 5.59168 101.292 5.25077 102.428 5.25077C103.451 5.25077 104.36 5.70531 105.269 6.50077Z" fill="#3D3C3C"/>
<path d="M123.565 12.0688C120.951 12.0688 118.565 12.0688 116.065 12.0688C116.633 13.0915 117.997 13.5461 118.792 13.4324C119.474 13.3188 120.042 13.0915 120.724 12.8643C120.838 12.8643 121.065 12.8643 121.065 12.9779C121.633 13.6597 122.087 14.2279 122.656 14.9097C122.087 15.4779 121.406 15.8188 120.61 15.9324C118.338 16.387 116.178 16.1597 114.474 14.4552C112.883 12.9779 112.315 11.1597 112.997 9.00063C113.678 6.84155 115.156 5.47791 117.428 5.25064C120.61 4.79609 122.997 6.61427 123.451 9.90972C123.451 10.5915 123.451 11.2734 123.565 12.0688ZM120.497 9.68245C120.383 8.54609 119.36 7.75063 118.224 7.75063C116.974 7.75063 115.951 8.65972 115.838 9.68245C117.428 9.68245 118.906 9.68245 120.497 9.68245Z" fill="#3D3C3C"/>
<path d="M74.4736 12.0683C73.1099 12.0683 71.9736 12.0683 70.7236 12.0683C69.4736 12.0683 68.3372 12.0683 66.9736 12.0683C67.4281 12.7501 68.1099 13.2046 68.9054 13.3183C69.8145 13.5455 70.7236 13.3183 71.6326 12.8637C71.8599 12.7501 72.0872 12.7501 72.2008 12.9773C72.5417 13.5455 72.9963 14.0001 73.4508 14.5683C73.6781 14.7955 73.6781 14.9092 73.3372 15.1364C72.4281 15.7046 71.519 16.0455 70.3827 16.1592C68.9054 16.2728 67.5417 16.0455 66.2918 15.2501C64.3599 14.1137 63.3372 12.0683 63.6781 9.90917C64.019 7.63645 65.3827 6.04554 67.5417 5.47736C70.6099 4.68191 73.6781 6.15918 74.2463 9.90917C74.4736 10.4774 74.3599 11.2728 74.4736 12.0683ZM66.7463 9.6819C68.2236 9.6819 69.7008 9.6819 71.1781 9.6819C71.519 9.6819 71.4054 9.45463 71.4054 9.22735C71.0645 8.20463 70.1554 7.63645 69.019 7.63645C67.9963 7.63645 66.9736 8.4319 66.7463 9.34099C66.7463 9.56826 66.7463 9.56826 66.7463 9.6819Z" fill="#3D3C3C"/>
<path d="M95.3835 5.36328C95.3835 5.47692 95.3835 5.59055 95.3835 5.70419C95.3835 7.74964 95.3835 9.68145 95.3835 11.7269C95.3835 13.2042 94.7017 14.3405 93.5653 15.2496C91.5199 16.7269 88.3381 16.6133 86.5199 14.9087C85.6108 14.1133 85.1562 13.0905 85.1562 11.8405C85.1562 9.90873 85.1562 7.97691 85.1562 6.0451C85.1562 5.81783 85.1562 5.70419 85.1562 5.47692C86.179 5.47692 87.2017 5.47692 88.3381 5.47692C88.3381 5.70419 88.3381 5.81783 88.3381 6.0451C88.3381 7.86328 88.3381 9.68146 88.3381 11.4996C88.3381 11.8405 88.3381 12.1814 88.4517 12.5224C88.679 13.3178 89.5881 13.7724 90.4972 13.6587C91.4062 13.5451 92.0881 12.9769 92.0881 12.1814C92.2017 10.3633 92.2017 8.54509 92.2017 6.72691C92.2017 6.27237 92.2017 5.93146 92.2017 5.47692C93.3381 5.36328 94.3608 5.36328 95.3835 5.36328Z" fill="#3D3C3C"/>
<path d="M84.1333 6.50014C83.5651 7.18196 82.997 7.75014 82.5424 8.43196C82.4288 8.54559 82.2015 8.43196 82.0879 8.43196C81.2924 7.97741 80.497 7.75014 79.5879 7.75014C79.247 7.75014 78.9061 7.86378 78.5652 8.09105C78.4515 8.20469 78.2242 8.43196 78.2242 8.54559C78.2242 8.65923 78.4515 8.8865 78.5652 8.8865C79.1333 9.11378 79.8152 9.22741 80.497 9.34105C81.2924 9.56832 82.0879 9.79559 82.8833 10.1365C85.2697 11.1592 85.0424 14.0001 83.4515 15.1365C82.2015 16.0456 80.8379 16.2729 79.4742 16.1592C77.8833 16.0456 76.5197 15.4774 75.2697 14.4547C75.0424 14.341 74.9288 14.1138 74.5879 13.8865C75.3833 13.2047 76.0652 12.6365 76.747 12.0683C77.0879 12.2956 77.3152 12.5229 77.5424 12.7501C78.3379 13.3183 79.247 13.6592 80.3833 13.4319C80.497 13.4319 80.497 13.4319 80.6106 13.4319C80.9515 13.3183 81.4061 13.091 81.4061 12.6365C81.4061 12.182 81.0652 11.9547 80.6106 11.841C79.8152 11.6138 78.9061 11.5001 78.1106 11.2729C77.4288 11.0456 76.8606 10.8183 76.1788 10.4774C74.8152 9.68196 74.5879 8.09105 75.497 6.84105C76.2924 5.81833 77.3152 5.36378 78.5652 5.13651C80.3833 4.7956 82.0879 5.13651 83.6788 6.0456C83.7924 6.15924 83.9061 6.15924 84.0197 6.27287C83.9061 6.38651 84.0197 6.50014 84.1333 6.50014Z" fill="#3D3C3C"/>
</svg>
