<svg width="32" height="32" viewBox="0 0 32 32" fill="none" xmlns="http://www.w3.org/2000/svg">
<mask id="mask0_770_7229" style="mask-type:alpha" maskUnits="userSpaceOnUse" x="0" y="0" width="32" height="32">
<rect width="32" height="32" fill="#C4C4C4"/>
</mask>
<g mask="url(#mask0_770_7229)">
<path d="M6.47661 2.28564C4.17583 2.28564 2.28613 4.17534 2.28613 6.47612V25.5237C2.28613 27.8245 4.17583 29.7142 6.47661 29.7142H25.5242C27.825 29.7142 29.7147 27.8245 29.7147 25.5237V6.47612C29.7147 4.17534 27.825 2.28564 25.5242 2.28564H6.47661ZM6.47661 4.57136H25.5242C26.5895 4.57136 27.429 5.41081 27.429 6.47612V25.5237C27.429 26.5891 26.5895 27.4285 25.5242 27.4285H6.47661C5.41129 27.4285 4.57185 26.5891 4.57185 25.5237V6.47612C4.57185 5.41081 5.41129 4.57136 6.47661 4.57136ZM9.52423 7.61898C9.01905 7.61898 8.53457 7.81966 8.17736 8.17687C7.82015 8.53408 7.61947 9.01857 7.61947 9.52374C7.61947 10.0289 7.82015 10.5134 8.17736 10.8706C8.53457 11.2278 9.01905 11.4285 9.52423 11.4285C10.0294 11.4285 10.5139 11.2278 10.8711 10.8706C11.2283 10.5134 11.429 10.0289 11.429 9.52374C11.429 9.01857 11.2283 8.53408 10.8711 8.17687C10.5139 7.81966 10.0294 7.61898 9.52423 7.61898ZM8.38137 12.9523C7.96004 12.9523 7.61947 13.2929 7.61947 13.7142V23.619C7.61947 24.0403 7.96004 24.3809 8.38137 24.3809H10.6671C11.0884 24.3809 11.429 24.0403 11.429 23.619V13.7142C11.429 13.2929 11.0884 12.9523 10.6671 12.9523H8.38137ZM13.7147 12.9523C13.2934 12.9523 12.9528 13.2929 12.9528 13.7142V23.619C12.9528 24.0403 13.2934 24.3809 13.7147 24.3809H16.0004C16.4218 24.3809 16.7623 24.0403 16.7623 23.619V17.9047C16.7623 16.854 17.6164 15.9999 18.6671 15.9999C19.7178 15.9999 20.5718 16.854 20.5718 17.9047V23.619C20.5718 24.0403 20.9124 24.3809 21.3338 24.3809H23.6195C24.0408 24.3809 24.3814 24.0403 24.3814 23.619V17.5237C24.3814 15.0026 22.3311 12.9523 19.8099 12.9523C18.6381 12.9523 17.5722 13.3988 16.7623 14.1264V13.7142C16.7623 13.2929 16.4218 12.9523 16.0004 12.9523H13.7147Z" fill="#FEF9A1"/>
</g>
</svg>
