<svg width="32" height="32" viewBox="0 0 32 32" fill="none" xmlns="http://www.w3.org/2000/svg">
<mask id="mask0_578_4208" style="mask-type:alpha" maskUnits="userSpaceOnUse" x="0" y="0" width="32" height="32">
<rect width="32" height="32" fill="#C4C4C4"/>
</mask>
<g mask="url(#mask0_578_4208)">
<path d="M17.2933 2.28564C17.3911 2.28573 17.4859 2.28583 17.5779 2.28595L18.334 2.2879C19.4048 2.29242 20.0155 2.30484 20.5996 2.33901L20.8496 2.35502C21.1004 2.37244 21.3578 2.39422 21.6558 2.42145C22.8072 2.42145 23.8909 2.62564 24.9745 3.03402C26.8032 3.71465 28.2255 5.21204 28.9705 7.04974C29.3769 8.13875 29.5801 9.22776 29.6478 10.3848C29.6478 11.7189 29.7068 12.2228 29.7147 15.3277L29.7147 18.166C29.7119 20.0274 29.6998 20.5353 29.6478 21.6833C29.5801 22.8404 29.3769 23.9294 28.9705 25.0184C28.2933 26.8561 26.8032 28.2854 24.9745 29.0341C23.8909 29.3744 22.8072 29.6467 21.6558 29.6467C21.3805 29.6599 21.1433 29.6705 20.9122 29.6791L20.682 29.687C20.1056 29.7051 19.5011 29.7114 18.3697 29.7136L17.6237 29.7145C17.5329 29.7145 17.4393 29.7146 17.3428 29.7146L14.6872 29.7146C14.5882 29.7146 14.4923 29.7145 14.3994 29.7144L13.6377 29.7135C11.9477 29.7099 11.4377 29.6966 10.345 29.6467C9.19364 29.6467 8.10998 29.4425 7.02631 29.0341C6.0781 28.6938 5.26535 28.1493 4.58806 27.4687C3.91077 26.788 3.36894 25.9032 3.03029 25.0184C2.62392 23.9294 2.353 22.8404 2.353 21.6833C2.30108 20.5875 2.28896 20.0518 2.28613 18.1745V13.8936C2.28785 12.751 2.29302 12.1053 2.3085 11.5279L2.31579 11.2833C2.32508 11 2.3372 10.7183 2.353 10.3848C2.42073 9.22776 2.62392 8.13875 3.03029 7.04974C3.36894 6.09686 3.91077 5.2801 4.58806 4.59947C5.26535 3.91884 6.0781 3.37433 7.02631 2.96595C8.10998 2.55757 9.19364 2.35338 10.345 2.35338C11.2932 2.30801 11.82 2.29288 13.1696 2.28784L13.8366 2.28619C13.9179 2.28606 14.0016 2.28596 14.088 2.28587L17.2933 2.28564ZM18.1185 4.80452H13.9416C12.104 4.80736 11.5709 4.81954 10.4805 4.87172C9.60002 4.87172 8.71954 5.07591 7.90679 5.34816C7.29723 5.55235 6.82312 5.89267 6.34902 6.36911C5.87492 6.77749 5.53627 7.32199 5.26535 7.8665C4.99444 8.68325 4.79125 9.56808 4.79125 10.4529C4.77545 10.8023 4.76333 11.0924 4.75404 11.3785L4.74675 11.6241C4.73126 12.2009 4.7261 12.8252 4.72438 13.9396L4.72368 14.7278C4.72364 14.8239 4.72361 14.9229 4.72359 15.0251V17.0449C4.72361 17.1474 4.72364 17.2469 4.72368 17.3435L4.72438 18.1371C4.72721 19.9837 4.73932 20.5194 4.79125 21.6152C4.79125 22.5001 4.99444 23.3849 5.26535 24.2016C5.46854 24.7461 5.80719 25.2907 6.28129 25.7671C6.68766 26.2435 7.2295 26.5839 7.83906 26.788C8.65181 27.0603 9.53229 27.2645 10.4128 27.2645C11.5551 27.3167 12.0605 27.3288 13.8823 27.3317H18.0593C19.8968 27.3288 20.4299 27.3167 21.5203 27.2645C22.4008 27.2645 23.2813 27.0603 24.094 26.788C25.2454 26.3797 26.1936 25.4268 26.6678 24.2016C26.9387 23.3849 27.1419 22.5001 27.1419 21.6152C27.2051 20.2812 27.2683 19.8365 27.2764 16.7949L27.2765 13.9991C27.2736 12.1525 27.2615 11.6168 27.2096 10.521C27.2096 9.63614 27.0064 8.75132 26.7355 7.93456C26.3291 6.77749 25.3809 5.8246 24.1618 5.34816C23.349 5.07591 22.4685 4.87172 21.5881 4.87172C20.4457 4.81954 19.9403 4.80736 18.1185 4.80452ZM15.9666 8.95551C19.8948 8.95551 23.0104 12.0864 23.0104 16.0341C23.0104 19.9817 19.8271 23.1126 15.9666 23.1126C12.106 23.1126 8.92273 19.9137 8.92273 16.0341C8.92273 12.1545 12.106 8.95551 15.9666 8.95551ZM15.8988 11.4738C13.3928 11.4738 11.361 13.5838 11.361 16.1021C11.361 18.6205 13.4606 20.6624 15.9666 20.6624C18.5403 20.6624 20.5721 18.6205 20.5044 16.0341L20.4987 15.8065C20.3768 13.3939 18.3289 11.4738 15.8988 11.4738ZM23.2813 7.04974C24.2295 7.04974 24.9745 7.79843 24.9745 8.68325C24.9745 9.63614 24.1618 10.3168 23.2813 10.3168C22.4008 10.3168 21.6558 9.56807 21.6558 8.68325C21.6558 7.79843 22.3331 7.04974 23.2813 7.04974Z" fill="#E0D8C5"/>
</g>
</svg>
