<svg width="33" height="33" viewBox="0 0 33 33" fill="none" xmlns="http://www.w3.org/2000/svg">
<mask id="mask0_770_7231" style="mask-type:alpha" maskUnits="userSpaceOnUse" x="0" y="0" width="33" height="33">
<rect x="0.241211" y="0.241211" width="31.7599" height="31.7599" fill="#C4C4C4"/>
</mask>
<g mask="url(#mask0_770_7231)">
<path d="M15.4942 30.2808C15.496 30.2855 15.4967 30.2882 15.4966 30.2884C15.4965 30.2885 15.4956 30.2861 15.4942 30.2808ZM18.5941 28.8089C17.3566 29.434 16.2761 29.8025 15.4619 29.9334C15.4607 29.8963 15.4597 29.856 15.459 29.8121C15.4581 29.7614 15.4575 29.7046 15.4568 29.6435C15.4549 29.4712 15.4527 29.2656 15.4429 29.0696C15.4165 28.5437 15.3308 27.7957 14.8724 27.1601C14.3715 26.4654 13.5721 26.092 12.5267 26.0286C10.9676 25.9339 8.18495 25.4218 5.79336 23.8487C3.45378 22.3099 1.44872 19.7383 1.33531 15.3566C1.21969 10.8897 2.80716 7.47803 5.41125 5.14043C8.03473 2.78542 11.7682 1.45327 16.0291 1.33413C20.2088 1.21727 24.0908 2.80936 26.6932 5.41338C29.2821 8.00381 30.6051 11.5869 29.7409 15.5585C28.859 19.6114 26.1601 23.1645 23.1172 25.76C21.6026 27.0517 20.0266 28.0853 18.5941 28.8089Z" stroke="#FEF9A1" stroke-width="2"/>
<path d="M6.71973 10.8867L6.66536 17.1747L9.42568 17.1931" stroke="#FEF9A1" stroke-width="2" stroke-linecap="round" stroke-linejoin="round"/>
<path d="M12.9219 10.9204L12.8654 17.4522" stroke="#FEF9A1" stroke-width="2" stroke-linecap="round" stroke-linejoin="round"/>
<path d="M16.3029 17.4649L16.3594 10.9331L19.3165 17.5362L19.3734 10.9532" stroke="#FEF9A1" stroke-width="2" stroke-linecap="round" stroke-linejoin="round"/>
<path fill-rule="evenodd" clip-rule="evenodd" d="M22.8248 9.69177C22.1193 9.68707 21.5423 10.2552 21.5362 10.9608L21.5083 14.1865C21.507 14.2083 21.5063 14.2302 21.5061 14.2523C21.5059 14.2744 21.5063 14.2964 21.5072 14.3182L21.4798 17.4925C21.4737 18.1981 22.0407 18.7739 22.7463 18.7786L25.6181 18.7978C26.3237 18.8025 26.9006 18.2343 26.9067 17.5287C26.9128 16.8232 26.3458 16.2474 25.6402 16.2427L24.0459 16.232L24.0519 15.5469L25.8313 15.5588C26.5369 15.5635 27.1138 14.9953 27.1199 14.2897C27.126 13.5842 26.559 13.0084 25.8534 13.0037L24.0739 12.9918L24.0803 12.2554L25.8614 12.2673C26.567 12.272 27.1439 11.7038 27.15 10.9982C27.1561 10.2927 26.5891 9.71688 25.8835 9.71218L22.8248 9.69177Z" fill="#FEF9A1"/>
</g>
</svg>
