<svg width="60" height="21" viewBox="0 0 60 21" fill="none" xmlns="http://www.w3.org/2000/svg">
<g clip-path="url(#clip0_343_2281)">
<path d="M25.9605 0.279297H16.0405C14.7275 0.283077 13.451 0.711777 12.402 1.50129C11.3529 2.2908 10.5876 3.39869 10.2205 4.6593C10.1982 4.70295 10.1847 4.75049 10.1805 4.79929L9.96047 5.5793L8.98047 9.8393C9.36413 8.60593 10.1318 7.52741 11.1716 6.76108C12.2114 5.99474 13.4688 5.58068 14.7605 5.5793H20.2805C21.648 5.57718 22.976 5.12005 24.0551 4.27996C25.1342 3.43986 25.903 2.26456 26.2405 0.939297L26.3005 0.699295C26.309 0.648895 26.3068 0.597252 26.2938 0.547797C26.2809 0.498342 26.2575 0.45221 26.2254 0.412476C26.1932 0.372741 26.1529 0.340313 26.1073 0.317349C26.0616 0.294386 26.0115 0.281415 25.9605 0.279297Z" fill="#3D3C3C"/>
<path d="M14.6401 6.01953C11.9801 6.01953 9.52013 8.17953 8.74013 10.9395L6.68013 19.8795C6.66767 19.9277 6.6666 19.978 6.677 20.0266C6.6874 20.0753 6.70899 20.1208 6.74004 20.1596C6.7711 20.1984 6.81077 20.2295 6.85592 20.2503C6.90106 20.2711 6.95044 20.2811 7.00012 20.2795H7.14013C8.52389 20.2826 9.86759 19.8151 10.9506 18.9538C12.0336 18.0924 12.7916 16.8885 13.1001 15.5395L15.3001 6.01953H14.6401Z" fill="#3D3C3C"/>
<path d="M9.95997 4.45946C10.3584 3.09007 11.2211 1.90209 12.4 1.09946C11.4836 0.563798 10.4414 0.280842 9.37997 0.27946H0.339969C0.29028 0.277874 0.240906 0.287886 0.195761 0.308705C0.150617 0.329523 0.110943 0.360574 0.0798876 0.399394C0.0488317 0.438214 0.0272477 0.483736 0.0168471 0.53235C0.00644643 0.580963 0.00751532 0.631331 0.019969 0.67946V0.819459C0.331164 2.16867 1.08926 3.37309 2.17119 4.23718C3.25311 5.10127 4.59534 5.57429 5.97997 5.57946H9.65997C9.65997 5.57946 9.93997 4.49946 9.95997 4.45946Z" fill="#3D3C3C"/>
<path d="M57.9805 14.7792C57.9794 14.6631 57.9997 14.5479 58.0405 14.4392C58.0905 14.335 58.1582 14.2403 58.2405 14.1592C58.3201 14.0751 58.4152 14.0072 58.5205 13.9592C58.6261 13.9064 58.7425 13.8789 58.8605 13.8789C58.9785 13.8789 59.095 13.9064 59.2005 13.9592C59.3144 14.0022 59.417 14.0706 59.5005 14.1592C59.5828 14.2362 59.6446 14.3324 59.6805 14.4392C59.7333 14.5448 59.7608 14.6612 59.7608 14.7792C59.7608 14.8972 59.7333 15.0136 59.6805 15.1192C59.6398 15.2236 59.5786 15.3188 59.5005 15.3992C59.412 15.4816 59.3107 15.5492 59.2005 15.5992C58.9808 15.6786 58.7402 15.6786 58.5205 15.5992C58.3113 15.4974 58.1423 15.3284 58.0405 15.1192C57.9997 15.0105 57.9794 14.8953 57.9805 14.7792ZM58.1405 14.7792C58.1391 14.8759 58.1596 14.9716 58.2005 15.0592C58.2397 15.1434 58.2865 15.2237 58.3405 15.2992C58.411 15.3606 58.4924 15.4081 58.5805 15.4392C58.6687 15.4783 58.764 15.4987 58.8605 15.4992C58.9572 15.5006 59.0529 15.4801 59.1405 15.4392C59.2326 15.4172 59.3161 15.3685 59.3805 15.2992C59.4407 15.224 59.4942 15.1437 59.5405 15.0592C59.5803 14.9712 59.6008 14.8758 59.6008 14.7792C59.6008 14.6826 59.5803 14.5872 59.5405 14.4992C59.4654 14.3182 59.3216 14.1743 59.1405 14.0992C59.0529 14.0583 58.9572 14.0378 58.8605 14.0392C58.764 14.0397 58.6687 14.0601 58.5805 14.0992L58.3405 14.2592C58.2783 14.329 58.2307 14.4106 58.2005 14.4992C58.1596 14.5868 58.1391 14.6825 58.1405 14.7792ZM58.5205 14.2592H58.9205C59.0135 14.2577 59.1045 14.2857 59.1805 14.3392C59.2413 14.3966 59.2772 14.4756 59.2805 14.5592C59.2822 14.5963 59.276 14.6334 59.2622 14.6679C59.2484 14.7024 59.2274 14.7335 59.2005 14.7592C59.1831 14.7853 59.1592 14.8064 59.1312 14.8205C59.1031 14.8345 59.0718 14.841 59.0405 14.8392L59.3005 15.2792H59.1005L58.8405 14.8592H58.7205V15.2792H58.5205V14.2592ZM58.7205 14.6992H59.0005C59.0405 14.6992 59.0605 14.6792 59.0605 14.6592C59.0605 14.6392 59.0805 14.6192 59.0805 14.5792C59.0805 14.5392 59.0805 14.5192 59.0605 14.4992C59.0405 14.4792 59.0405 14.4592 59.0005 14.4592H58.7205V14.6992Z" fill="#3D3C3C"/>
<path d="M51.6192 4.89957L51.4792 5.95957H50.8992L49.5392 15.6196H48.4792L48.7992 13.3396C47.8233 13.7001 46.8285 14.0073 45.8192 14.2596L45.6992 13.1596L46.3992 13.0196L47.3992 5.95957H46.8592L46.9992 4.89957H51.6192ZM49.6392 7.43957L49.8392 5.95957H48.4392L48.2392 7.43957H49.6392ZM49.2792 9.93957L49.4792 8.47957H48.0792L47.8792 9.93957H49.2792ZM48.9592 12.2596L49.1392 10.9796H47.7392L47.4992 12.7396C47.9792 12.5996 48.4792 12.4396 48.9592 12.2596ZM57.1592 10.3596L57.0192 11.3596H53.1392L52.6592 12.1596H56.2992C55.9992 13.8196 55.6792 14.7796 55.3592 15.0996C55.0392 15.4196 54.4792 15.5396 53.6792 15.5396C53.2315 15.5359 52.7842 15.5092 52.3392 15.4596L52.1192 14.4596C52.6038 14.5187 53.0911 14.5521 53.5792 14.5596C54.1192 14.5596 54.4592 14.4796 54.6192 14.3196C54.7792 14.1596 54.8992 13.7596 55.0392 13.1196H51.1192L52.0192 11.3596H50.4592L50.5992 10.3596H57.1592ZM54.1192 5.41957C54.1565 5.18437 54.2749 4.96962 54.4539 4.81254C54.6329 4.65547 54.8612 4.56597 55.0992 4.55957H55.2792L55.1592 5.41957H57.4192L56.8192 9.75957H51.2392L51.8592 5.41957H54.1192ZM53.8592 7.17957L53.9792 6.35957H52.7392L52.6192 7.17957H53.8592ZM53.7392 8.03957H52.4992L52.3792 8.83957H53.6392L53.7392 8.03957ZM54.9192 7.17957H56.1392L56.2592 6.35957H55.0392L54.9192 7.17957ZM56.0192 8.03957H54.7992L54.6792 8.83957H55.8992L56.0192 8.03957Z" fill="#3D3C3C"/>
<path d="M38.6605 5.65918L38.4805 6.03918C38.5405 5.89918 38.6205 5.77918 38.6605 5.65918Z" fill="#3D3C3C"/>
<path d="M39.4801 14.1995C40.1206 13.8809 40.6969 13.447 41.1801 12.9195L41.2801 12.1595H37.9401L38.3401 11.7795H39.4401C39.7409 11.7823 40.0395 11.728 40.3201 11.6195C40.5001 11.5195 40.6601 11.2595 40.8001 10.8195C41.1502 11.1645 41.4529 11.5546 41.7001 11.9795L42.4401 11.3395C42.077 10.8672 41.6684 10.4318 41.2201 10.0395L40.6201 10.5395L40.0201 10.3395C39.9401 10.6795 39.8401 10.8595 39.7401 10.9195C39.64 10.9875 39.5211 11.0224 39.4001 11.0195H38.1801C38.0001 11.0195 37.9201 10.9395 37.9401 10.7995L38.0601 9.97949H37.1001L36.9401 10.9995C36.9095 11.1347 36.9267 11.2763 36.9886 11.4002C37.0506 11.5242 37.1536 11.6229 37.2801 11.6795C37.0404 11.8901 36.7864 12.0839 36.5201 12.2595C36.4001 12.1195 36.2601 11.9795 36.1601 11.8395L35.3401 12.3395L35.6801 12.7595C35.3312 12.9435 34.9704 13.1038 34.6001 13.2395L35.0001 14.0795L36.2801 13.3995C36.5735 13.6684 36.8806 13.9221 37.2001 14.1595C36.1744 14.4278 35.1321 14.6283 34.0801 14.7595L34.3601 15.6795C35.6635 15.4805 36.948 15.1728 38.2001 14.7595C39.3726 15.2874 40.6353 15.5861 41.9201 15.6395L42.3001 14.6995C41.3411 14.6673 40.3916 14.499 39.4801 14.1995ZM37.2201 12.9595H39.9201C39.4621 13.2869 38.9649 13.5557 38.4401 13.7595C38.0114 13.528 37.6032 13.2604 37.2201 12.9595Z" fill="#3D3C3C"/>
<path d="M43.1194 5.65977L43.2594 4.75977H35.9594L35.8194 5.65977H38.6594C38.6194 5.77977 38.5394 5.89977 38.4794 6.03977H36.4394L36.0394 8.93977H35.0794L34.8594 10.4198H35.9194L36.0194 9.71977H38.9794L38.3394 9.89977C38.5841 10.16 38.7866 10.4569 38.9394 10.7798L39.6994 10.4598C39.5534 10.1794 39.3567 9.92851 39.1194 9.71977H41.7394L41.6394 10.4198H42.6994L42.8994 8.93977H41.9194L42.3394 6.03977H39.6194C39.6875 5.91711 39.7476 5.79017 39.7994 5.65977H43.1194ZM40.8794 8.93977H37.0594L37.1194 8.57977H40.9394L40.8794 8.93977ZM41.0194 7.97977H37.1994L37.2394 7.65977H41.0594L41.0194 7.97977ZM41.1994 6.71977L41.1394 7.07977H37.3194L37.3794 6.71977H41.1994Z" fill="#3D3C3C"/>
<path d="M34.7994 4.41895C34.5315 5.05397 34.2311 5.67479 33.8994 6.27895C33.5594 6.87895 32.4794 8.69894 31.3594 9.59894C31.6994 10.0389 32.4394 9.99894 32.8594 9.49894L33.0594 9.25894L32.1594 15.6589H33.2594L34.4194 7.37895C34.9192 6.58889 35.354 5.75949 35.7194 4.89894L34.7994 4.41895Z" fill="#3D3C3C"/>
<path d="M34.7598 11.3191L35.2198 12.0391C35.835 11.6674 36.3883 11.2018 36.8598 10.6591L36.3198 10.1191C35.8613 10.5933 35.3357 10.9976 34.7598 11.3191Z" fill="#3D3C3C"/>
</g>
<defs>
<clipPath id="clip0_343_2281">
<rect width="59.74" height="20" fill="white" transform="translate(0 0.279297)"/>
</clipPath>
</defs>
</svg>
