<svg width="24" height="24" viewBox="0 0 24 24" fill="none" xmlns="http://www.w3.org/2000/svg">
<path d="M13.1313 0C13.2169 7.0584e-05 13.2998 0.000158814 13.3803 0.000269101L14.0419 0.00197635C14.9789 0.00592905 15.5132 0.016799 16.0243 0.0466913L16.243 0.0607022C16.4625 0.0759484 16.6877 0.095006 16.9485 0.118828C17.9559 0.118828 18.9041 0.297494 19.8523 0.654825C21.4524 1.25038 22.697 2.56059 23.3489 4.16858C23.7044 5.12147 23.8822 6.07435 23.9415 7.08679C23.9415 8.25407 23.9931 8.69505 24 11.4118L24 13.8953C23.9975 15.524 23.9869 15.9685 23.9415 16.973C23.8822 17.9854 23.7044 18.9383 23.3489 19.8912C22.7562 21.4992 21.4524 22.7498 19.8523 23.4049C18.9041 23.7027 17.9559 23.9409 16.9485 23.9409C16.7076 23.9524 16.5 23.9617 16.2978 23.9692L16.0964 23.9762C15.592 23.992 15.0631 23.9975 14.0732 23.9995L13.4204 24.0002C13.3409 24.0003 13.259 24.0003 13.1746 24.0003L10.8509 24.0003C10.7643 24.0003 10.6804 24.0003 10.5991 24.0002L9.93262 23.9993C8.45383 23.9962 8.00765 23.9846 7.05154 23.9409C6.04407 23.9409 5.09586 23.7623 4.14766 23.4049C3.31797 23.1071 2.60682 22.6307 2.01419 22.0352C1.42156 21.4396 0.947455 20.6654 0.65114 19.8912C0.295562 18.9383 0.0585101 17.9854 0.0585101 16.973C0.0130752 16.0141 0.00247368 15.5454 0 13.9027V10.157C0.00150572 9.15715 0.00602287 8.59223 0.0195743 8.08696L0.0259528 7.87298C0.0340806 7.62504 0.0446821 7.37861 0.0585101 7.08679C0.117773 6.07435 0.295562 5.12147 0.65114 4.16858C0.947455 3.33481 1.42156 2.62015 2.01419 2.0246C2.60682 1.42904 3.31797 0.952601 4.14766 0.59527C5.09586 0.237939 6.04407 0.0592729 7.05154 0.0592729C7.88122 0.0195694 8.34216 0.00633491 9.52303 0.00192341L10.1067 0.000474236C10.1778 0.000366154 10.251 0.000273513 10.3267 0.000194106L13.1313 0ZM13.8533 2.20402H10.1985C8.59067 2.2065 8.1242 2.21716 7.17007 2.26282C6.39965 2.26282 5.62923 2.44148 4.91807 2.6797C4.38471 2.85837 3.96987 3.15614 3.55503 3.57303C3.14018 3.93036 2.84387 4.4068 2.60682 4.88325C2.36977 5.59791 2.19198 6.37213 2.19198 7.14635C2.17815 7.45206 2.16755 7.7059 2.15942 7.95628L2.15304 8.17117C2.13949 8.67588 2.13497 9.2221 2.13347 10.1972L2.13285 10.8869C2.13282 10.971 2.13279 11.0576 2.13277 11.147V12.9143C2.13279 13.0041 2.13282 13.0911 2.13285 13.1756L2.13347 13.87C2.13594 15.4858 2.14654 15.9546 2.19198 16.9134C2.19198 17.6876 2.36977 18.4618 2.60682 19.1765C2.78461 19.6529 3.08092 20.1294 3.49576 20.5463C3.85134 20.9632 4.32544 21.2609 4.85881 21.4396C5.56997 21.6778 6.34039 21.8565 7.1108 21.8565C8.11037 21.9021 8.55261 21.9128 10.1467 21.9153H13.8015C15.4093 21.9128 15.8758 21.9021 16.8299 21.8565C17.6003 21.8565 18.3708 21.6778 19.0819 21.4396C20.0894 21.0823 20.9191 20.2485 21.3339 19.1765C21.571 18.4618 21.7488 17.6876 21.7488 16.9134C21.8041 15.7461 21.8594 15.357 21.8665 12.6956L21.8665 10.2493C21.8641 8.6335 21.8535 8.16474 21.808 7.2059C21.808 6.43168 21.6302 5.65746 21.3932 4.9428C21.0376 3.93036 20.2079 3.09659 19.1412 2.6797C18.43 2.44148 17.6596 2.26282 16.8892 2.26282C15.8896 2.21716 15.4474 2.2065 13.8533 2.20402ZM11.9704 5.83613C15.4076 5.83613 18.1337 8.57567 18.1337 12.0299C18.1337 15.4841 15.3484 18.2236 11.9704 18.2236C8.59238 18.2236 5.80702 15.4245 5.80702 12.0299C5.80702 8.63523 8.59238 5.83613 11.9704 5.83613ZM11.9111 8.03967C9.71838 8.03967 7.94049 9.88589 7.94049 12.0894C7.94049 14.293 9.77764 16.0796 11.9704 16.0796C14.2224 16.0796 16.0002 14.293 15.941 12.0299L15.936 11.8307C15.8293 9.71969 14.0374 8.03967 11.9111 8.03967ZM18.3708 4.16858C19.2005 4.16858 19.8523 4.82369 19.8523 5.59791C19.8523 6.43168 19.1412 7.02723 18.3708 7.02723C17.6004 7.02723 16.9485 6.37213 16.9485 5.59791C16.9485 4.82369 17.5411 4.16858 18.3708 4.16858Z" fill="white" fill-opacity="0.7"/>
</svg>
