<svg width="64" height="91" viewBox="0 0 64 91" fill="none" xmlns="http://www.w3.org/2000/svg">
<path d="M16 20.4124C20.7715 16.5098 24.431 11.9939 28.5714 7.48614C29.4539 6.52543 32.238 1.39551 33.7143 3.50379C38.0696 9.72358 42.726 15.5771 48 21" stroke="#3D3C3C" stroke-width="5" stroke-linecap="round"/>
<mask id="mask0_372_2725" style="mask-type:alpha" maskUnits="userSpaceOnUse" x="0" y="27" width="64" height="64">
<rect y="27" width="64" height="64" fill="#C4C4C4"/>
</mask>
<g mask="url(#mask0_372_2725)">
<path d="M46.2026 70.9343C54.4553 72.1187 60.0002 74.3205 60.0002 76.856C60.0002 80.6244 47.6185 83.6821 32.2921 83.6821C16.9657 83.6821 4.58398 80.6244 4.58398 76.856C4.58398 74.3366 10.1288 72.1348 18.3815 70.9343" stroke="#3D3C3C" stroke-width="5" stroke-linecap="round" stroke-linejoin="round"/>
<path d="M13.8108 52.3616C13.7462 53.1207 13.7139 53.8959 13.7139 54.6711C13.7139 67.0743 22.0473 77.125 32.2756 77.125C42.504 77.125 50.8536 67.0743 50.8536 54.6711C50.8536 53.8959 50.8213 53.1207 50.7567 52.3616C44.6728 53.5743 38.4788 54.148 32.2756 54.0735C26.0734 54.1385 19.8812 53.5558 13.8 52.3347L13.8108 52.3616Z" stroke="#3D3C3C" stroke-width="5" stroke-linecap="round" stroke-linejoin="round"/>
<path d="M51.6876 59C52.5917 59.0634 53.4691 59.3336 54.2524 59.7895C55.0356 60.2455 55.7038 60.8752 56.2053 61.6301C56.7069 62.3849 57.0285 63.2449 57.1453 64.1436C57.2622 65.0423 57.1712 65.9559 56.8794 66.814C56.5875 67.672 56.1026 68.4516 55.462 69.0927C54.8214 69.7338 54.0422 70.2194 53.1844 70.5119C52.3266 70.8044 51.4131 70.8962 50.5143 70.78C49.6155 70.6639 48.7553 70.343 48 69.8421" stroke="#3D3C3C" stroke-width="5" stroke-linecap="round" stroke-linejoin="round"/>
<path d="M31.898 33C31.898 33 37 35.8509 37 39.5164C37 43.1819 31.4728 45.4871 31.4728 48C28.9218 45.6256 30.1973 42.7054 31.4728 40.502C32.7483 38.2987 34.0238 35.8509 31.898 33Z" fill="#FEF9A1" stroke="#FEF9A1" stroke-width="2" stroke-linecap="round" stroke-linejoin="round"/>
</g>
</svg>
