<svg width="220" height="220" viewBox="0 0 220 220" fill="none" xmlns="http://www.w3.org/2000/svg">
<mask id="mask0_356_11387" style="mask-type:alpha" maskUnits="userSpaceOnUse" x="0" y="0" width="220" height="220">
<rect width="220" height="220" fill="#C4C4C4"/>
</mask>
<g mask="url(#mask0_356_11387)">
<path opacity="0.3" d="M12.204 35.432C10.116 35.432 8.256 34.916 6.624 33.884C4.992 32.852 3.708 31.364 2.772 29.42C1.86 27.452 1.404 25.112 1.404 22.4C1.404 19.688 1.86 17.36 2.772 15.416C3.708 13.448 4.992 11.948 6.624 10.916C8.256 9.884 10.116 9.368 12.204 9.368C14.292 9.368 16.152 9.884 17.784 10.916C19.416 11.948 20.688 13.448 21.6 15.416C22.536 17.36 23.004 19.688 23.004 22.4C23.004 25.112 22.536 27.452 21.6 29.42C20.688 31.364 19.416 32.852 17.784 33.884C16.152 34.916 14.292 35.432 12.204 35.432ZM12.204 30.5C13.74 30.5 14.94 29.84 15.804 28.52C16.692 27.2 17.136 25.16 17.136 22.4C17.136 19.64 16.692 17.6 15.804 16.28C14.94 14.96 13.74 14.3 12.204 14.3C10.692 14.3 9.492 14.96 8.604 16.28C7.74 17.6 7.308 19.64 7.308 22.4C7.308 25.16 7.74 27.2 8.604 28.52C9.492 29.84 10.692 30.5 12.204 30.5ZM48.9136 29.708H44.8096V35H39.1216V29.708H25.5496V25.784L37.4296 9.8H43.5496L32.5336 24.956H39.3016V20.24H44.8096V24.956H48.9136V29.708Z" fill="#3D3C3C"/>
<path d="M145.466 131.021C145.834 118.645 145.056 68.4535 144.677 63.2334C144.498 60.7812 144.15 58.108 142.709 56.4662C141.476 55.2888 139.845 54.6198 138.141 54.5928C132.531 53.9508 64.1225 53.6667 60.3652 54.5928" stroke="#3D3C3C" stroke-width="5" stroke-linecap="round" stroke-linejoin="round"/>
<path d="M55.5251 56.9398C53.8938 58.4237 53.5571 61.339 53.5571 63.8964C53.5571 94.9541 53.1782 127.264 53.5571 159.29C53.6834 168.562 53.2729 172.319 61.0926 172.73C68.0703 173.098 78.2474 173.098 88.9508 172.93" stroke="#3D3C3C" stroke-width="5" stroke-linecap="round" stroke-linejoin="round"/>
<path d="M53.7773 71.5582C63.7019 72.8843 73.7738 72.8212 83.7615 72.7475L144.298 72.3055" stroke="#3D3C3C" stroke-width="5" stroke-linecap="round" stroke-linejoin="round"/>
<path d="M68.1641 85.24C89.1428 85.4715 110.125 85.5312 131.111 85.4189" stroke="#3D3C3C" stroke-width="5" stroke-linecap="round" stroke-linejoin="round"/>
<path d="M69.165 100.101C86.1305 100.55 103.106 100.728 120.093 100.637" stroke="#3D3C3C" stroke-width="5" stroke-linecap="round" stroke-linejoin="round"/>
<path d="M69.165 148.513C74.4062 148.646 79.6474 148.755 84.8886 148.839" stroke="#3D3C3C" stroke-width="5" stroke-linecap="round" stroke-linejoin="round"/>
<path d="M78.5732 115.55L132.248 115.182" stroke="#3D3C3C" stroke-width="5" stroke-linecap="round" stroke-linejoin="round"/>
<path d="M78.5732 130.495L102.211 130.127" stroke="#3D3C3C" stroke-width="5" stroke-linecap="round" stroke-linejoin="round"/>
<path d="M69.2173 129.58C69.1497 129.847 69.1706 130.129 69.2768 130.383C69.3831 130.637 69.569 130.85 69.8066 130.99C70.0511 131.121 70.3376 131.151 70.6037 131.072C70.8698 130.993 71.094 130.812 71.2274 130.569C71.2844 130.446 71.3141 130.313 71.3146 130.178C71.3151 130.043 71.2864 129.909 71.2304 129.786C71.1745 129.663 71.0925 129.554 70.9903 129.465C70.888 129.377 70.7679 129.312 70.6381 129.274C70.3972 129.236 70.1505 129.262 69.9224 129.348C69.4909 129.474 68.9857 129.864 69.1857 130.274" stroke="#3D3C3C" stroke-width="5" stroke-linecap="round" stroke-linejoin="round"/>
<path d="M69.2178 115.761C69.1502 116.028 69.1711 116.31 69.2774 116.564C69.3836 116.819 69.5695 117.032 69.8072 117.171C70.0421 117.301 70.3179 117.337 70.5781 117.27C70.8384 117.204 71.0633 117.04 71.2069 116.813C71.2657 116.691 71.297 116.557 71.2984 116.422C71.2998 116.286 71.2714 116.152 71.2152 116.028C71.159 115.905 71.0763 115.795 70.973 115.707C70.8697 115.619 70.7484 115.555 70.6175 115.519C70.3767 115.481 70.1299 115.506 69.9019 115.593C69.4704 115.719 68.9652 116.108 69.1652 116.519" stroke="#3D3C3C" stroke-width="5" stroke-linecap="round" stroke-linejoin="round"/>
<path d="M147.449 131.953L91.2122 139.626C87.5321 140.129 84.9559 143.519 85.458 147.199L90.5263 184.343C91.0285 188.023 94.4188 190.599 98.0989 190.097L154.336 182.424C158.016 181.921 160.592 178.531 160.09 174.851L155.022 137.707C154.52 134.027 151.13 131.451 147.449 131.953Z" stroke="#E0D8C5" stroke-width="5" stroke-linecap="round" stroke-linejoin="round"/>
<path d="M92.9297 147.692C99.097 152.07 103.233 154.786 108.569 158.385C112.124 160.973 115.813 163.372 119.62 165.573C122.209 166.941 126.64 166.941 128.597 164.7C135.964 156.28 140.174 149.965 146.489 140.493" stroke="#E0D8C5" stroke-width="5" stroke-linecap="round" stroke-linejoin="round"/>
<path d="M98.2656 181.276C103.254 175.403 108.425 169.695 113.779 164.152" stroke="#E0D8C5" stroke-width="5" stroke-linecap="round" stroke-linejoin="round"/>
<path d="M132.67 161.016L152.245 173.909" stroke="#E0D8C5" stroke-width="5" stroke-linecap="round" stroke-linejoin="round"/>
</g>
</svg>
