<svg width="535" height="200" viewBox="0 0 535 200" fill="none" xmlns="http://www.w3.org/2000/svg">
<path opacity="0.5" d="M357 74.9998C381 63.9998 471.333 70.9998 499 74.9998" stroke="#FEF9A1" stroke-width="20" stroke-linecap="round"/>
<path opacity="0.5" d="M36 168.4C55.8161 173.6 104.156 184 138.988 184C182.528 184 256.21 158 322.357 158C375.275 158 434.835 164.933 458 168.4" stroke="#FEF9A1" stroke-width="20" stroke-linecap="round"/>
<path d="M63.65 49.2202C59.3661 53.7944 54.7969 58.093 49.97 62.0902C54.8488 68.0187 60.907 72.868 67.76 76.3302C65.3049 78.4746 63.1698 80.9598 61.42 83.7102C51.48 77.9002 43.78 68.8302 37.94 57.8402V77.5702C37.94 82.6802 36.94 84.9002 33.94 86.0402C30.94 87.1802 26.31 87.0402 19.94 86.1802C19.3859 82.9462 18.4179 79.797 17.06 76.8102C21.38 77.6002 25.92 78.0502 27.36 78.2002C28.8 78.3502 29.23 77.9802 29.23 76.6102V65.5202C21.02 69.9602 12.45 74.1602 5.47 77.2702C3.63667 74.3968 1.81333 71.5168 0 68.6302C6.91 66.2502 18.57 61.5102 29.23 56.5202V39.1702C20.21 38.1902 11.1867 36.9902 2.16 35.5702V27.3302C11.18 28.7502 20.2033 29.9502 29.23 30.9302V20.1602C32.16 20.4802 35.09 20.7702 38.01 21.0502V31.7702C42.79 32.2235 47.5667 32.6168 52.34 32.9502C49.34 30.8002 45.72 28.4302 42.62 26.5702C44.33 24.9202 46.03 23.2602 47.74 21.5702C52.3794 24.0407 56.8314 26.8482 61.06 29.9702L57.82 33.3302C60.43 33.5002 63.05 33.6402 65.67 33.7802V42.0602C56.43 41.5935 47.1867 40.9268 37.94 40.0602V40.9202C39.8402 46.0203 42.2949 50.8962 45.26 55.4602C49.2246 51.8132 52.8495 47.8134 56.09 43.5102C58.61 45.4302 61.13 47.3335 63.65 49.2202ZM15.98 58.4602C13.89 54.2302 8.85 47.8502 4.53 43.1502C6.72 41.9702 8.9 40.7802 11.09 39.5802C15.33 43.9302 20.66 50.0002 22.97 54.1602C20.6433 55.6068 18.3133 57.0402 15.98 58.4602Z" fill="#3D3C3C"/>
<path d="M93.0196 34.0697V91.0697L86.6896 90.9597V77.9597C82.0096 78.7897 77.3996 79.5797 73.2896 80.2697L71.8496 73.0897C72.9296 72.9897 74.1596 72.8197 75.4496 72.6497V33.6197L72.4496 33.4997V25.8697C80.1296 26.1897 87.7963 26.3897 95.4496 26.4697V34.1097L93.0196 34.0697ZM86.6896 33.9597L81.6896 33.8297V41.4597L86.6896 41.5897V33.9597ZM86.6896 48.5697C85.0096 48.5697 83.3296 48.4897 81.6896 48.4397V56.0797L86.6896 56.2097V48.5697ZM86.6896 71.1097V63.1897L81.6896 63.0597V71.8497L86.6896 71.1097ZM139.04 57.0497C136.913 63.6412 133.804 69.8746 129.82 75.5397C130.54 79.1197 131.47 81.1097 132.48 81.1597C133.49 81.2097 134.07 77.9497 134.43 72.4597C135.888 74.2229 137.612 75.7479 139.54 76.9797C137.81 87.8397 134.71 90.4597 132.12 90.5297C128.74 90.5297 126.22 87.5297 124.35 82.2197C121.246 85.4581 117.764 88.3119 113.98 90.7197C112.627 88.9405 111.039 87.3528 109.26 85.9997C110.974 84.9809 112.612 83.8378 114.16 82.5797C112.94 82.5797 111.71 82.5797 110.49 82.5797V80.8797C108.23 80.8797 105.98 80.8797 103.72 80.8797V86.1397C101.56 86.1397 99.3996 86.1397 97.2396 86.1397V54.7897C103.74 54.8497 110.243 54.8497 116.75 54.7897V80.2497C118.812 78.3666 120.715 76.3162 122.44 74.1197C121.161 66.8451 120.343 59.4972 119.99 52.1197C111.643 52.253 103.31 52.2697 94.9896 52.1697V44.9697H98.2996C97.9609 42.7264 97.4731 40.5082 96.8396 38.3297C98.7796 38.0397 100.73 37.7397 102.67 37.4297C103.427 39.9039 103.982 42.4355 104.33 44.9997H108.26C108.938 42.4908 109.443 39.938 109.77 37.3597C111.93 37.6697 114.09 37.9597 116.25 38.2497C115.53 40.6297 114.81 42.9397 114.25 44.9697L119.65 44.8997C119.37 38.3497 119.22 31.2997 119.08 23.8097L126.35 23.6797C126.35 31.0197 126.49 38.1497 126.78 44.7597C130.86 44.6664 134.94 44.553 139.02 44.4197V51.6197C135.06 51.7597 131.1 51.873 127.14 51.9597C127.43 56.7797 127.79 61.1597 128.22 65.0397C130.044 61.4825 131.515 57.7546 132.61 53.9097L139.04 57.0497ZM117.58 37.2497C110.5 37.3497 103.42 37.3497 96.3396 37.2497V30.7297C98.6396 30.7297 100.94 30.7297 103.25 30.7797C102.74 28.8997 102.1 26.9597 101.52 25.2997L108.52 24.0797C109.32 26.0797 110.18 28.6097 110.9 30.7597C113.13 30.7597 115.37 30.7597 117.6 30.6997L117.58 37.2497ZM103.68 60.5197V64.9797C105.94 64.9797 108.19 64.9797 110.45 64.9797V60.5097L103.68 60.5197ZM110.45 75.2697V70.6597H103.68V75.3297L110.45 75.2697ZM131.04 43.1097C129.908 38.6083 128.392 34.2122 126.51 29.9697L132.51 27.7997C134.591 31.8962 136.265 36.1867 137.51 40.6097L131.04 43.1097Z" fill="#3D3C3C"/>
<path d="M207.58 28.2398C205.558 35.5129 202.164 42.3322 197.58 48.3298C202.044 51.5948 207.112 53.9403 212.49 55.2298C210.388 57.5185 208.596 60.0738 207.16 62.8298L207.01 62.7698V86.3298L198.8 86.9198V84.6798C194.293 84.9998 189.783 85.3064 185.27 85.5998V88.0498L177.35 88.5498V65.1498L175.69 65.9698C174.908 64.5699 174.018 63.2326 173.03 61.9698V64.0598L165.11 64.4998V74.1298L173.6 71.7098C173.87 74.2098 174.13 76.7098 174.39 79.2198C164.26 82.3298 153.36 85.3998 145.26 87.5798C144.76 84.8598 144.26 82.1398 143.75 79.4298L146.99 78.7198V54.5298C149.323 54.4364 151.657 54.3364 153.99 54.2298V76.9798L157.59 76.0998V49.0198C154.257 49.1798 150.897 49.3298 147.51 49.4698V25.6298C155.79 25.3031 164.073 24.8931 172.36 24.3998V42.2598C177.61 36.9198 181.93 29.0098 184.36 21.0098C187.067 21.5098 189.78 21.9998 192.5 22.4798C191.92 24.1098 191.34 25.7998 190.7 27.4798L200.78 26.7798L202.29 26.3798L207.58 28.2398ZM154.94 41.7998C158.11 41.6498 161.28 41.4998 164.45 41.3298V32.1798C161.283 32.3531 158.113 32.5131 154.94 32.6598V41.7998ZM173.02 58.7998C178.103 56.2767 182.746 52.9507 186.77 48.9498C185.124 47.0612 183.617 45.056 182.26 42.9498C180.943 44.7689 179.527 46.5148 178.02 48.1798C176.251 46.4811 174.322 44.9574 172.26 43.6298V48.2398L165.06 48.6398V57.0598C167.7 56.9198 170.34 56.7798 172.98 56.6198L173.02 58.7998ZM201.17 60.3398C197.966 58.695 194.949 56.7102 192.17 54.4198C189.445 57.0694 186.478 59.4597 183.31 61.5598C189.277 61.2131 195.23 60.8231 201.17 60.3898V60.3398ZM198.79 77.3398V67.7598C194.283 68.0798 189.773 68.3864 185.26 68.6798V78.2598C189.773 77.9731 194.283 77.6631 198.79 77.3298V77.3398ZM187.13 34.9298C186.94 35.3098 186.75 35.6798 186.55 36.0498C188.101 38.5501 189.861 40.9152 191.81 43.1198C193.867 40.3575 195.63 37.3881 197.07 34.2598C193.75 34.4898 190.44 34.7198 187.13 34.9298Z" fill="#3D3C3C"/>
<path d="M282.46 68.5302V77.1702C260.64 78.8502 238.82 80.7102 217.01 82.3902V73.7502C225.596 73.0836 234.186 72.4169 242.78 71.7502V17.4902L252 16.7402V37.3302C260.466 36.6636 268.94 35.9969 277.42 35.3302V44.0402C268.946 44.7069 260.473 45.3736 252 46.0402V70.9602C262.173 70.1269 272.326 69.3169 282.46 68.5302Z" fill="#3D3C3C"/>
<path d="M353.52 20.1802C353.52 20.1802 353.52 23.0602 353.45 24.0802C352.52 56.3002 351.72 67.7802 348.77 71.7202C347.973 72.8681 346.948 73.8396 345.759 74.5742C344.57 75.3088 343.243 75.7908 341.86 75.9902C338.11 76.4833 334.332 76.7272 330.55 76.7202C330.255 73.812 329.297 71.0102 327.75 68.5302C332.35 68.6902 336.6 68.5302 338.47 68.3802C339.068 68.4019 339.663 68.2892 340.212 68.0503C340.76 67.8115 341.248 67.4526 341.64 67.0002C343.73 64.6002 344.64 53.7602 345.46 28.3002C340.32 28.5302 335.19 28.8002 330.05 29.0802C328.333 33.1981 326.209 37.1343 323.71 40.8302C321.951 39.4703 320.1 38.234 318.17 37.1302V70.7602C311.757 71.1602 305.347 71.5935 298.94 72.0602V77.3302L291.17 77.9002V24.3802L299.3 23.7902C300.288 19.9343 300.986 16.01 301.39 12.0502C304.51 12.2602 307.63 12.4702 310.75 12.7002C309.53 16.3802 308.23 20.0702 307.01 23.2502C310.73 22.9902 314.45 22.7468 318.17 22.5202V34.1802C322.35 27.8702 325.8 18.9502 327.89 10.4102C330.63 10.8802 333.36 11.3502 336.1 11.8402C335.31 14.9702 334.37 18.0402 333.29 21.1302C340.03 20.7702 346.773 20.4535 353.52 20.1802ZM310.39 30.5102C306.577 30.7635 302.76 31.0268 298.94 31.3002V42.9702C302.76 42.6902 306.577 42.4235 310.39 42.1702V30.5102ZM310.39 63.7002V49.5902C306.577 49.8435 302.76 50.1068 298.94 50.3802V64.5002C302.76 64.2202 306.577 63.9535 310.39 63.7002ZM334.26 58.3302C332.26 54.1202 327.78 47.3302 324.26 42.2602L330.96 38.0602C334.787 42.9941 338.32 48.1498 341.54 53.5002L334.26 58.3302Z" fill="#3D3C3C"/>
<path d="M423.719 23V75.78C420.909 75.67 418.109 75.58 415.299 75.51V71.62C400.899 71.25 386.499 71.27 372.089 71.62V75.62L364.029 75.83V22.92C369.603 22.7467 375.173 22.6233 380.739 22.55V9.08C383.539 9.08 386.349 9.02 389.159 9V22.47C392.039 22.47 394.919 22.47 397.799 22.47V9C400.606 9 403.416 9.02667 406.229 9.08V22.55C412.063 22.63 417.893 22.78 423.719 23ZM372.089 31.06V43.06L380.739 42.9V30.9C377.859 30.94 374.969 30.99 372.089 31.06ZM372.089 63.17C374.969 63.11 377.859 63.05 380.739 63.01V51.01C377.859 51.01 374.969 51.1 372.089 51.17V63.17ZM389.159 30.82V42.82H397.799V30.82C394.919 30.8 392.039 30.81 389.159 30.82ZM389.159 50.98V62.93H397.799V50.98H389.159ZM406.259 30.9V42.9C409.279 42.9467 412.303 43.01 415.329 43.09V31.09C412.283 31.0033 409.259 30.94 406.259 30.9ZM415.259 63.2V51.2C412.259 51.13 409.209 51.06 406.189 51.02V63.02C409.236 63.0667 412.259 63.1267 415.259 63.2Z" fill="#3D3C3C"/>
<path d="M459.431 48.9398C456.431 49.5298 453.241 50.1298 450.141 50.7598V68.1898C450.141 72.3698 449.351 74.3898 446.901 75.5098C444.451 76.6298 441.071 76.6198 436.031 76.3398C435.591 73.5804 434.791 70.8907 433.651 68.3398C436.461 68.6198 439.411 68.7998 440.351 68.8598C441.291 68.9198 441.721 68.5798 441.721 67.5698V52.4098C438.911 52.9498 436.251 53.4098 433.801 53.9698C433.101 51.1998 432.411 48.4298 431.711 45.6598C434.591 45.2198 438.051 44.6598 441.711 43.9898V31.1698C438.781 30.9798 435.851 30.8198 432.921 30.6698V22.7498C435.851 22.8998 438.781 23.0598 441.711 23.2498V9.77979C444.521 9.95979 447.321 10.1498 450.131 10.3698V23.8298C453.061 24.0498 455.991 24.2998 458.921 24.5598V32.4798C455.988 32.2198 453.058 31.9764 450.131 31.7498V42.4798C452.941 41.9698 455.681 41.4798 458.411 41.0098C458.761 43.6498 459.101 46.3298 459.431 48.9398ZM499.261 48.1098C495.781 47.5498 492.301 47.0198 488.821 46.5198V81.4498C485.994 81.0365 483.161 80.6531 480.321 80.2998V45.3798C476.991 44.9598 473.651 44.5598 470.321 44.1998C470.111 56.1998 468.451 68.3798 461.401 78.6498C459.364 76.3121 457.039 74.2423 454.481 72.4898C461.111 62.0398 461.901 50.1898 461.901 39.4898V17.9898C472.411 17.5998 484.081 16.7698 491.641 15.3898C493.341 18.0565 495.044 20.7231 496.751 23.3898C488.006 24.4515 479.21 25.0357 470.401 25.1398V36.1398C480.021 37.1865 489.644 38.4865 499.271 40.0398L499.261 48.1098Z" fill="#3D3C3C"/>
<path d="M101.341 127.17C98.5807 127.05 95.8207 126.91 93.0607 126.75V169.67C93.0607 174.85 91.8407 177.31 88.4507 178.52C84.8507 179.72 79.5307 179.52 72.1807 178.73C71.3752 175.47 70.1904 172.315 68.6507 169.33C73.7707 170.2 80.0307 170.67 81.7607 170.8C83.4907 170.93 84.0607 170.48 84.0607 168.97V126.14C68.0947 124.952 52.207 122.879 36.4707 119.93V111.33C57.891 115.306 79.571 117.725 101.341 118.57V127.17ZM51.4407 158.41V163.88C48.6607 163.46 45.8707 163.01 43.0907 162.53V129.19C53.2707 130.943 63.4474 132.31 73.6207 133.29V161.16C66.234 160.433 58.8407 159.517 51.4407 158.41ZM51.4407 138.68V150.2C56.0007 150.867 60.5607 151.477 65.1207 152.03V140.51C60.5474 139.97 55.9874 139.36 51.4407 138.68Z" fill="#3D3C3C"/>
<path d="M138.061 161.08C128.561 165.5 117.901 169.97 109.761 173.08L106.881 163.85C109.621 163 112.881 161.93 116.461 160.55L115.021 118.47C117.988 118.41 120.964 118.323 123.951 118.21L125.241 157.21L136.121 152.68C136.761 155.48 137.408 158.28 138.061 161.08ZM167.871 180.24C165.131 175.71 159.731 169.35 154.411 163.5C148.933 171.422 141.351 177.656 132.521 181.5C130.492 178.77 128.201 176.244 125.681 173.96C148.501 165.23 155.921 147.21 158.581 117.58C161.731 117.73 164.871 117.87 168.021 117.99C166.501 132.83 163.911 144.99 159.231 154.99C165.231 160.93 171.901 167.83 175.231 172.67C172.771 175.21 170.318 177.733 167.871 180.24ZM140.871 144.32C139.071 139.39 134.461 131.91 130.141 126.6C132.728 125.267 135.321 123.933 137.921 122.6C142.5 127.697 146.329 133.421 149.291 139.6C146.491 141.2 143.684 142.777 140.871 144.33V144.32Z" fill="#3D3C3C"/>
<path d="M209.12 158.47C202.941 166.433 195.614 173.436 187.38 179.25C185.148 177.236 182.764 175.397 180.25 173.75C187.74 169.17 196.02 161.63 200.05 155.62L209.12 158.47ZM238.36 112.78V147.2C221.36 148.79 204.47 150.32 187.52 151.52V117.1C204.47 115.9 221.41 114.33 238.36 112.78ZM196.36 142.78C207.26 141.94 218.15 140.98 229.05 139.98V121.86C218.15 122.86 207.26 123.81 196.36 124.65V142.78ZM225.59 153.26C232.15 157.78 240.93 164.26 245.18 168.93L237.11 174.73C233.37 170.11 224.87 163.13 218.18 158.32L225.59 153.26Z" fill="#3D3C3C"/>
<path d="M289.911 160.76C291.781 160.76 293.731 160.65 295.671 160.5C299.671 160.15 313.531 159.11 318.671 158.59C317.323 161.217 316.353 164.021 315.791 166.92C308.951 167.38 302.111 167.89 295.271 168.45C282.091 169.53 273.161 168.57 267.111 160.77C264.69 165.586 261.251 169.817 257.031 173.17C255.136 171.082 252.954 169.274 250.551 167.8C257.901 162.57 262.291 154.53 263.941 144.72L272.511 145.23C272.011 147.58 271.431 149.79 270.861 151.93C271.797 154.021 273.232 155.85 275.04 157.257C276.848 158.664 278.974 159.606 281.231 160V141.71C271.897 142.543 262.534 143.407 253.141 144.3V136.74C274.311 134.74 295.481 132.74 316.651 131.36V138.92C307.751 139.513 298.847 140.18 289.941 140.92V146.33C297.334 145.703 304.727 145.127 312.121 144.6V152.02C304.721 152.54 297.327 153.113 289.941 153.74L289.911 160.76ZM309.781 128.66C293.131 129.86 276.471 131.37 259.781 132.94V107.94C276.441 106.38 293.101 104.87 309.781 103.67V128.66ZM301.071 110.38C290.071 111.24 279.071 112.21 268.071 113.23V116.83C279.071 115.83 290.071 114.83 301.071 113.98V110.38ZM301.071 119.6C290.071 120.45 279.071 121.43 268.071 122.44V126.12C279.071 125.12 290.071 124.12 301.071 123.27V119.6Z" fill="#3D3C3C"/>
<path d="M346.43 102.01C344.388 107.441 341.993 112.732 339.26 117.85V166.67C336.55 166.79 333.83 166.92 331.12 167.07V130.92C329.68 132.8 328.24 134.6 326.87 136.27C325.618 133.242 324.077 130.342 322.27 127.61C328.6 120.74 334.79 110.2 338.32 99.75C341.04 100.49 343.743 101.243 346.43 102.01ZM389.06 158.26C389.06 162.01 388.34 163.93 385.67 165.02C383 166.11 379.41 166.13 374.29 166.02C373.842 163.565 373.044 161.187 371.92 158.96C375.16 159.17 378.76 159.13 379.69 159.14C380.62 159.15 381.14 158.87 381.13 158.01V155.63L376.96 157.03C376.682 155.907 376.349 154.799 375.96 153.71C368.4 154.82 360.7 156.02 354.72 156.96L353.13 149.88C355.87 149.58 359.25 149.15 362.86 148.74V140.96C359.3 141.007 355.746 141.083 352.2 141.19V166.25C349.533 166.33 346.866 166.42 344.2 166.52V141.48L342.4 141.55V134.49L344.2 134.42V131.69C346.866 131.577 349.533 131.487 352.2 131.42V134.15C355.746 134.05 359.3 133.973 362.86 133.92V129.67C357.773 129.75 352.683 129.877 347.59 130.05V102.26C360.5 101.81 373.42 101.67 386.33 101.96V129.75C380.996 129.63 375.663 129.583 370.33 129.61V133.85C376.57 133.85 382.813 133.923 389.06 134.07V158.26ZM355.5 112.97C357.946 112.91 360.396 112.86 362.85 112.82V108.33C360.396 108.33 357.946 108.377 355.5 108.47V112.97ZM362.85 123.27V118.73C360.396 118.73 357.946 118.777 355.5 118.87V123.41C357.953 123.357 360.403 123.31 362.85 123.27ZM378.04 108.27C375.466 108.27 372.896 108.27 370.33 108.27V112.81C372.896 112.81 375.466 112.81 378.04 112.81V108.27ZM378.04 118.71C375.466 118.71 372.896 118.71 370.33 118.71V123.25C372.9 123.25 375.47 123.25 378.04 123.25V118.71ZM376.81 142.46C378.33 145.86 380.05 150.12 381.13 153.31V140.96C377.53 140.96 373.93 140.9 370.33 140.96V147.96L373.79 147.6C373.29 146.23 372.79 144.94 372.28 143.86L376.81 142.46Z" fill="#3D3C3C"/>
<path d="M456.729 129.07V164.5C456.729 168.25 455.939 169.98 453.569 170.73C451.199 171.48 447.449 171.11 442.569 170.43C442.025 167.91 441.203 165.459 440.119 163.12C443.119 163.65 446.389 164.12 447.249 164.19C448.109 164.26 448.619 164.11 448.619 163.1V129.76C443.286 128.947 437.952 128.237 432.619 127.63V158.95C434.473 157.449 436.12 155.711 437.519 153.78C436.079 152.78 434.639 151.7 433.269 150.89L436.219 147.21C437.449 147.94 438.739 148.82 440.039 149.72C440.69 148.485 441.268 147.213 441.769 145.91L446.879 147.79C446.161 149.588 445.343 151.344 444.429 153.05C445.939 154.28 447.309 155.42 448.319 156.43L445.319 160.43C444.212 159.28 443.033 158.201 441.789 157.2C440.287 159.283 438.545 161.183 436.599 162.86C435.339 161.637 434.003 160.494 432.599 159.44V168.51C429.909 168.2 427.229 167.92 424.539 167.66V126.76C419.426 126.273 414.312 125.863 409.199 125.53V157.43C411.001 155.787 412.575 153.91 413.879 151.85C412.509 150.74 411.149 149.78 409.879 148.9L412.829 145.22C413.979 145.95 415.209 146.76 416.359 147.64C417.068 146.248 417.67 144.804 418.159 143.32C419.859 143.87 421.569 144.43 423.269 145C422.544 147.057 421.679 149.062 420.679 151C422.119 152.2 423.419 153.41 424.349 154.36L421.259 158.36C420.389 157.42 419.259 156.36 418.089 155.28C416.686 157.4 415.042 159.349 413.189 161.09C411.929 159.951 410.592 158.898 409.189 157.94V167.02C406.522 166.84 403.882 166.69 401.269 166.57V124.52L401.129 124.59C399.156 122.503 397.037 120.558 394.789 118.77C399.766 117.146 404.437 114.702 408.609 111.54C404.769 111.3 400.929 111.1 397.089 110.94V103.23C418.421 104.036 439.67 106.339 460.679 110.12V117.83C457.409 117.23 454.149 116.67 450.879 116.15C455.015 118.878 458.961 121.885 462.689 125.15C460.716 126.457 458.729 127.763 456.729 129.07ZM420.879 141.07C420.079 140.2 418.999 139.18 417.879 138.14C416.627 139.982 415.179 141.682 413.559 143.21C412.25 142.03 410.856 140.947 409.389 139.97C411.051 138.489 412.525 136.809 413.779 134.97C412.549 134.09 411.189 133.2 409.959 132.48L412.909 128.86C413.989 129.52 415.149 130.18 416.299 130.99C416.989 129.737 417.59 128.437 418.099 127.1L422.989 128.69C422.255 130.508 421.414 132.282 420.469 134C421.839 135.13 423.069 136.18 423.999 137.06L420.879 141.07ZM424.549 119.88V112.82C421.449 112.52 418.359 112.25 415.259 112.02L418.139 113.25C416.105 115.326 413.86 117.182 411.439 118.79C415.812 119.083 420.182 119.443 424.549 119.87V119.88ZM448.669 122.88C445.457 120.483 442.119 118.259 438.669 116.22L441.049 114.73C438.242 114.35 435.432 114.017 432.619 113.73V120.79C437.972 121.357 443.322 122.047 448.669 122.86V122.88ZM444.569 144.02C443.551 142.852 442.469 141.74 441.329 140.69C440.057 142.467 438.609 144.112 437.009 145.6C436.069 144.77 434.009 143.07 432.759 142.21C434.488 140.785 436.012 139.13 437.289 137.29C435.954 136.216 434.562 135.214 433.119 134.29L436.069 130.97C437.334 131.733 438.559 132.561 439.739 133.45C440.381 132.238 440.958 130.993 441.469 129.72C443.129 130.33 444.779 130.95 446.469 131.58C445.767 133.371 444.925 135.103 443.949 136.76C445.278 137.836 446.528 139.005 447.689 140.26L444.569 144.02Z" fill="#3D3C3C"/>
</svg>
