<svg width="385" height="145" viewBox="0 0 385 145" fill="none" xmlns="http://www.w3.org/2000/svg">
<path opacity="0.5" d="M256.906 54.3749C274.177 46.3998 339.184 51.4748 359.093 54.3748" stroke="#FEF9A1" stroke-width="16" stroke-linecap="round"/>
<path opacity="0.5" d="M25.9062 122.09C40.1665 125.86 74.9533 133.4 100.019 133.4C131.351 133.4 184.375 114.55 231.976 114.55C270.057 114.55 312.918 119.577 329.588 122.09" stroke="#FEF9A1" stroke-width="16" stroke-linecap="round"/>
<path d="M45.8042 35.6846C42.7214 39.0009 39.4333 42.1174 35.9597 45.0153C39.4706 49.3135 43.8303 52.8293 48.7619 55.3393C46.9951 56.894 45.4587 58.6959 44.1994 60.6898C37.0464 56.4776 31.5052 49.9018 27.3026 41.9341V56.2383C27.3026 59.9431 26.583 61.5526 24.4241 62.3791C22.2652 63.2056 18.9334 63.1041 14.3493 62.4806C13.9506 60.136 13.254 57.8528 12.2768 55.6873C15.3856 56.2601 18.6527 56.5863 19.689 56.6951C20.7252 56.8038 21.0347 56.5356 21.0347 55.5423V47.5021C15.1265 50.7211 8.95935 53.7661 3.93635 56.0208C2.61704 53.9377 1.30492 51.8497 0 49.7568C4.97262 48.0313 13.3635 44.5948 21.0347 40.9771V28.3983C14.5436 27.6878 8.05022 26.8178 1.55439 25.7883V19.8143C8.04542 20.8438 14.5388 21.7138 21.0347 22.4243V14.6161C23.1432 14.8481 25.2517 15.0583 27.353 15.2613V23.0333C30.7928 23.362 34.2302 23.6472 37.6652 23.8888C35.5064 22.3301 32.9013 20.6118 30.6705 19.2633C31.901 18.0671 33.1244 16.8636 34.355 15.6383C37.6936 17.4295 40.8973 19.4649 43.9404 21.7283L41.6088 24.1643C43.487 24.2876 45.3724 24.3891 47.2579 24.4906V30.4936C40.6085 30.1553 33.9568 29.6719 27.3026 29.0436V29.6671C28.67 33.3647 30.4365 36.8997 32.5703 40.2086C35.4233 37.5645 38.0319 34.6647 40.3638 31.5448C42.1773 32.9368 43.9907 34.3168 45.8042 35.6846ZM11.4996 42.3836C9.99561 39.3168 6.36869 34.6913 3.25991 31.2838C4.83589 30.4283 6.40467 29.5656 7.98066 28.6956C11.0319 31.8493 14.8675 36.2501 16.5298 39.2661C14.8555 40.3149 13.1788 41.3541 11.4996 42.3836Z" fill="#3D3C3C"/>
<path d="M66.9396 24.7006V66.0256L62.3843 65.9458V56.5208C59.0165 57.1226 55.699 57.6954 52.7413 58.1956L51.7051 52.9901C52.4823 52.9176 53.3674 52.7943 54.2957 52.6711V24.3743L52.1369 24.2873V18.7556C57.6636 18.9876 63.1807 19.1326 68.6883 19.1906V24.7296L66.9396 24.7006ZM62.3843 24.6208L58.7862 24.5266V30.0583L62.3843 30.1526V24.6208ZM62.3843 35.2131C61.1754 35.2131 59.9664 35.1551 58.7862 35.1188V40.6578L62.3843 40.7521V35.2131ZM62.3843 51.5546V45.8126L58.7862 45.7184V52.0911L62.3843 51.5546ZM100.057 41.3611C98.5262 46.14 96.2894 50.6591 93.4218 54.7663C93.9399 57.3618 94.6092 58.8046 95.336 58.8409C96.0628 58.8771 96.4802 56.5136 96.7393 52.5333C97.7885 53.8117 99.0291 54.9173 100.417 55.8103C99.1716 63.6838 96.9408 65.5833 95.0769 65.6341C92.6446 65.6341 90.8311 63.4591 89.4854 59.6093C87.2519 61.9572 84.7464 64.0262 82.0229 65.7719C81.0492 64.4819 79.9066 63.3308 78.6263 62.3498C79.8602 61.6112 81.0387 60.7825 82.1525 59.8703C81.2745 59.8703 80.3894 59.8703 79.5114 59.8703V58.6379C77.8851 58.6379 76.2659 58.6379 74.6396 58.6379V62.4513C73.0852 62.4513 71.5308 62.4513 69.9764 62.4513V39.7226C74.654 39.7661 79.3339 39.7661 84.0163 39.7226V58.1811C85.5004 56.8158 86.8699 55.3294 88.111 53.7369C87.1911 48.4628 86.6022 43.1356 86.3479 37.7868C80.3414 37.8835 74.3445 37.8956 68.3572 37.8231V32.6031H70.7392C70.4954 30.9767 70.1444 29.3685 69.6885 27.7891C71.0846 27.5788 72.4879 27.3613 73.884 27.1366C74.4291 28.9304 74.8286 30.7658 75.0785 32.6248H77.9067C78.3949 30.8059 78.7579 28.9552 78.9933 27.0858C80.5477 27.3106 82.1021 27.5208 83.6565 27.7311C83.1384 29.4566 82.6202 31.1313 82.2172 32.6031L86.1032 32.5523C85.9017 27.8036 85.7938 22.6923 85.693 17.2621L90.9247 17.1678C90.9247 22.4893 91.0255 27.6586 91.2341 32.4508C94.1702 32.3832 97.1063 32.301 100.042 32.2043V37.4243C97.1926 37.5258 94.3429 37.608 91.4932 37.6708C91.7019 41.1653 91.961 44.3408 92.2704 47.1538C93.5834 44.5749 94.6415 41.8721 95.4296 39.0846L100.057 41.3611ZM84.6136 27.0061C79.5186 27.0786 74.4237 27.0786 69.3287 27.0061V22.2791C70.9839 22.2791 72.639 22.2791 74.3013 22.3153C73.9343 20.9523 73.4738 19.5458 73.0564 18.3423L78.0938 17.4578C78.6695 18.9078 79.2883 20.7421 79.8065 22.3008C81.4112 22.3008 83.0232 22.3008 84.628 22.2573L84.6136 27.0061ZM74.6108 43.8769V47.1103C76.2371 47.1103 77.8563 47.1103 79.4826 47.1103V43.8696L74.6108 43.8769ZM79.4826 54.5706V51.2284H74.6108V54.6141L79.4826 54.5706ZM94.2997 31.2546C93.4852 27.9911 92.3946 24.8039 91.0398 21.7281L95.3576 20.1548C96.8551 23.1248 98.0603 26.2354 98.9557 29.4421L94.2997 31.2546Z" fill="#3D3C3C"/>
<path d="M149.38 20.4738C147.925 25.7469 145.483 30.6908 142.184 35.0391C145.396 37.4062 149.043 39.1067 152.913 40.0416C151.401 41.7009 150.111 43.5535 149.078 45.5516L148.97 45.5081V62.5891L143.062 63.0168V61.3928C139.819 61.6248 136.573 61.8471 133.325 62.0598V63.8361L127.626 64.1986V47.2336L126.431 47.8281C125.868 46.8132 125.228 45.8436 124.517 44.9281V46.4433L118.818 46.7623V53.7441L124.927 51.9896C125.121 53.8021 125.309 55.6146 125.496 57.4343C118.206 59.6891 110.362 61.9148 104.533 63.4953C104.173 61.5233 103.813 59.5513 103.446 57.5866L105.778 57.0718V39.5341C107.457 39.4664 109.136 39.3939 110.815 39.3166V55.8103L113.406 55.1723V35.5393C111.007 35.6553 108.589 35.7641 106.152 35.8656V18.5816C112.111 18.3447 118.071 18.0475 124.035 17.6898V30.6383C127.813 26.7668 130.922 21.0321 132.67 15.2321C134.618 15.5946 136.571 15.9498 138.528 16.2978C138.111 17.4796 137.693 18.7048 137.233 19.9228L144.487 19.4153L145.573 19.1253L149.38 20.4738ZM111.499 30.3048C113.78 30.1961 116.061 30.0873 118.343 29.9641V23.3303C116.064 23.456 113.783 23.572 111.499 23.6783V30.3048ZM124.51 42.6298C128.168 40.8006 131.509 38.3892 134.405 35.4886C133.22 34.1194 132.135 32.6656 131.159 31.1386C130.211 32.4574 129.193 33.7232 128.108 34.9303C126.835 33.6988 125.447 32.5941 123.963 31.6316V34.9738L118.782 35.2638V41.3683C120.681 41.2668 122.581 41.1653 124.481 41.0493L124.51 42.6298ZM144.767 43.7463C142.462 42.5538 140.29 41.1149 138.291 39.4543C136.329 41.3753 134.195 43.1083 131.915 44.6308C136.208 44.3795 140.493 44.0967 144.767 43.7826V43.7463ZM143.055 56.0713V49.1258C139.811 49.3578 136.566 49.5801 133.318 49.7928V56.7383C136.566 56.5305 139.811 56.3057 143.055 56.0641V56.0713ZM134.664 25.3241C134.527 25.5996 134.39 25.8678 134.246 26.1361C135.363 27.9488 136.629 29.6635 138.032 31.2618C139.512 29.2592 140.78 27.1064 141.817 24.8383C139.428 25.0051 137.046 25.1718 134.664 25.3241Z" fill="#3D3C3C"/>
<path d="M203.266 49.6845V55.9485C187.563 57.1665 171.861 58.515 156.166 59.733V53.469C162.345 52.9856 168.527 52.5023 174.711 52.019V12.6805L181.346 12.1367V27.0645C187.439 26.5811 193.536 26.0978 199.639 25.6145V31.9292C193.541 32.4126 187.443 32.8959 181.346 33.3792V51.4462C188.667 50.8421 195.973 50.2548 203.266 49.6845Z" fill="#3D3C3C"/>
<path d="M254.402 14.6306C254.402 14.6306 254.402 16.7186 254.352 17.4581C253.682 40.8176 253.107 49.1406 250.984 51.9971C250.41 52.8294 249.673 53.5337 248.817 54.0663C247.962 54.5989 247.006 54.9483 246.011 55.0929C243.313 55.4504 240.594 55.6272 237.872 55.6221C237.66 53.5137 236.97 51.4824 235.857 49.6844C239.167 49.8004 242.226 49.6844 243.572 49.5756C244.002 49.5914 244.43 49.5096 244.825 49.3365C245.22 49.1633 245.571 48.9032 245.853 48.5751C247.357 46.8351 248.012 38.9761 248.602 20.5176C244.903 20.6844 241.211 20.8801 237.512 21.0831C236.277 24.0687 234.748 26.9224 232.95 29.6019C231.684 28.616 230.352 27.7196 228.963 26.9194V51.3011C224.348 51.5911 219.735 51.9053 215.125 52.2436V56.0644L209.533 56.4776V17.6756L215.384 17.2479C216.095 14.4523 216.597 11.6073 216.888 8.73636C219.133 8.88861 221.378 9.04086 223.623 9.20761C222.746 11.8756 221.81 14.5509 220.932 16.8564C223.609 16.6679 226.286 16.4914 228.963 16.3271V24.7806C231.971 20.2059 234.454 13.7389 235.958 7.54736C237.93 7.88811 239.894 8.22886 241.866 8.58411C241.297 10.8534 240.621 13.0791 239.844 15.3194C244.694 15.0584 249.547 14.8288 254.402 14.6306ZM223.364 22.1199C220.62 22.3035 217.874 22.4944 215.125 22.6926V31.1534C217.874 30.9504 220.62 30.757 223.364 30.5734V22.1199ZM223.364 46.1826V35.9529C220.62 36.1365 217.874 36.3274 215.125 36.5256V46.7626C217.874 46.5596 220.62 46.3663 223.364 46.1826ZM240.542 42.2894C239.103 39.2371 235.879 34.3144 233.346 30.6386L238.167 27.5936C240.921 31.1708 243.464 34.9086 245.781 38.7876L240.542 42.2894Z" fill="#3D3C3C"/>
<path d="M304.919 16.675V54.9405C302.897 54.8608 300.882 54.7955 298.86 54.7448V51.9245C288.497 51.6563 278.135 51.6708 267.765 51.9245V54.8245L261.965 54.9768V16.617C265.976 16.4914 269.984 16.4019 273.99 16.3488V6.58302C276.005 6.58302 278.027 6.53952 280.049 6.52502V16.2908C282.122 16.2908 284.194 16.2908 286.267 16.2908V6.52502C288.286 6.52502 290.309 6.54436 292.333 6.58302V16.3488C296.531 16.4068 300.726 16.5155 304.919 16.675ZM267.765 22.5185V31.2185L273.99 31.1025V22.4025C271.917 22.4315 269.838 22.4678 267.765 22.5185ZM267.765 45.7983C269.838 45.7548 271.917 45.7113 273.99 45.6823V36.9823C271.917 36.9823 269.838 37.0475 267.765 37.0983V45.7983ZM280.049 22.3445V31.0445H286.267V22.3445C284.194 22.33 282.122 22.3373 280.049 22.3445ZM280.049 36.9605V45.6243H286.267V36.9605H280.049ZM292.355 22.4025V31.1025C294.528 31.1364 296.704 31.1823 298.882 31.2403V22.5403C296.689 22.4774 294.514 22.4315 292.355 22.4025ZM298.831 45.82V37.12C296.672 37.0693 294.478 37.0185 292.304 36.9895V45.6895C294.497 45.7234 296.672 45.7669 298.831 45.82Z" fill="#3D3C3C"/>
<path d="M330.619 35.4813C328.46 35.9091 326.164 36.3441 323.934 36.8008V49.4376C323.934 52.4681 323.365 53.9326 321.602 54.7446C319.839 55.5566 317.407 55.5493 313.78 55.3463C313.463 53.3458 312.888 51.3958 312.067 49.5463C314.089 49.7493 316.212 49.8798 316.888 49.9233C317.565 49.9668 317.874 49.7203 317.874 48.9881V37.9971C315.852 38.3886 313.938 38.7221 312.175 39.1281C311.671 37.1198 311.175 35.1116 310.671 33.1033C312.743 32.7843 315.233 32.3783 317.867 31.8926V22.5981C315.759 22.4603 313.65 22.3443 311.542 22.2356V16.4936C313.65 16.6023 315.759 16.7183 317.867 16.8561V7.09033C319.889 7.22083 321.904 7.35858 323.926 7.51808V17.2766C326.035 17.4361 328.143 17.6173 330.252 17.8058V23.5478C328.141 23.3593 326.033 23.1829 323.926 23.0186V30.7978C325.949 30.4281 327.92 30.0728 329.885 29.7321C330.137 31.6461 330.381 33.5891 330.619 35.4813ZM359.282 34.8796C356.777 34.4736 354.273 34.0893 351.769 33.7268V59.0511C349.735 58.7514 347.696 58.4735 345.652 58.2173V32.9003C343.256 32.5958 340.852 32.3058 338.456 32.0448C338.305 40.7448 337.11 49.5753 332.037 57.0211C330.571 55.3263 328.897 53.8257 327.057 52.5551C331.828 44.9788 332.396 36.3876 332.396 28.6301V13.0426C339.96 12.7598 348.358 12.1581 353.798 11.1576C355.021 13.0909 356.247 15.0242 357.475 16.9576C351.182 17.7273 344.852 18.1509 338.513 18.2263V26.2013C345.436 26.9602 352.361 27.9027 359.289 29.0288L359.282 34.8796Z" fill="#3D3C3C"/>
<path d="M72.9273 92.1984C70.9411 92.1114 68.9549 92.0099 66.9688 91.8939V123.011C66.9688 126.766 66.0908 128.55 63.6513 129.427C61.0606 130.297 57.2322 130.152 51.943 129.579C51.3633 127.216 50.5107 124.928 49.4027 122.764C53.0872 123.395 57.592 123.736 58.837 123.83C60.0819 123.924 60.4921 123.598 60.4921 122.503V91.4516C49.0026 90.59 37.5694 89.087 26.2451 86.9494V80.7144C41.6597 83.5967 57.2612 85.351 72.9273 85.9634V92.1984ZM37.0179 114.847V118.813C35.0174 118.509 33.0096 118.182 31.009 117.834V93.6629C38.3348 94.934 45.6582 95.9249 52.9792 96.6354V116.841C47.6636 116.314 42.3432 115.65 37.0179 114.847ZM37.0179 100.543V108.895C40.2994 109.378 43.5809 109.821 46.8624 110.222V101.87C43.5713 101.478 40.2898 101.036 37.0179 100.543Z" fill="#3D3C3C"/>
<path d="M99.352 116.783C92.5156 119.988 84.8443 123.228 78.9866 125.483L76.9141 118.791C78.8858 118.175 81.2318 117.399 83.8081 116.399L82.7718 85.8909C84.9067 85.8474 87.0488 85.7845 89.1981 85.7024L90.1264 113.977L97.9559 110.693C98.4165 112.723 98.8819 114.753 99.352 116.783ZM120.804 130.674C118.832 127.39 114.946 122.779 111.118 118.538C107.176 124.281 101.72 128.8 95.3653 131.588C93.9054 129.608 92.2568 127.777 90.443 126.121C106.865 119.792 112.205 106.727 114.119 85.2456C116.386 85.3544 118.645 85.4559 120.912 85.5429C119.818 96.3019 117.954 105.118 114.586 112.368C118.904 116.674 123.704 121.677 126.101 125.186C124.33 127.027 122.565 128.857 120.804 130.674ZM101.374 104.632C100.079 101.058 96.7614 95.6349 93.6526 91.7851C95.514 90.8184 97.3802 89.8518 99.2513 88.8851C102.547 92.5803 105.302 96.7305 107.433 101.21C105.418 102.37 103.399 103.513 101.374 104.639V104.632Z" fill="#3D3C3C"/>
<path d="M150.488 114.891C146.042 120.664 140.769 125.741 134.844 129.956C133.238 128.496 131.522 127.163 129.713 125.969C135.103 122.648 141.061 117.182 143.961 112.824L150.488 114.891ZM171.53 81.7654V106.72C159.297 107.873 147.142 108.982 134.945 109.852V84.8974C147.142 84.0274 159.333 82.8891 171.53 81.7654ZM141.306 103.515C149.15 102.906 156.987 102.21 164.831 101.485V88.3484C156.987 89.0734 149.15 89.7621 141.306 90.3711V103.515ZM162.341 111.113C167.061 114.39 173.38 119.088 176.438 122.474L170.631 126.679C167.939 123.33 161.823 118.269 157.008 114.782L162.341 111.113Z" fill="#3D3C3C"/>
<path d="M208.627 116.551C209.973 116.551 211.376 116.471 212.772 116.363C215.651 116.109 225.625 115.355 229.324 114.978C228.354 116.882 227.656 118.916 227.251 121.017C222.329 121.351 217.407 121.72 212.484 122.126C203 122.909 196.573 122.213 192.22 116.558C190.478 120.05 188.003 123.117 184.966 125.548C183.602 124.035 182.032 122.724 180.303 121.655C185.592 117.863 188.751 112.034 189.939 104.922L196.106 105.292C195.746 106.996 195.329 108.598 194.918 110.149C195.592 111.665 196.625 112.991 197.926 114.011C199.227 115.032 200.757 115.714 202.381 116V102.74C195.664 103.344 188.926 103.97 182.167 104.618V99.1365C197.401 97.6865 212.636 96.2365 227.87 95.236V100.717C221.465 101.147 215.058 101.631 208.649 102.167V106.089C213.969 105.635 219.29 105.217 224.61 104.835V110.215C219.285 110.592 213.964 111.007 208.649 111.462L208.627 116.551ZM222.926 93.2785C210.944 94.1485 198.955 95.2433 186.945 96.3815V78.2565C198.934 77.1255 210.923 76.0308 222.926 75.1608V93.2785ZM216.658 80.0255C208.742 80.649 200.826 81.3523 192.911 82.0918V84.7018C200.826 83.9768 208.742 83.2518 216.658 82.6355V80.0255ZM216.658 86.71C208.742 87.3263 200.826 88.0368 192.911 88.769V91.437C200.826 90.712 208.742 89.987 216.658 89.3708V86.71Z" fill="#3D3C3C"/>
<path d="M249.3 73.9572C247.831 77.8946 246.107 81.7308 244.141 85.4412V120.836C242.19 120.923 240.233 121.017 238.283 121.126V94.917C237.246 96.28 236.21 97.585 235.224 98.7957C234.324 96.6006 233.215 94.4981 231.914 92.5172C236.469 87.5365 240.924 79.895 243.464 72.3187C245.421 72.8552 247.367 73.4014 249.3 73.9572ZM279.978 114.738C279.978 117.457 279.46 118.849 277.538 119.639C275.617 120.43 273.034 120.444 269.349 120.364C269.027 118.585 268.453 116.861 267.644 115.246C269.975 115.398 272.566 115.369 273.235 115.376C273.904 115.384 274.278 115.181 274.271 114.557V112.832L271.27 113.847C271.071 113.033 270.831 112.229 270.551 111.44C265.11 112.244 259.569 113.114 255.266 113.796L254.122 108.663C256.093 108.445 258.526 108.134 261.124 107.836V102.196C258.562 102.23 256.005 102.285 253.452 102.363V120.531C251.533 120.589 249.614 120.654 247.695 120.727V102.573L246.4 102.624V97.5052L247.695 97.4545V95.4752C249.614 95.3931 251.533 95.3278 253.452 95.2795V97.2587C256.005 97.1862 258.562 97.1306 261.124 97.092V94.0107C257.463 94.0687 253.8 94.1606 250.135 94.2862V74.1385C259.425 73.8122 268.723 73.7107 278.013 73.921V94.0687C274.175 93.9817 270.337 93.9479 266.499 93.9672V97.0412C270.99 97.0412 275.483 97.0944 279.978 97.2007V114.738ZM255.827 81.9032C257.588 81.8597 259.351 81.8235 261.116 81.7945V78.5392C259.351 78.5392 257.588 78.5731 255.827 78.6407V81.9032ZM261.116 89.3707V86.0792C259.351 86.0792 257.588 86.1131 255.827 86.1807V89.4722C257.593 89.4336 259.356 89.3997 261.116 89.3707ZM272.048 78.4957C270.196 78.4957 268.346 78.4957 266.499 78.4957V81.7872C268.346 81.7872 270.196 81.7872 272.048 81.7872V78.4957ZM272.048 86.0647C270.196 86.0647 268.346 86.0647 266.499 86.0647V89.3562C268.349 89.3562 270.198 89.3562 272.048 89.3562V86.0647ZM271.162 103.283C272.256 105.748 273.494 108.837 274.271 111.15V102.196C271.681 102.196 269.09 102.152 266.499 102.196V107.271L268.989 107.01C268.629 106.017 268.27 105.081 267.903 104.298L271.162 103.283Z" fill="#3D3C3C"/>
<path d="M328.674 93.5758V119.263C328.674 121.981 328.106 123.236 326.4 123.779C324.695 124.323 321.996 124.055 318.484 123.562C318.093 121.735 317.501 119.958 316.721 118.262C318.88 118.646 321.233 118.987 321.852 119.038C322.471 119.089 322.838 118.98 322.838 118.248V94.076C319 93.4864 315.162 92.9716 311.324 92.5318V115.239C312.658 114.151 313.843 112.891 314.85 111.491C313.814 110.766 312.778 109.983 311.792 109.395L313.915 106.727C314.8 107.257 315.728 107.895 316.664 108.547C317.132 107.652 317.548 106.729 317.909 105.785L321.586 107.148C321.069 108.451 320.481 109.724 319.823 110.961C320.909 111.853 321.895 112.68 322.622 113.412L320.463 116.312C319.667 115.478 318.818 114.696 317.923 113.97C316.842 115.481 315.588 116.858 314.188 118.074C313.282 117.187 312.32 116.359 311.31 115.594V122.17C309.374 121.945 307.445 121.742 305.509 121.554V91.901C301.83 91.5482 298.15 91.251 294.47 91.0093V114.137C295.767 112.945 296.9 111.585 297.838 110.091C296.852 109.287 295.874 108.591 294.96 107.953L297.083 105.285C297.91 105.814 298.795 106.401 299.623 107.039C300.133 106.03 300.566 104.983 300.918 103.907C302.142 104.306 303.372 104.712 304.596 105.125C304.074 106.616 303.451 108.07 302.732 109.475C303.768 110.345 304.703 111.222 305.373 111.911L303.149 114.811C302.523 114.13 301.71 113.361 300.868 112.578C299.858 114.115 298.675 115.528 297.342 116.79C296.435 115.964 295.473 115.201 294.463 114.507V121.09C292.544 120.959 290.644 120.85 288.764 120.763V90.277L288.663 90.3278C287.243 88.8146 285.718 87.4046 284.101 86.1083C287.682 84.9306 291.043 83.1591 294.046 80.8665C291.282 80.6925 288.519 80.5475 285.756 80.4315V74.8418C301.107 75.4264 316.398 77.0955 331.517 79.837V85.4268C329.164 84.9918 326.818 84.5858 324.464 84.2088C327.441 86.1869 330.281 88.3669 332.963 90.7338C331.543 91.6811 330.113 92.6285 328.674 93.5758ZM302.876 102.276C302.3 101.645 301.523 100.906 300.717 100.152C299.816 101.487 298.774 102.719 297.608 103.827C296.666 102.972 295.663 102.187 294.607 101.478C295.803 100.404 296.864 99.1869 297.766 97.8533C296.881 97.2153 295.902 96.57 295.017 96.048L297.14 93.4235C297.917 93.902 298.752 94.3805 299.58 94.9678C300.076 94.0591 300.509 93.1168 300.875 92.1475L304.394 93.3003C303.866 94.6186 303.26 95.9042 302.581 97.15C303.566 97.9693 304.452 98.7305 305.121 99.3685L302.876 102.276ZM305.517 86.913V81.7945C303.286 81.577 301.062 81.3813 298.831 81.2145L300.904 82.1063C299.44 83.6111 297.824 84.9573 296.082 86.1228C299.23 86.3355 302.374 86.5965 305.517 86.9058V86.913ZM322.874 89.088C320.563 87.35 318.161 85.7382 315.678 84.2595L317.39 83.1793C315.371 82.9038 313.349 82.6621 311.324 82.4543V87.5728C315.176 87.9836 319.026 88.4839 322.874 89.0735V89.088ZM319.924 104.415C319.191 103.568 318.412 102.762 317.592 102C316.676 103.288 315.635 104.481 314.483 105.56C313.807 104.958 312.324 103.726 311.425 103.102C312.669 102.07 313.766 100.869 314.685 99.5353C313.724 98.7564 312.722 98.0304 311.684 97.3603L313.807 94.9533C314.717 95.5067 315.599 96.1068 316.448 96.7513C316.91 95.8726 317.325 94.9699 317.693 94.047C318.887 94.4893 320.075 94.9388 321.291 95.3955C320.786 96.6937 320.179 97.9495 319.477 99.151C320.434 99.931 321.333 100.779 322.169 101.689L319.924 104.415Z" fill="#3D3C3C"/>
</svg>
