<svg width="279" height="105" viewBox="0 0 279 105" fill="none" xmlns="http://www.w3.org/2000/svg">
<path opacity="0.5" d="M186.174 39.3749C198.69 33.5999 245.798 37.2749 260.226 39.3749" stroke="#FEF9A1" stroke-width="12" stroke-linecap="round"/>
<path opacity="0.5" d="M18.7734 88.4099C29.1075 91.1399 54.3167 96.5999 72.4812 96.5999C95.187 96.5999 133.612 82.95 168.107 82.95C195.704 82.95 226.764 86.5899 238.844 88.4099" stroke="#FEF9A1" stroke-width="12" stroke-linecap="round"/>
<path d="M33.1932 25.8406C30.9591 28.2421 28.5763 30.4989 26.0591 32.5974C28.6034 35.7098 31.7627 38.2557 35.3365 40.0734C34.0562 41.1992 32.9428 42.5039 32.0302 43.9479C26.8466 40.8976 22.8311 36.1359 19.7855 30.3661V40.7244C19.7855 43.4071 19.264 44.5726 17.6996 45.1711C16.1351 45.7696 13.7205 45.6961 10.3986 45.2446C10.1096 43.5468 9.60485 41.8935 8.89671 40.3254C11.1496 40.7401 13.5172 40.9764 14.2681 41.0551C15.0191 41.1339 15.2433 40.9396 15.2433 40.2204V34.3981C10.9618 36.7291 6.49262 38.9341 2.85258 40.5669C1.8965 39.0584 0.945645 37.5464 0 36.0309C3.60353 34.7814 9.68417 32.2929 15.2433 29.6731V20.5644C10.5394 20.0499 5.83379 19.4199 1.12643 18.6744V14.3484C5.83032 15.0939 10.5359 15.7239 15.2433 16.2384V10.5841C16.7713 10.7521 18.2993 10.9044 19.822 11.0514V16.6794C22.3148 16.9174 24.8058 17.1239 27.2951 17.2989C25.7306 16.1701 23.8428 14.9259 22.2261 13.9494C23.1179 13.0831 24.0044 12.2116 24.8962 11.3244C27.3156 12.6214 29.6373 14.0953 31.8425 15.7344L30.1529 17.4984C31.514 17.5876 32.8803 17.6611 34.2466 17.7346V22.0816C29.428 21.8366 24.6076 21.4866 19.7855 21.0316V21.4831C20.7765 24.1607 22.0566 26.7205 23.6029 29.1166C25.6704 27.2019 27.5608 25.1021 29.2507 22.8429C30.5648 23.8509 31.879 24.8501 33.1932 25.8406ZM8.3335 30.6916C7.24357 28.4709 4.61523 25.1214 2.36237 22.6539C3.50445 22.0344 4.64131 21.4096 5.78338 20.7796C7.99452 23.0634 10.7741 26.2501 11.9787 28.4341C10.7654 29.1936 9.55032 29.9461 8.3335 30.6916Z" fill="#3D3C3C"/>
<path d="M48.5088 17.8865V47.8115L45.2077 47.7538V40.9288C42.7671 41.3645 40.3631 41.7793 38.2197 42.1415L37.4688 38.372C38.032 38.3195 38.6734 38.2303 39.3461 38.141V17.6503L37.7817 17.5873V13.5815C41.7867 13.7495 45.7849 13.8545 49.776 13.8965V17.9075L48.5088 17.8865ZM45.2077 17.8288L42.6003 17.7605V21.7663L45.2077 21.8345V17.8288ZM45.2077 25.499C44.3316 25.499 43.4555 25.457 42.6003 25.4308V29.4418L45.2077 29.51V25.499ZM45.2077 37.3325V33.1745L42.6003 33.1063V37.721L45.2077 37.3325ZM72.508 29.951C71.3988 33.4116 69.7779 36.6841 67.6998 39.6583C68.0753 41.5378 68.5603 42.5825 69.087 42.6088C69.6137 42.635 69.9162 40.9235 70.1039 38.0413C70.8642 38.9669 71.7633 39.7676 72.7688 40.4143C71.8666 46.1158 70.2499 47.4913 68.8993 47.528C67.1366 47.528 65.8224 45.953 64.8473 43.1653C63.2287 44.8654 61.413 46.3637 59.4393 47.6278C58.7337 46.6937 57.9057 45.8601 56.9779 45.1498C57.8721 44.6149 58.7261 44.0148 59.5332 43.3543C58.897 43.3543 58.2556 43.3543 57.6193 43.3543V42.4618C56.4407 42.4618 55.2674 42.4618 54.0888 42.4618V45.2233C52.9624 45.2233 51.8359 45.2233 50.7095 45.2233V28.7645C54.0992 28.796 57.4907 28.796 60.8839 28.7645V42.131C61.9594 41.1424 62.9518 40.066 63.8512 38.9128C63.1846 35.0936 62.7578 31.236 62.5735 27.3628C58.2208 27.4328 53.875 27.4415 49.5362 27.389V23.609H51.2623C51.0857 22.4313 50.8313 21.2667 50.5009 20.123C51.5126 19.9708 52.5295 19.8133 53.5412 19.6505C53.9363 20.9495 54.2258 22.2786 54.4069 23.6248H56.4564C56.8102 22.3076 57.0733 20.9674 57.2439 19.6138C58.3703 19.7765 59.4967 19.9288 60.6231 20.081C60.2477 21.3305 59.8722 22.5433 59.5802 23.609L62.3962 23.5723C62.2502 20.1335 62.172 16.4323 62.099 12.5L65.8902 12.4318C65.8902 16.2853 65.9633 20.0285 66.1145 23.4988C68.2422 23.4498 70.3699 23.3903 72.4976 23.3203V27.1003C70.4325 27.1738 68.3673 27.2333 66.3022 27.2788C66.4535 29.8093 66.6412 32.1088 66.8654 34.1458C67.8169 32.2782 68.5837 30.3211 69.1548 28.3025L72.508 29.951ZM61.3167 19.556C57.6245 19.6085 53.9324 19.6085 50.2402 19.556V16.133C51.4396 16.133 52.639 16.133 53.8437 16.1593C53.5777 15.1723 53.244 14.1538 52.9415 13.2823L56.592 12.6418C57.0092 13.6918 57.4577 15.02 57.8331 16.1488C58.9961 16.1488 60.1642 16.1488 61.3272 16.1173L61.3167 19.556ZM54.0679 31.7728V34.1143C55.2465 34.1143 56.4199 34.1143 57.5985 34.1143V31.7675L54.0679 31.7728ZM57.5985 39.5165V37.0963H54.0679V39.548L57.5985 39.5165ZM68.3361 22.6325C67.7458 20.2693 66.9554 17.9614 65.9737 15.734L69.1027 14.5948C70.1879 16.7454 71.0612 18.9979 71.7101 21.32L68.3361 22.6325Z" fill="#3D3C3C"/>
<path d="M108.252 14.8259C107.198 18.6443 105.428 22.2244 103.037 25.3732C105.365 27.0873 108.008 28.3187 110.812 28.9957C109.716 30.1973 108.782 31.5388 108.033 32.9857L107.955 32.9542V45.3232L103.673 45.6329V44.4569C101.323 44.6249 98.971 44.7859 96.6173 44.9399V46.2262L92.4871 46.4887V34.2037L91.6214 34.6342C91.2134 33.8992 90.7497 33.1971 90.2342 32.5342V33.6314L86.104 33.8624V38.9182L90.5315 37.6477C90.6723 38.9602 90.8079 40.2727 90.9435 41.5904C85.6607 43.2232 79.9764 44.8349 75.7523 45.9794C75.4916 44.5514 75.2308 43.1234 74.9648 41.7007L76.6545 41.3279V28.6282C77.8713 28.5792 79.0881 28.5267 80.305 28.4707V40.4144L82.1823 39.9524V25.7354C80.444 25.8194 78.6918 25.8982 76.9257 25.9717V13.4557C81.2436 13.2842 85.5634 13.0689 89.8848 12.8099V22.1864C92.6227 19.3829 94.8755 15.2302 96.1428 11.0302C97.5543 11.2927 98.9693 11.5499 100.388 11.8019C100.085 12.6577 99.7828 13.5449 99.449 14.4269L104.706 14.0594L105.493 13.8494L108.252 14.8259ZM80.8004 21.9449C82.4535 21.8662 84.1067 21.7874 85.7598 21.6982V16.8944C84.1084 16.9854 82.4552 17.0694 80.8004 17.1464V21.9449ZM90.229 30.8699C92.8797 29.5453 95.3009 27.7991 97.3996 25.6987C96.5411 24.7072 95.7551 23.6544 95.0476 22.5487C94.3607 23.5037 93.6226 24.4203 92.8365 25.2944C91.914 24.4026 90.908 23.6026 89.8327 22.9057V25.3259L86.0779 25.5359V29.9564C87.4547 29.8829 88.8314 29.8094 90.2081 29.7254L90.229 30.8699ZM104.909 31.6784C103.238 30.8149 101.665 29.7729 100.216 28.5704C98.7943 29.9615 97.2475 31.2164 95.5952 32.3189C98.7068 32.1369 101.811 31.9322 104.909 31.7047V31.6784ZM103.668 40.6034V35.5739C101.318 35.7419 98.9658 35.9029 96.6121 36.0569V41.0864C98.9658 40.9359 101.318 40.7732 103.668 40.5982V40.6034ZM97.5873 18.3382C97.4882 18.5377 97.3891 18.7319 97.2848 18.9262C98.0939 20.2388 99.0115 21.4805 100.028 22.6379C101.101 21.1877 102.02 19.6288 102.771 17.9864C101.04 18.1072 99.3135 18.2279 97.5873 18.3382Z" fill="#3D3C3C"/>
<path d="M147.302 35.9783V40.5143C135.923 41.3963 124.544 42.3728 113.17 43.2548V38.7188C117.648 38.3688 122.127 38.0188 126.609 37.6688V9.18232L131.417 8.78857V19.5983C135.832 19.2483 140.251 18.8983 144.673 18.5483V23.1211C140.255 23.4711 135.836 23.8211 131.417 24.1711V37.2541C136.722 36.8166 142.017 36.3913 147.302 35.9783Z" fill="#3D3C3C"/>
<path d="M184.359 10.5946C184.359 10.5946 184.359 12.1066 184.322 12.6421C183.837 29.5576 183.42 35.5846 181.882 37.6531C181.466 38.2557 180.932 38.7658 180.312 39.1515C179.692 39.5371 179 39.7902 178.278 39.8948C176.323 40.1538 174.353 40.2818 172.38 40.2781C172.226 38.7513 171.727 37.2804 170.92 35.9783C173.319 36.0623 175.535 35.9783 176.51 35.8996C176.822 35.911 177.133 35.8518 177.419 35.7264C177.705 35.601 177.959 35.4126 178.164 35.1751C179.254 33.9151 179.728 28.2241 180.156 14.8576C177.475 14.9783 174.8 15.1201 172.119 15.2671C171.224 17.429 170.117 19.4955 168.813 21.4358C167.896 20.7219 166.931 20.0728 165.924 19.4933V37.1491C162.58 37.3591 159.237 37.5866 155.896 37.8316V40.5983L151.844 40.8976V12.7996L156.084 12.4898C156.599 10.4655 156.963 8.40527 157.173 6.32633C158.8 6.43658 160.428 6.54683 162.055 6.66758C161.418 8.59958 160.74 10.5368 160.104 12.2063C162.044 12.0698 163.984 11.9421 165.924 11.8231V17.9446C168.104 14.6318 169.903 9.94883 170.993 5.46533C172.422 5.71208 173.846 5.95883 175.275 6.21608C174.863 7.85933 174.372 9.47108 173.809 11.0933C177.324 10.9043 180.841 10.7381 184.359 10.5946ZM161.867 16.0178C159.878 16.1508 157.888 16.2891 155.896 16.4326V22.5593C157.888 22.4123 159.878 22.2723 161.867 22.1393V16.0178ZM161.867 33.4426V26.0348C159.878 26.1678 157.888 26.3061 155.896 26.4496V33.8626C157.888 33.7156 159.878 33.5756 161.867 33.4426ZM174.315 30.6233C173.272 28.4131 170.936 24.8483 169.1 22.1866L172.594 19.9816C174.59 22.5719 176.432 25.2786 178.111 28.0876L174.315 30.6233Z" fill="#3D3C3C"/>
<path d="M220.968 12.075V39.7845C219.503 39.7267 218.042 39.6795 216.577 39.6427V37.6005C209.067 37.4062 201.558 37.4167 194.043 37.6005V39.7005L189.84 39.8107V12.033C192.746 11.942 195.651 11.8772 198.554 11.8387V4.76698C200.014 4.76698 201.48 4.73548 202.945 4.72498V11.7967C204.447 11.7967 205.949 11.7967 207.451 11.7967V4.72498C208.914 4.72498 210.38 4.73898 211.847 4.76698V11.8387C214.889 11.8807 217.929 11.9595 220.968 12.075ZM194.043 16.3065V22.6065L198.554 22.5225V16.2225C197.052 16.2435 195.545 16.2697 194.043 16.3065ZM194.043 33.1642C195.545 33.1327 197.052 33.1012 198.554 33.0802V26.7802C197.052 26.7802 195.545 26.8275 194.043 26.8642V33.1642ZM202.945 16.1805V22.4805H207.451V16.1805C205.949 16.17 204.447 16.1752 202.945 16.1805ZM202.945 26.7645V33.0382H207.451V26.7645H202.945ZM211.863 16.2225V22.5225C213.438 22.547 215.014 22.5802 216.593 22.6222V16.3222C215.004 16.2767 213.427 16.2435 211.863 16.2225ZM216.556 33.18V26.88C214.992 26.8432 213.401 26.8065 211.826 26.7855V33.0855C213.415 33.11 214.992 33.1415 216.556 33.18Z" fill="#3D3C3C"/>
<path d="M239.591 25.6934C238.026 26.0031 236.363 26.3181 234.746 26.6489V35.7996C234.746 37.9941 234.334 39.0546 233.056 39.6426C231.779 40.2306 230.016 40.2254 227.388 40.0784C227.158 38.6297 226.741 37.2176 226.146 35.8784C227.612 36.0254 229.15 36.1199 229.64 36.1514C230.131 36.1829 230.355 36.0044 230.355 35.4741V27.5151C228.89 27.7986 227.502 28.0401 226.225 28.3341C225.86 26.8799 225.5 25.4256 225.135 23.9714C226.637 23.7404 228.441 23.4464 230.35 23.0946V16.3641C228.822 16.2644 227.294 16.1804 225.766 16.1016V11.9436C227.294 12.0224 228.822 12.1064 230.35 12.2061V5.1344C231.815 5.2289 233.275 5.32865 234.741 5.44415V12.5106C236.269 12.6261 237.797 12.7574 239.325 12.8939V17.0519C237.795 16.9154 236.267 16.7876 234.741 16.6686V22.3019C236.206 22.0341 237.635 21.7769 239.059 21.5301C239.241 22.9161 239.419 24.3231 239.591 25.6934ZM260.362 25.2576C258.547 24.9636 256.732 24.6854 254.917 24.4229V42.7611C253.443 42.5441 251.966 42.3429 250.485 42.1574V23.8244C248.748 23.6039 247.006 23.3939 245.27 23.2049C245.16 29.5049 244.295 35.8994 240.618 41.2911C239.556 40.0639 238.343 38.9772 237.009 38.0571C240.467 32.5709 240.879 26.3496 240.879 20.7321V9.44465C246.36 9.2399 252.445 8.80415 256.388 8.07965C257.275 9.47965 258.163 10.8796 259.053 12.2796C254.492 12.8371 249.905 13.1438 245.311 13.1984V18.9734C250.328 19.5229 255.347 20.2054 260.367 21.0209L260.362 25.2576Z" fill="#3D3C3C"/>
<path d="M52.8489 66.7642C51.4096 66.7012 49.9703 66.6277 48.531 66.5437V89.0767C48.531 91.7962 47.8947 93.0877 46.1269 93.723C44.2495 94.353 41.4751 94.248 37.6421 93.8332C37.222 92.1215 36.6042 90.4652 35.8013 88.8982C38.4713 89.355 41.7359 89.6017 42.6381 89.67C43.5402 89.7382 43.8375 89.502 43.8375 88.7092V66.2235C35.5113 65.5996 27.2259 64.5112 19.0195 62.9632V58.4482C30.1901 60.5355 41.4961 61.8058 52.8489 62.2492V66.7642ZM26.8263 83.1652V86.037C25.3766 85.8165 23.9216 85.5802 22.4718 85.3282V67.8247C27.7807 68.7452 33.0877 69.4627 38.3931 69.9772V84.609C34.541 84.2275 30.6854 83.7462 26.8263 83.1652ZM26.8263 72.807V78.855C29.2043 79.205 31.5824 79.5252 33.9604 79.8157V73.7677C31.5754 73.4842 29.1974 73.164 26.8263 72.807Z" fill="#3D3C3C"/>
<path d="M71.9985 84.567C67.0443 86.8875 61.4852 89.2342 57.2402 90.867L55.7383 86.0212C57.1672 85.575 58.8673 85.0132 60.7342 84.2887L59.9833 62.1967C61.5304 62.1652 63.0827 62.1197 64.6402 62.0602L65.3129 82.5352L70.9868 80.157C71.3206 81.627 71.6578 83.097 71.9985 84.567ZM87.5443 94.626C86.1154 92.2477 83.2993 88.9087 80.5249 85.8375C77.6682 89.9963 73.7145 93.2692 69.1094 95.2875C68.0515 93.854 66.8568 92.5282 65.5424 91.329C77.4429 86.7457 81.3124 77.2852 82.6996 61.7295C84.3423 61.8082 85.9798 61.8817 87.6225 61.9447C86.8298 69.7357 85.4792 76.1197 83.0386 81.3697C86.1675 84.4882 89.6459 88.1107 91.3825 90.6517C90.0996 91.9852 88.8202 93.31 87.5443 94.626ZM73.4639 75.768C72.5252 73.1797 70.1211 69.2527 67.8683 66.465C69.2172 65.765 70.5696 65.065 71.9255 64.365C74.3137 67.0408 76.3103 70.0461 77.8549 73.29C76.3947 74.13 74.931 74.9577 73.4639 75.7732V75.768Z" fill="#3D3C3C"/>
<path d="M109.056 83.1966C105.833 87.3774 102.012 91.0539 97.7183 94.1061C96.5543 93.049 95.3112 92.0836 94 91.2186C97.906 88.8141 102.224 84.8556 104.326 81.7004L109.056 83.1966ZM124.304 59.2094V77.2799C115.439 78.1146 106.631 78.9179 97.7913 79.5479V61.4774C106.631 60.8474 115.465 60.0231 124.304 59.2094ZM102.401 74.9594C108.086 74.5184 113.765 74.0144 119.449 73.4894V63.9764C113.765 64.5014 108.086 65.0001 102.401 65.4411V74.9594ZM117.645 80.4614C121.066 82.8344 125.644 86.2364 127.861 88.6881L123.652 91.7331C121.702 89.3076 117.269 85.6431 113.78 83.1179L117.645 80.4614Z" fill="#3D3C3C"/>
<path d="M151.186 84.3989C152.161 84.3989 153.178 84.3411 154.19 84.2624C156.276 84.0786 163.504 83.5326 166.184 83.2596C165.482 84.6388 164.976 86.1111 164.683 87.6329C161.115 87.8744 157.548 88.1421 153.981 88.4361C147.108 89.0031 142.451 88.4991 139.296 84.4041C138.034 86.9324 136.24 89.1538 134.039 90.9141C133.051 89.818 131.914 88.8687 130.66 88.0949C134.493 85.3491 136.783 81.1281 137.643 75.9779L142.112 76.2456C141.851 77.4794 141.549 78.6396 141.252 79.7631C141.74 80.8609 142.488 81.8212 143.431 82.5599C144.374 83.2986 145.483 83.793 146.66 83.9999V74.3976C141.792 74.8351 136.909 75.2884 132.011 75.7574V71.7884C143.051 70.7384 154.091 69.6884 165.131 68.9639V72.9329C160.49 73.2444 155.847 73.5944 151.202 73.9829V76.8231C155.057 76.4941 158.913 76.1914 162.769 75.9149V79.8104C158.91 80.0834 155.054 80.3844 151.202 80.7134L151.186 84.3989ZM161.548 67.5464C152.865 68.1764 144.177 68.9691 135.474 69.7934V56.6684C144.162 55.8494 152.85 55.0566 161.548 54.4266V67.5464ZM157.006 57.9494C151.27 58.4009 145.533 58.9101 139.797 59.4456V61.3356C145.533 60.8106 151.27 60.2856 157.006 59.8394V57.9494ZM157.006 62.7899C151.27 63.2361 145.533 63.7506 139.797 64.2809V66.2129C145.533 65.6879 151.27 65.1629 157.006 64.7166V62.7899Z" fill="#3D3C3C"/>
<path d="M180.662 53.5553C179.597 56.4064 178.348 59.1844 176.923 61.8713V87.5018C175.509 87.5648 174.091 87.633 172.678 87.7118V68.733C171.927 69.72 171.176 70.665 170.461 71.5418C169.809 69.9522 169.005 68.4297 168.062 66.9953C171.364 63.3885 174.592 57.855 176.432 52.3688C177.851 52.7573 179.261 53.1528 180.662 53.5553ZM202.893 83.0865C202.893 85.0553 202.518 86.0633 201.125 86.6355C199.733 87.2078 197.861 87.2183 195.191 87.1605C194.958 85.8717 194.541 84.6234 193.955 83.454C195.644 83.5643 197.522 83.5433 198.007 83.5485C198.492 83.5538 198.763 83.4068 198.758 82.9553V81.7058L196.583 82.4408C196.439 81.8513 196.265 81.2696 196.062 80.6978C192.119 81.2805 188.104 81.9105 184.985 82.404L184.156 78.687C185.585 78.5295 187.347 78.3038 189.23 78.0885V74.004C187.373 74.0285 185.52 74.0688 183.671 74.1248V87.2813C182.28 87.3233 180.89 87.3705 179.499 87.423V74.277L178.56 74.3138V70.6073L179.499 70.5705V69.1373C180.89 69.0778 182.28 69.0305 183.671 68.9955V70.4288C185.52 70.3763 187.373 70.336 189.23 70.308V68.0768C186.577 68.1188 183.923 68.1853 181.267 68.2763V53.6865C187.999 53.4503 194.737 53.3768 201.469 53.529V68.1188C198.688 68.0558 195.907 68.0313 193.126 68.0453V70.2713C196.38 70.2713 199.636 70.3098 202.893 70.3868V83.0865ZM185.392 59.3093C186.668 59.2778 187.945 59.2515 189.225 59.2305V56.8733C187.945 56.8733 186.668 56.8978 185.392 56.9468V59.3093ZM189.225 64.7168V62.3333C187.945 62.3333 186.668 62.3578 185.392 62.4068V64.7903C186.671 64.7623 187.949 64.7378 189.225 64.7168ZM197.146 56.8418C195.804 56.8418 194.464 56.8418 193.126 56.8418V59.2253C194.464 59.2253 195.804 59.2253 197.146 59.2253V56.8418ZM197.146 62.3228C195.804 62.3228 194.464 62.3228 193.126 62.3228V64.7063C194.466 64.7063 195.806 64.7063 197.146 64.7063V62.3228ZM196.505 74.7915C197.298 76.5765 198.194 78.813 198.758 80.4878V74.004C196.88 74.004 195.003 73.9725 193.126 74.004V77.679L194.93 77.49C194.669 76.7708 194.408 76.0935 194.142 75.5265L196.505 74.7915Z" fill="#3D3C3C"/>
<path d="M238.182 67.7617V86.3624C238.182 88.3312 237.77 89.2394 236.534 89.6332C235.298 90.0269 233.343 89.8327 230.798 89.4757C230.514 88.1529 230.086 86.8658 229.52 85.6379C231.085 85.9162 232.79 86.1629 233.239 86.1997C233.687 86.2364 233.953 86.1577 233.953 85.6274V68.1239C231.172 67.6969 228.39 67.3242 225.609 67.0057V83.4487C226.576 82.6609 227.435 81.7483 228.164 80.7344C227.413 80.2094 226.662 79.6424 225.948 79.2172L227.486 77.2852C228.128 77.6684 228.801 78.1304 229.479 78.6029C229.818 77.9546 230.119 77.2867 230.381 76.6027L233.046 77.5897C232.671 78.5334 232.245 79.4554 231.768 80.3512C232.555 80.9969 233.27 81.5954 233.797 82.1257L232.232 84.2257C231.655 83.6218 231.04 83.0554 230.391 82.5299C229.608 83.6237 228.699 84.6211 227.685 85.5014C227.028 84.8592 226.331 84.2595 225.599 83.7059V88.4677C224.196 88.3049 222.798 88.1579 221.395 88.0214V66.5489C218.729 66.2934 216.062 66.0782 213.396 65.9032V82.6507C214.335 81.788 215.156 80.8028 215.836 79.7212C215.122 79.1384 214.413 78.6344 213.75 78.1724L215.289 76.2404C215.888 76.6237 216.53 77.0489 217.13 77.5109C217.499 76.78 217.813 76.0218 218.068 75.2429C218.955 75.5317 219.847 75.8257 220.733 76.1249C220.355 77.2048 219.904 78.2573 219.382 79.2749C220.133 79.9049 220.811 80.5402 221.296 81.0389L219.685 83.1389C219.231 82.6454 218.642 82.0889 218.032 81.5219C217.3 82.6348 216.442 83.6583 215.476 84.5722C214.819 83.974 214.122 83.4215 213.39 82.9184V87.6854C212 87.5909 210.623 87.5122 209.26 87.4492V65.3729L209.187 65.4097C208.158 64.3139 207.053 63.2929 205.881 62.3542C208.476 61.5014 210.912 60.2185 213.088 58.5584C211.085 58.4324 209.083 58.3274 207.08 58.2434V54.1957C218.205 54.619 229.286 55.8277 240.242 57.8129V61.8607C238.537 61.5457 236.837 61.2517 235.132 60.9787C237.289 62.4111 239.346 63.9897 241.29 65.7037C240.261 66.3897 239.225 67.0757 238.182 67.7617ZM219.487 74.0617C219.069 73.6049 218.506 73.0694 217.922 72.5234C217.269 73.4904 216.514 74.3829 215.669 75.1852C214.986 74.5658 214.26 73.9972 213.495 73.4842C214.361 72.7065 215.13 71.8249 215.784 70.8592C215.143 70.3972 214.433 69.9299 213.792 69.5519L215.33 67.6514C215.894 67.9979 216.499 68.3444 217.098 68.7697C217.458 68.1117 217.771 67.4293 218.037 66.7274L220.587 67.5622C220.204 68.5168 219.765 69.4477 219.273 70.3499C219.987 70.9432 220.629 71.4944 221.114 71.9564L219.487 74.0617ZM221.401 62.9369V59.2304C219.784 59.0729 218.173 58.9312 216.556 58.8104L218.058 59.4562C216.997 60.5459 215.826 61.5207 214.564 62.3647C216.844 62.5187 219.123 62.7077 221.401 62.9317V62.9369ZM233.979 64.5119C232.304 63.2533 230.563 62.0862 228.764 61.0154L230.005 60.2332C228.542 60.0337 227.076 59.8587 225.609 59.7082V63.4147C228.401 63.7122 231.191 64.0744 233.979 64.5014V64.5119ZM231.841 75.6104C231.31 74.9971 230.746 74.4135 230.151 73.8622C229.488 74.795 228.733 75.6585 227.898 76.4399C227.408 76.0042 226.334 75.1117 225.682 74.6602C226.583 73.9123 227.378 73.0432 228.044 72.0772C227.348 71.5132 226.622 70.9874 225.87 70.5022L227.408 68.7592C228.068 69.1599 228.707 69.5945 229.322 70.0612C229.657 69.4248 229.958 68.7712 230.224 68.1029C231.09 68.4232 231.95 68.7487 232.832 69.0794C232.466 70.0195 232.026 70.9288 231.518 71.7989C232.21 72.3637 232.862 72.9778 233.468 73.6364L231.841 75.6104Z" fill="#3D3C3C"/>
</svg>
