<svg width="220" height="220" viewBox="0 0 220 220" fill="none" xmlns="http://www.w3.org/2000/svg">
<mask id="mask0_356_11372" style="mask-type:alpha" maskUnits="userSpaceOnUse" x="0" y="0" width="220" height="220">
<rect width="220" height="220" fill="#C4C4C4"/>
</mask>
<g mask="url(#mask0_356_11372)">
<path opacity="0.3" d="M12.204 35.432C10.116 35.432 8.256 34.916 6.624 33.884C4.992 32.852 3.708 31.364 2.772 29.42C1.86 27.452 1.404 25.112 1.404 22.4C1.404 19.688 1.86 17.36 2.772 15.416C3.708 13.448 4.992 11.948 6.624 10.916C8.256 9.884 10.116 9.368 12.204 9.368C14.292 9.368 16.152 9.884 17.784 10.916C19.416 11.948 20.688 13.448 21.6 15.416C22.536 17.36 23.004 19.688 23.004 22.4C23.004 25.112 22.536 27.452 21.6 29.42C20.688 31.364 19.416 32.852 17.784 33.884C16.152 34.916 14.292 35.432 12.204 35.432ZM12.204 30.5C13.74 30.5 14.94 29.84 15.804 28.52C16.692 27.2 17.136 25.16 17.136 22.4C17.136 19.64 16.692 17.6 15.804 16.28C14.94 14.96 13.74 14.3 12.204 14.3C10.692 14.3 9.492 14.96 8.604 16.28C7.74 17.6 7.308 19.64 7.308 22.4C7.308 25.16 7.74 27.2 8.604 28.52C9.492 29.84 10.692 30.5 12.204 30.5ZM37.258 20.06C39.466 20.42 41.158 21.248 42.334 22.544C43.51 23.816 44.098 25.4 44.098 27.296C44.098 28.76 43.714 30.116 42.946 31.364C42.178 32.588 41.002 33.572 39.418 34.316C37.858 35.06 35.938 35.432 33.658 35.432C31.882 35.432 30.13 35.204 28.402 34.748C26.698 34.268 25.246 33.596 24.046 32.732L26.314 28.268C27.274 28.988 28.378 29.552 29.626 29.96C30.898 30.344 32.194 30.536 33.514 30.536C34.978 30.536 36.13 30.26 36.97 29.708C37.81 29.132 38.23 28.328 38.23 27.296C38.23 25.232 36.658 24.2 33.514 24.2H30.85V20.348L36.034 14.48H25.306V9.8H42.946V13.58L37.258 20.06Z" fill="#3D3C3C"/>
<path d="M147.929 126.336C133.833 125.051 118.17 118.505 114.819 124.002C109.728 132.397 110.48 121.574 104.826 117.346C98.1541 112.334 84.8255 99.0051 85.7026 79.7562C86.3447 65.6602 94.677 50.6244 121.538 44.3908C166.504 33.9441 203.639 55.7303 206.772 83.4368C209.795 110.674 182.386 129.468 147.929 126.336Z" stroke="#3D3C3C" stroke-width="5" stroke-linecap="round" stroke-linejoin="round"/>
<path d="M45.5 156.5C33 155 27.6097 144.725 33 137.5C39.3418 129 68.7838 132.997 63.5 146.5C59 158 27.7285 139.688 38 127C45.6905 117.5 59 123.5 58 133.5C56.7026 146.474 25 155 25 138.5" stroke="#E0D8C5" stroke-width="5" stroke-linecap="round"/>
<path d="M116.964 68.907C120.392 66.9207 123.82 66.782 127.761 66.9302C135.077 67.2054 142.377 67.6965 149.696 67.9717C156.473 68.2266 163.262 68.0486 170.033 68.3033C172.294 68.3883 174.522 68.0388 176.779 68.1237" stroke="#3D3C3C" stroke-width="5" stroke-linecap="round"/>
<path d="M117.646 84.2762C126.02 82.5661 134.586 83.658 143.049 83.872C152.329 84.1066 161.602 84.7005 170.893 84.7902" stroke="#3D3C3C" stroke-width="5" stroke-linecap="round"/>
<path d="M118.283 101.485C127.001 99.2884 136.27 101.85 145.155 101.349" stroke="#3D3C3C" stroke-width="5" stroke-linecap="round"/>
<path d="M45.6383 164.505C54.3778 164.505 64.8402 159.195 69.4762 162.578C74.1123 165.961 71.7003 157.88 73.7834 156.188C76.4131 154.146 78.5021 151.491 79.8673 148.455C81.2326 145.418 81.8325 142.094 81.6145 138.772C81.3012 126.712 71.2774 116.844 52.8429 114.338C25.9195 110.752 13.374 128.685 13.374 141.215C13.374 155.546 24.134 164.505 45.6383 164.505Z" stroke="#E0D8C5" stroke-width="5" stroke-linecap="round" stroke-linejoin="round"/>
<path d="M147.929 176.455C141.664 176.455 135.399 175.703 132.267 178.021C129.134 180.339 129.447 173.135 128.022 171.976C126.261 170.725 124.858 169.034 123.954 167.072C123.05 165.109 122.676 162.945 122.869 160.793C123.073 152.539 128.398 145.287 141.664 143.564C151.907 142.233 162.025 148.263 163.591 156.094C165.518 165.711 160.459 176.455 147.929 176.455Z" stroke="#E0D8C5" stroke-width="5" stroke-linecap="round" stroke-linejoin="round"/>
</g>
</svg>
