<svg width="220" height="220" viewBox="0 0 220 220" fill="none" xmlns="http://www.w3.org/2000/svg">
<mask id="mask0_356_11326" style="mask-type:alpha" maskUnits="userSpaceOnUse" x="0" y="0" width="220" height="220">
<rect width="220" height="220" fill="#C4C4C4"/>
</mask>
<g mask="url(#mask0_356_11326)">
<path opacity="0.3" d="M12.204 35.432C10.116 35.432 8.256 34.916 6.624 33.884C4.992 32.852 3.708 31.364 2.772 29.42C1.86 27.452 1.404 25.112 1.404 22.4C1.404 19.688 1.86 17.36 2.772 15.416C3.708 13.448 4.992 11.948 6.624 10.916C8.256 9.884 10.116 9.368 12.204 9.368C14.292 9.368 16.152 9.884 17.784 10.916C19.416 11.948 20.688 13.448 21.6 15.416C22.536 17.36 23.004 19.688 23.004 22.4C23.004 25.112 22.536 27.452 21.6 29.42C20.688 31.364 19.416 32.852 17.784 33.884C16.152 34.916 14.292 35.432 12.204 35.432ZM12.204 30.5C13.74 30.5 14.94 29.84 15.804 28.52C16.692 27.2 17.136 25.16 17.136 22.4C17.136 19.64 16.692 17.6 15.804 16.28C14.94 14.96 13.74 14.3 12.204 14.3C10.692 14.3 9.492 14.96 8.604 16.28C7.74 17.6 7.308 19.64 7.308 22.4C7.308 25.16 7.74 27.2 8.604 28.52C9.492 29.84 10.692 30.5 12.204 30.5ZM44.4547 30.248V35H25.4107V31.22L35.1307 22.04C36.1627 21.056 36.8587 20.216 37.2187 19.52C37.5787 18.8 37.7587 18.092 37.7587 17.396C37.7587 16.388 37.4107 15.62 36.7147 15.092C36.0427 14.54 35.0467 14.264 33.7267 14.264C32.6227 14.264 31.6267 14.48 30.7387 14.912C29.8507 15.32 29.1067 15.944 28.5067 16.784L24.2587 14.048C25.2427 12.584 26.5987 11.444 28.3267 10.628C30.0547 9.788 32.0347 9.368 34.2667 9.368C36.1387 9.368 37.7707 9.68 39.1627 10.304C40.5787 10.904 41.6707 11.768 42.4387 12.896C43.2307 14 43.6267 15.308 43.6267 16.82C43.6267 18.188 43.3387 19.472 42.7627 20.672C42.1867 21.872 41.0707 23.24 39.4147 24.776L33.6187 30.248H44.4547Z" fill="#3D3C3C"/>
<path d="M80.001 78.578C85.2737 82.5788 89.9756 87.2807 93.9764 92.5534C96.1363 95.3358 98.7027 99.5157 98.2453 102.997C97.699 107.05 93.5826 109.464 91.1686 112.754C87.9289 117.163 87.8399 123.312 89.7711 128.432C91.7022 133.552 95.3486 137.821 99.1854 141.709C103.785 146.359 108.968 150.767 115.245 152.622C121.521 154.477 129.106 153.207 133.171 148.074C133.624 147.42 134.139 146.812 134.708 146.257C136.487 144.695 139.308 144.885 141.379 146.029C143.449 147.172 165.124 158.619 162.583 162.431" stroke="#3D3C3C" stroke-width="5" stroke-linecap="round" stroke-linejoin="round"/>
<path d="M72.3781 82.3895C66.394 87.0395 58.9617 95.3612 57.1321 102.717C55.0358 111.141 61.1342 121.381 65.7715 128.699C80.4711 151.86 100.964 171.019 125.739 182.759C129.366 184.287 133.24 185.148 137.173 185.3C145.393 185.49 155.138 172.849 160.042 166.242" stroke="#3D3C3C" stroke-width="5" stroke-linecap="round" stroke-linejoin="round"/>
<path d="M103.874 70.6501C107.022 72.7684 109.498 75.7438 111.008 79.2245C112.519 82.7052 113.002 86.5457 112.399 90.2919" stroke="#E0D8C5" stroke-width="5" stroke-linecap="round" stroke-linejoin="round"/>
<path d="M110.354 54.4005C116.706 54.6292 121.877 59.8128 125.32 65.2251C129.538 71.8571 132.397 80.039 130.11 87.5604" stroke="#E0D8C5" stroke-width="5" stroke-linecap="round" stroke-linejoin="round"/>
<path d="M113.148 35C125.574 39.165 136.098 47.6426 142.812 58.8972C149.527 70.1519 151.989 83.4391 149.751 96.3522" stroke="#E0D8C5" stroke-width="5" stroke-linecap="round" stroke-linejoin="round"/>
</g>
</svg>
