<svg width="422" height="360" viewBox="0 0 422 360" fill="none" xmlns="http://www.w3.org/2000/svg">
<path opacity="0.3" d="M264.8 195.003L282.8 184.603L295.1 191.703C295.285 191.82 295.494 191.893 295.711 191.915C295.928 191.937 296.147 191.908 296.351 191.83C296.556 191.753 296.739 191.628 296.886 191.467C297.033 191.306 297.141 191.113 297.2 190.903L304.8 161.403C304.894 161.042 304.902 160.664 304.824 160.299C304.746 159.935 304.584 159.593 304.351 159.302C304.118 159.011 303.821 158.778 303.482 158.622C303.143 158.466 302.773 158.391 302.4 158.403L250.4 162.903C250.11 162.955 249.841 163.092 249.628 163.297C249.415 163.502 249.267 163.765 249.203 164.053C249.139 164.342 249.162 164.642 249.268 164.918C249.374 165.194 249.559 165.432 249.8 165.603L259.8 171.403L223.4 192.403" stroke="#3D3C3C" stroke-width="5" stroke-linecap="round"/>
<g opacity="0.5">
<path opacity="0.5" d="M252.901 218.203C260.665 219.365 268.194 221.762 275.201 225.303L268.601 229.003C268.302 229.159 268.06 229.406 267.909 229.708C267.759 230.01 267.708 230.351 267.763 230.684C267.819 231.017 267.978 231.324 268.218 231.56C268.458 231.797 268.767 231.952 269.101 232.003L322.001 241.103C322.442 241.174 322.895 241.121 323.308 240.949C323.72 240.777 324.077 240.493 324.337 240.129C324.597 239.765 324.75 239.335 324.779 238.889C324.808 238.443 324.712 237.997 324.501 237.603L309.101 207.603C308.872 207.222 308.503 206.946 308.073 206.834C307.643 206.722 307.187 206.783 306.801 207.003L298.001 212.103C278.801 201.803 253.901 197.403 231.301 199.103" stroke="#3D3C3C" stroke-width="5" stroke-linecap="round"/>
<path opacity="0.5" d="M188.4 239.303L207.6 228.203" stroke="#3D3C3C" stroke-width="5" stroke-linecap="round"/>
<path opacity="0.5" d="M186.2 214.103L145.4 237.603" stroke="#3D3C3C" stroke-width="5" stroke-linecap="round"/>
</g>
<path d="M124.4 275.203C132.333 270.469 138.533 267.669 143 266.803C147.6 265.903 155.5 265.703 166.8 266.403C188.5 267.503 204 267.503 213.3 266.303C222.6 265.103 230.5 262.703 236.9 259.003C248.4 252.403 253.6 243.703 252.4 232.903C251.2 222.103 242.3 212.003 225.5 202.403L209.1 192.603L216.3 188.503C216.552 188.364 216.755 188.152 216.882 187.894C217.009 187.637 217.053 187.346 217.01 187.063C216.966 186.779 216.836 186.515 216.638 186.308C216.439 186.1 216.182 185.959 215.9 185.903L162.3 176.703C161.875 176.596 161.427 176.619 161.015 176.769C160.603 176.919 160.244 177.188 159.986 177.543C159.728 177.897 159.582 178.321 159.567 178.759C159.552 179.198 159.668 179.631 159.9 180.003L175.5 210.303C175.69 210.643 176.005 210.896 176.378 211.008C176.752 211.12 177.154 211.082 177.5 210.903L186.5 205.703L204.7 215.803C212.4 220.303 216.5 224.903 217 229.903C217.5 234.903 215 238.903 209.3 242.103C205.3 244.503 200.3 245.903 194.4 246.403C190.6 246.603 181 246.303 165.6 245.303C150.2 244.303 138.4 244.703 130.1 246.203C121.181 247.989 112.627 251.268 104.8 255.903L98 260.003" stroke="#3D3C3C" stroke-width="5" stroke-linecap="round"/>
<path d="M225.3 113.403C231.5 110.703 236.4 111.703 241.6 116.103C244.3 118.403 244.7 125.603 241.7 128.003C238.7 130.403 233.6 129.603 231.6 132.303C229.6 135.003 229 137.803 228.8 141.403" stroke="#3D3C3C" stroke-width="5" stroke-linecap="round"/>
<path d="M225.6 152.603C228 150.003 229.5 151.303 227.5 153.003C225.5 154.703 226.1 151.603 228.1 151.803" stroke="#3D3C3C" stroke-width="5.66" stroke-linecap="round"/>
<path d="M173.4 88.2029C182.6 82.4029 190.6 82.7029 199.8 88.5029C204.8 91.6029 207 102.803 203 107.403C199 112.003 190.4 111.903 187.9 116.603C185.4 121.303 185 126.003 185.7 131.603" stroke="#3D3C3C" stroke-width="5" stroke-linecap="round"/>
<path d="M183.3 150.203C186.4 145.503 189.1 147.203 186.4 150.303C183.7 153.403 183.8 148.403 187 148.303" stroke="#3D3C3C" stroke-width="5.66" stroke-linecap="round"/>
</svg>
