<svg width="422" height="360" viewBox="0 0 422 360" fill="none" xmlns="http://www.w3.org/2000/svg">
<g clip-path="url(#clip0_172_757)">
<path d="M223.2 110.3V93.3C223.2 85.1 216.9 78.5 209.1 78.5H139.6C131.8 78.5 125.5 85.1 125.5 93.3V251.1C125.5 259.3 131.8 265.9 139.6 265.9H185.5" stroke="#3D3C3C" stroke-width="4.98" stroke-linecap="round" stroke-linejoin="round"/>
<path d="M213 100.4H135.7" stroke="#3D3C3C" stroke-width="4.98" stroke-linecap="round" stroke-linejoin="round"/>
<path d="M176.9 247.3H135.7" stroke="#3D3C3C" stroke-width="4.98" stroke-linecap="round" stroke-linejoin="round"/>
<path d="M185.5 92.3998C186.77 92.3998 187.8 91.3701 187.8 90.0998C187.8 88.8295 186.77 87.7998 185.5 87.7998C184.23 87.7998 183.2 88.8295 183.2 90.0998C183.2 91.3701 184.23 92.3998 185.5 92.3998Z" fill="#3D3C3C"/>
<path d="M176.9 87.7998H163.1C161.83 87.7998 160.8 88.8295 160.8 90.0998V90.1498C160.8 91.4201 161.83 92.4498 163.1 92.4498H176.9C178.17 92.4498 179.2 91.4201 179.2 90.1498V90.0998C179.2 88.8295 178.17 87.7998 176.9 87.7998Z" fill="#3D3C3C"/>
<path d="M246.8 226.8L218.2 255.3C218.071 255.466 217.903 255.598 217.712 255.685C217.52 255.772 217.31 255.812 217.1 255.8C216.874 255.829 216.644 255.798 216.433 255.711C216.222 255.623 216.039 255.481 215.9 255.3L204 243.4" stroke="#3D3C3C" stroke-width="4.98" stroke-linecap="round" stroke-linejoin="round"/>
<path d="M248.1 240.3C248.2 241.3 248.3 242.4 248.3 243.4C248.3 249.373 246.529 255.212 243.211 260.178C239.892 265.145 235.176 269.015 229.657 271.301C224.139 273.587 218.067 274.185 212.209 273.02C206.35 271.854 200.969 268.978 196.746 264.755C192.522 260.531 189.646 255.15 188.481 249.292C187.315 243.433 187.913 237.361 190.199 231.843C192.485 226.325 196.356 221.608 201.322 218.29C206.289 214.971 212.127 213.2 218.1 213.2C225.72 213.17 233.059 216.07 238.6 221.3" stroke="#3D3C3C" stroke-width="4.98" stroke-linecap="round" stroke-linejoin="round"/>
<path d="M224.4 158V140.4C224.4 124.3 237.2 110.9 252.8 110.6C256.931 110.537 261.027 111.352 264.82 112.989C268.612 114.627 272.014 117.05 274.8 120.1C279.661 125.626 282.329 132.741 282.3 140.1V158.2" stroke="#3D3C3C" stroke-width="4.98" stroke-linecap="round" stroke-linejoin="round"/>
<path d="M234.7 156.3V140.4C235.045 135.689 237.16 131.284 240.62 128.069C244.079 124.854 248.627 123.066 253.35 123.066C258.073 123.066 262.621 124.854 266.081 128.069C269.54 131.284 271.655 135.689 272 140.4V152" stroke="#3D3C3C" stroke-width="4.98" stroke-linecap="round" stroke-linejoin="round"/>
<path d="M210.7 202.8V168.2C210.7 165.946 211.596 163.784 213.19 162.19C214.784 160.596 216.946 159.7 219.2 159.7H287.5C288.625 159.7 289.738 159.923 290.776 160.357C291.814 160.79 292.756 161.425 293.546 162.225C294.337 163.025 294.961 163.974 295.382 165.017C295.803 166.06 296.013 167.176 296 168.3V214.8C296.013 215.925 295.803 217.041 295.382 218.084C294.961 219.127 294.337 220.075 293.546 220.875C292.756 221.675 291.814 222.31 290.776 222.744C289.738 223.177 288.625 223.4 287.5 223.4H257.5" stroke="#3D3C3C" stroke-width="4.98" stroke-linecap="round" stroke-linejoin="round"/>
<g opacity="0.5">
<path opacity="0.5" d="M149.7 150.4H149.4C149.2 150.342 149.016 150.24 148.86 150.102C148.704 149.963 148.581 149.792 148.5 149.6L146.6 144.2C143.749 143.878 141.121 142.501 139.232 140.34C137.344 138.179 136.332 135.391 136.394 132.522C136.457 129.653 137.59 126.911 139.571 124.835C141.552 122.758 144.237 121.497 147.1 121.3H179.6C181.194 121.151 182.801 121.336 184.319 121.844C185.837 122.351 187.232 123.17 188.415 124.248C189.598 125.326 190.544 126.639 191.191 128.103C191.837 129.567 192.171 131.149 192.171 132.75C192.171 134.351 191.837 135.933 191.191 137.397C190.544 138.861 189.598 140.174 188.415 141.252C187.232 142.33 185.837 143.149 184.319 143.656C182.801 144.164 181.194 144.349 179.6 144.2H156.4L150.6 150C150.487 150.127 150.348 150.228 150.193 150.297C150.038 150.366 149.87 150.401 149.7 150.4V150.4Z" fill="#3D3C3C"/>
</g>
<g opacity="0.5">
<path opacity="0.5" d="M149.7 218.1H149.4C149.025 217.985 148.704 217.736 148.5 217.4L146.6 212C143.55 211.933 140.652 210.658 138.542 208.455C136.432 206.251 135.284 203.3 135.35 200.25C135.417 197.2 136.692 194.301 138.895 192.191C141.099 190.082 144.05 188.933 147.1 189H179.6C182.65 189 185.575 190.211 187.732 192.368C189.889 194.525 191.1 197.45 191.1 200.5C191.1 203.55 189.889 206.475 187.732 208.632C185.575 210.788 182.65 212 179.6 212H156.4L150.6 217.8C150.333 217.978 150.022 218.082 149.7 218.1V218.1Z" fill="#3D3C3C"/>
</g>
<g opacity="0.5">
<path opacity="0.5" d="M198.3 184.2L192.5 178.3H169.3C167.706 178.449 166.099 178.264 164.581 177.756C163.063 177.249 161.668 176.43 160.485 175.352C159.301 174.274 158.356 172.962 157.709 171.498C157.063 170.034 156.729 168.451 156.729 166.85C156.729 165.25 157.063 163.667 157.709 162.203C158.356 160.739 159.301 159.426 160.485 158.348C161.668 157.27 163.063 156.451 164.581 155.944C166.099 155.436 167.706 155.251 169.3 155.4H201.8C204.663 155.598 207.348 156.858 209.329 158.935C211.31 161.011 212.443 163.753 212.506 166.622C212.568 169.491 211.556 172.28 209.668 174.44C207.779 176.601 205.151 177.978 202.3 178.3L200.4 183.7C200.319 183.892 200.196 184.063 200.04 184.202C199.884 184.34 199.7 184.442 199.5 184.5H199.2L198.3 184.2Z" fill="#3D3C3C"/>
</g>
</g>
<defs>
<clipPath id="clip0_172_757">
<rect width="175.5" height="208.5" fill="white" transform="translate(123 76)"/>
</clipPath>
</defs>
</svg>
