<svg width="422" height="360" viewBox="0 0 422 360" fill="none" xmlns="http://www.w3.org/2000/svg">
<g clip-path="url(#clip0_172_755)">
<path d="M103.1 198V183.4L95.9004 195.5H93.4004L86.2004 183.7V198H80.9004V173.6H85.6004L94.7004 188.8L103.7 173.6H108.4V198H103.1Z" fill="#3D3C3C"/>
<path d="M112.4 188.7C112.4 183 116.8 179 122.8 179C128.8 179 133 183 133 188.7C133 194.4 128.7 198.3 122.8 198.3C116.9 198.3 112.4 194.3 112.4 188.7ZM127.5 188.7C127.5 185.4 125.5 183.5 122.8 183.5C120.1 183.5 117.9 185.4 117.9 188.7C117.9 192 120 193.9 122.8 193.9C125.6 193.9 127.5 191.9 127.5 188.7Z" fill="#3D3C3C"/>
<path d="M155.8 187.3V198H150.4V188.1C150.4 185.1 149 183.7 146.6 183.7C144.2 183.7 142.1 185.3 142.1 188.8V198H136.7V179.3H141.9V181.5C142.692 180.661 143.656 180.003 144.727 179.571C145.797 179.14 146.948 178.945 148.1 179C152.5 179 155.8 181.6 155.8 187.3Z" fill="#3D3C3C"/>
<path d="M160.1 186H169.9V190.4H160.1V186Z" fill="#3D3C3C"/>
<path d="M180.2 178.2V184.6H191.5V189.1H180.2V198H174.6V173.6H193V178.2H180.2Z" fill="#3D3C3C"/>
<path d="M207.8 179V184H206.6C203.6 184 201.6 185.7 201.6 189.3V198.1H196.1V179.3H201.3V181.8C202.7 179.9 204.9 179 207.8 179Z" fill="#3D3C3C"/>
<path d="M210.4 173.6C210.398 173.179 210.485 172.763 210.654 172.378C210.823 171.993 211.071 171.648 211.382 171.365C211.694 171.082 212.061 170.868 212.46 170.736C212.859 170.604 213.282 170.558 213.7 170.6C215.8 170.6 217.1 171.9 217.1 173.5C217.101 173.938 217.012 174.371 216.839 174.773C216.666 175.174 216.412 175.537 216.094 175.836C215.775 176.136 215.398 176.368 214.987 176.516C214.575 176.665 214.137 176.727 213.7 176.7C213.277 176.727 212.852 176.667 212.453 176.524C212.053 176.381 211.687 176.157 211.378 175.866C211.069 175.575 210.822 175.224 210.654 174.834C210.486 174.445 210.4 174.024 210.4 173.6ZM211 179.3H216.5V198H211V179.3Z" fill="#3D3C3C"/>
<path d="M96.6 232.8C96.6 237 92.9 239.6 87.3 239.6C81.7 239.6 78 237 78 232.8C78.0153 231.7 78.343 230.627 78.945 229.706C79.547 228.785 80.3985 228.055 81.4 227.6C80.5882 227.169 79.914 226.519 79.4543 225.723C78.9945 224.927 78.7678 224.018 78.8 223.1C78.8 219.2 82.3 216.8 87.3 216.8C92.3 216.8 95.9 219.2 95.9 223.1C95.9098 224.014 95.6736 224.914 95.2162 225.706C94.7588 226.498 94.097 227.152 93.3 227.6C94.2903 228.059 95.1278 228.794 95.7128 229.716C96.2978 230.638 96.6057 231.708 96.6 232.8ZM91.5 232.7C91.5 230.7 89.9 229.5 87.3 229.5C84.7 229.5 83.2 230.7 83.2 232.7C83.2 234.7 84.8 235.8 87.3 235.8C89.8 235.8 91.5 234.6 91.5 232.7ZM83.9 223.3C83.9 225 85.2 226 87.3 226C89.4 226 90.8 225 90.8 223.3C90.8 221.6 89.4 220.5 87.3 220.5C85.2 220.5 83.9 221.6 83.9 223.3Z" fill="#3D3C3C"/>
<path d="M98.7996 225.1C98.7856 224.689 98.8563 224.28 99.0071 223.897C99.158 223.515 99.3858 223.167 99.6765 222.877C99.9672 222.586 100.315 222.358 100.697 222.207C101.079 222.056 101.489 221.986 101.9 222C102.614 222.13 103.26 222.506 103.725 223.063C104.19 223.621 104.445 224.324 104.445 225.05C104.445 225.776 104.19 226.479 103.725 227.036C103.26 227.593 102.614 227.97 101.9 228.1C101.497 228.113 101.096 228.046 100.721 227.901C100.345 227.756 100.003 227.537 99.7133 227.257C99.4241 226.977 99.1941 226.642 99.0371 226.271C98.8801 225.901 98.7994 225.502 98.7996 225.1ZM98.7996 236.4C98.7994 235.997 98.8801 235.599 99.0371 235.228C99.1941 234.857 99.4241 234.522 99.7133 234.242C100.003 233.962 100.345 233.744 100.721 233.599C101.096 233.454 101.497 233.386 101.9 233.4C102.297 233.386 102.694 233.454 103.064 233.6C103.434 233.745 103.771 233.966 104.052 234.247C104.333 234.529 104.554 234.865 104.7 235.235C104.845 235.606 104.914 236.002 104.9 236.4C104.913 236.802 104.845 237.203 104.701 237.579C104.556 237.954 104.337 238.297 104.057 238.586C103.777 238.875 103.442 239.105 103.071 239.262C102.701 239.419 102.302 239.5 101.9 239.5C101.077 239.5 100.289 239.173 99.7075 238.592C99.1262 238.01 98.7996 237.222 98.7996 236.4Z" fill="#3D3C3C"/>
<path d="M123.6 232.5C123.6 236.2 120.7 239.6 114.4 239.6C111.418 239.696 108.481 238.857 106 237.2L108 233.3C109.823 234.641 112.037 235.344 114.3 235.3C116.8 235.3 118.4 234.3 118.4 232.5C118.4 230.7 117.2 229.8 114.3 229.8H111.9V226.4L116.5 221.2H107.1V217.1H122.5V220.4L117.6 226.1C121.5 226.8 123.6 229.2 123.6 232.5Z" fill="#3D3C3C"/>
<path d="M125.9 228.2C125.9 220.9 130 216.8 135.4 216.8C140.8 216.8 144.9 220.9 144.9 228.2C144.9 235.5 140.8 239.6 135.4 239.6C130 239.6 125.9 235.5 125.9 228.2ZM139.7 228.2C139.7 223.2 137.9 221.1 135.4 221.1C132.9 221.1 131.1 223.2 131.1 228.2C131.1 233.2 132.9 235.3 135.4 235.3C137.9 235.3 139.7 233.2 139.7 228.2Z" fill="#3D3C3C"/>
<path d="M155.6 233.9V239.2H153.1V238.1C152.772 238.55 152.331 238.907 151.823 239.135C151.314 239.363 150.755 239.455 150.2 239.4C148.1 239.4 146.8 238.1 146.8 236.5C146.8 234.9 147.9 233.7 150.8 233.7H152.9C152.9 232.6 152.2 231.9 150.8 231.9C149.82 231.859 148.859 232.179 148.1 232.8L147.1 230.9C148.296 230.149 149.687 229.766 151.1 229.8C154 229.8 155.6 231.1 155.6 233.9ZM152.9 236.3V235.3H151.1C149.8 235.3 149.4 235.8 149.4 236.4C149.4 237 150 237.5 150.9 237.5C151.317 237.534 151.734 237.437 152.093 237.222C152.452 237.006 152.734 236.684 152.9 236.3Z" fill="#3D3C3C"/>
<path d="M173.8 233.9V239.2H171.1V234.3C171.1 232.8 170.5 232.1 169.4 232.1C168.3 232.1 167.3 232.9 167.3 234.5V239.2H164.6V234.3C164.6 232.8 163.9 232.1 162.8 232.1C161.7 232.1 160.8 232.9 160.8 234.5V239.2H158.1V229.9H160.6V231C160.985 230.597 161.452 230.282 161.969 230.075C162.487 229.868 163.043 229.774 163.6 229.8C164.201 229.771 164.799 229.893 165.341 230.155C165.882 230.418 166.349 230.811 166.7 231.3C167.087 230.802 167.59 230.405 168.165 230.144C168.74 229.882 169.369 229.764 170 229.8C172.2 229.8 173.8 231 173.8 233.9Z" fill="#3D3C3C"/>
<path d="M190.5 228.6C189.4 228.6 188.6 229.5 188.6 231H185.5C185.6 227 187.5 225 190.2 225C192.9 225 194.6 227.7 196.2 227.7C197.8 227.7 198.1 226.8 198.2 225.3H201.3C201.2 229.3 199.3 231.3 196.6 231.3C193.9 231.3 192.2 228.6 190.5 228.6Z" fill="#3D3C3C"/>
<path d="M229.7 232.3C229.7 236.2 226.8 239.6 220.5 239.6C217.518 239.696 214.581 238.857 212.1 237.2L214.1 233.3C215.93 234.628 218.139 235.329 220.4 235.3C222.9 235.3 224.5 234.2 224.5 232.4C224.5 230.6 223.4 229.6 219.4 229.6H213.7L214.9 217.1H228.3V221.2H219.1L218.8 225.4H220.6C227.1 225.4 229.7 228.4 229.7 232.3Z" fill="#3D3C3C"/>
<path d="M231.6 225.1C231.586 224.689 231.657 224.28 231.808 223.897C231.959 223.515 232.187 223.167 232.477 222.877C232.768 222.586 233.115 222.358 233.498 222.207C233.88 222.056 234.289 221.986 234.7 222C235.415 222.13 236.061 222.506 236.526 223.063C236.991 223.621 237.246 224.324 237.246 225.05C237.246 225.776 236.991 226.479 236.526 227.036C236.061 227.593 235.415 227.97 234.7 228.1C234.298 228.113 233.897 228.046 233.522 227.901C233.146 227.756 232.803 227.537 232.514 227.257C232.225 226.977 231.995 226.642 231.838 226.271C231.681 225.901 231.6 225.502 231.6 225.1ZM231.6 236.4C231.6 235.997 231.681 235.599 231.838 235.228C231.995 234.857 232.225 234.522 232.514 234.242C232.803 233.962 233.146 233.744 233.522 233.599C233.897 233.454 234.298 233.386 234.7 233.4C235.098 233.386 235.494 233.454 235.865 233.6C236.235 233.745 236.571 233.966 236.853 234.247C237.134 234.529 237.355 234.865 237.5 235.235C237.646 235.606 237.714 236.002 237.7 236.4C237.714 236.802 237.646 237.203 237.501 237.579C237.357 237.954 237.138 238.297 236.858 238.586C236.578 238.875 236.243 239.105 235.872 239.262C235.501 239.419 235.103 239.5 234.7 239.5C233.878 239.5 233.09 239.173 232.508 238.592C231.927 238.01 231.6 237.222 231.6 236.4Z" fill="#3D3C3C"/>
<path d="M256.3 232.5C256.3 236.2 253.5 239.6 247.2 239.6C244.218 239.696 241.281 238.857 238.8 237.2L240.8 233.3C242.623 234.641 244.837 235.344 247.1 235.3C249.6 235.3 251.2 234.3 251.2 232.5C251.2 230.7 250 229.8 247.1 229.8H244.7V226.4L249.3 221.2H239.9V217.1H255.3V220.4L250.3 226.1C254.3 226.8 256.3 229.2 256.3 232.5Z" fill="#3D3C3C"/>
<path d="M258.7 228.2C258.7 220.9 262.7 216.8 268.2 216.8C273.7 216.8 277.6 220.9 277.6 228.2C277.6 235.5 273.6 239.6 268.2 239.6C262.8 239.6 258.7 235.5 258.7 228.2ZM272.5 228.2C272.5 223.2 270.7 221.1 268.2 221.1C265.7 221.1 263.9 223.2 263.9 228.2C263.9 233.2 265.6 235.3 268.2 235.3C270.8 235.3 272.5 233.2 272.5 228.2Z" fill="#3D3C3C"/>
<path d="M290.3 234.6C290.342 235.224 290.253 235.85 290.039 236.438C289.825 237.026 289.492 237.563 289.059 238.015C288.626 238.467 288.104 238.823 287.525 239.062C286.947 239.3 286.325 239.415 285.7 239.4C285.172 239.432 284.644 239.339 284.158 239.131C283.672 238.923 283.241 238.604 282.9 238.2V242.6H280.1V229.9H282.7V231C283.081 230.592 283.547 230.273 284.066 230.065C284.584 229.858 285.142 229.767 285.7 229.8C286.325 229.785 286.947 229.9 287.525 230.138C288.104 230.377 288.626 230.733 289.059 231.185C289.492 231.637 289.825 232.174 290.039 232.762C290.253 233.35 290.342 233.976 290.3 234.6ZM287.6 234.6C287.627 234.268 287.586 233.935 287.478 233.62C287.37 233.305 287.197 233.017 286.971 232.772C286.746 232.528 286.472 232.333 286.167 232.2C285.862 232.067 285.532 231.999 285.2 232C284.862 231.982 284.525 232.039 284.212 232.167C283.9 232.294 283.619 232.489 283.389 232.737C283.16 232.985 282.989 233.281 282.887 233.603C282.785 233.925 282.755 234.265 282.8 234.6C282.771 234.927 282.812 235.256 282.921 235.566C283.03 235.876 283.204 236.159 283.431 236.395C283.659 236.632 283.934 236.818 284.239 236.939C284.544 237.061 284.872 237.116 285.2 237.1C285.528 237.116 285.855 237.061 286.16 236.939C286.465 236.818 286.74 236.632 286.968 236.395C287.195 236.159 287.369 235.876 287.478 235.566C287.587 235.256 287.629 234.927 287.6 234.6Z" fill="#3D3C3C"/>
<path d="M307.9 233.9V239.2H305.2V234.3C305.2 232.8 304.5 232.1 303.4 232.1C302.3 232.1 301.3 232.9 301.3 234.5V239.2H298.6V234.3C298.6 232.8 298 232.1 296.9 232.1C295.8 232.1 294.8 232.9 294.8 234.5V239.2H292.1V229.9H294.7V231C295.066 230.6 295.515 230.285 296.016 230.077C296.517 229.87 297.058 229.775 297.6 229.8C298.201 229.771 298.799 229.893 299.341 230.155C299.882 230.417 300.349 230.811 300.7 231.3C301.108 230.8 301.629 230.403 302.22 230.143C302.811 229.882 303.455 229.765 304.1 229.8C306.3 229.8 307.9 231 307.9 233.9Z" fill="#3D3C3C"/>
<path d="M260.4 181.5C257.2 181.2 263 174.3 256.4 172.7C249.8 171.1 233.7 164.4 236.4 145.5C239.1 126.6 254.8 118.4 272.5 120.9C290.2 123.4 303 139.9 296.4 156.5C289.8 173.1 268.6 182.3 260.4 181.5Z" stroke="#3D3C3C" stroke-width="5"/>
<path d="M251.2 136.8L248.3 153L254.5 154.1" stroke="#3D3C3C" stroke-width="4" stroke-linecap="round" stroke-linejoin="round"/>
<path d="M262.5 138.8L259.5 155.6" stroke="#3D3C3C" stroke-width="4" stroke-linecap="round" stroke-linejoin="round"/>
<path d="M264 156.4L267 139.6L270.8 157.8L273.8 140.9" stroke="#3D3C3C" stroke-width="4" stroke-linecap="round" stroke-linejoin="round"/>
<path d="M286.1 143L279.2 141.8L277.7 150.2L276.2 158.6L282.7 159.8" stroke="#3D3C3C" stroke-width="4" stroke-linecap="round" stroke-linejoin="round"/>
<path d="M284.6 151.5L277.7 150.3" stroke="#3D3C3C" stroke-width="4" stroke-linecap="round" stroke-linejoin="round"/>
<g opacity="0.5">
<path opacity="0.5" d="M312 210C309.8 209.4 314.6 205.5 310.4 203.7C306.2 201.9 296.1 195.3 300.2 182.9C304.3 170.5 316 166.9 327.6 170.7C339.2 174.5 345.8 187.3 339.3 197.7C332.8 208.1 317.4 211.6 312 210Z" stroke="#3D3C3C" stroke-width="5"/>
<path opacity="0.5" d="M314.401 181.2C313.64 182.022 313.091 183.018 312.801 184.1C312.501 185.3 313.401 186.8 314.101 187.9C316.19 191.344 319.252 194.093 322.901 195.8C323.421 196.083 324.008 196.222 324.601 196.2C326.201 196.6 328.301 193.8 328.301 192.9C328.301 192 325.501 190.6 325.201 190.4C325.043 190.315 324.863 190.28 324.685 190.297C324.507 190.315 324.338 190.386 324.201 190.5L324.001 190.7C323.68 191.083 323.247 191.357 322.763 191.482C322.279 191.608 321.767 191.579 321.301 191.4C320.418 191.056 319.63 190.507 319.001 189.8C318.417 189.262 317.941 188.617 317.601 187.9C317.438 187.513 317.371 187.093 317.406 186.675C317.441 186.257 317.576 185.854 317.801 185.5C318.201 185.1 318.801 184.7 318.901 184.1C318.813 183.544 318.57 183.024 318.201 182.6C317.601 181.8 317.401 181.2 316.601 180.9" stroke="#3D3C3C" stroke-width="4" stroke-linecap="round" stroke-linejoin="round"/>
</g>
</g>
<defs>
<clipPath id="clip0_172_755">
<rect width="266.3" height="124.6" fill="white" transform="translate(78 118)"/>
</clipPath>
</defs>
</svg>
