<svg width="422" height="360" viewBox="0 0 422 360" fill="none" xmlns="http://www.w3.org/2000/svg">
<g clip-path="url(#clip0_172_754)">
<path d="M97.5215 125.835L97.5605 127.476C97.5605 131.265 97.3717 133.986 96.9941 135.64C96.5254 137.645 95.9785 138.647 95.3535 138.647C94.7676 138.647 94.4746 138.368 94.4746 137.808C94.4746 137.638 94.5462 137.384 94.6895 137.046C95.1712 135.861 95.5033 134.578 95.6855 133.198C95.8548 131.883 95.9395 129.787 95.9395 126.909L95.9004 123.843C95.8874 123.244 96.0436 122.795 96.3691 122.495C96.7077 122.183 97.196 122.026 97.834 122.026H109.709C110.256 122.026 110.66 122.15 110.92 122.397C111.193 122.632 111.33 123.009 111.33 123.53V124.331C111.33 125.399 110.79 125.9 109.709 125.835H97.5215ZM97.502 124.116L97.5215 124.604H109.162C109.357 124.604 109.501 124.552 109.592 124.448C109.683 124.344 109.729 124.162 109.729 123.901C109.729 123.498 109.54 123.296 109.162 123.296H98.3418C97.7819 123.296 97.502 123.504 97.502 123.921V124.116ZM111.33 126.87C111.76 126.87 111.975 127.059 111.975 127.437C111.975 127.814 111.76 128.003 111.33 128.003H103.576C102.834 128.953 102.307 129.429 101.994 129.429C101.551 129.429 101.33 129.207 101.33 128.765C101.33 128.582 101.441 128.381 101.662 128.159C102.066 127.756 102.469 127.28 102.873 126.733C103.264 126.2 103.602 125.933 103.889 125.933C104.357 125.933 104.592 126.095 104.592 126.421C104.592 126.499 104.527 126.649 104.396 126.87H111.33ZM100.686 126.011C101.141 126.011 101.369 126.213 101.369 126.616C101.369 126.864 100.972 127.417 100.178 128.276C99.3965 129.11 98.8301 129.526 98.4785 129.526C98.0488 129.526 97.834 129.299 97.834 128.843C97.834 128.621 98.0098 128.368 98.3613 128.081C98.5566 127.912 99.1686 127.306 100.197 126.265C100.354 126.095 100.516 126.011 100.686 126.011ZM112.17 137.925C112.274 138.016 112.326 138.185 112.326 138.433C112.326 138.901 112.092 139.136 111.623 139.136C110.803 139.136 109.683 138.908 108.264 138.452C107.73 138.27 107.268 138.088 106.877 137.905C106.317 138.179 105.412 138.472 104.162 138.784C103.068 139.058 102.3 139.194 101.857 139.194C101.389 139.194 101.154 138.966 101.154 138.511C101.154 138.263 101.239 138.094 101.408 138.003C101.499 137.964 101.981 137.886 102.854 137.769C103.622 137.664 104.514 137.45 105.529 137.124C104.722 136.538 104.143 135.959 103.791 135.386C102.84 136.154 102.196 136.538 101.857 136.538C101.467 136.538 101.271 136.323 101.271 135.894C101.271 135.633 101.434 135.425 101.76 135.269C102.84 134.709 103.687 134.071 104.299 133.354C103.4 133.315 102.945 132.879 102.932 132.046V130.132C102.932 129.194 103.394 128.726 104.318 128.726H109.533C110.484 128.726 110.959 129.181 110.959 130.093V131.948C110.959 132.417 110.835 132.769 110.588 133.003C110.354 133.237 110.002 133.354 109.533 133.354H105.686L105.158 134.058H109.846C110.575 134.058 110.939 134.312 110.939 134.819C110.939 135.301 110.1 136.063 108.42 137.104C109.383 137.378 110.23 137.554 110.959 137.632C111.623 137.71 112.027 137.808 112.17 137.925ZM100.959 129.487C101.441 129.487 101.682 129.702 101.682 130.132C101.682 130.405 101.343 130.965 100.666 131.812V138.335C100.666 138.869 100.438 139.136 99.9824 139.136C99.5267 139.136 99.2988 138.869 99.2988 138.335V133.491C98.8171 134.051 98.459 134.331 98.2246 134.331C97.847 134.331 97.6582 134.084 97.6582 133.589C97.6582 133.368 97.8535 133.049 98.2441 132.632C98.9733 131.864 99.6374 131.011 100.236 130.073C100.497 129.683 100.738 129.487 100.959 129.487ZM104.26 130.562H109.533V130.171C109.533 129.871 109.383 129.715 109.084 129.702H104.729C104.559 129.702 104.442 129.741 104.377 129.819C104.312 129.884 104.273 130.002 104.26 130.171V130.562ZM104.26 131.909C104.26 132.065 104.292 132.176 104.357 132.241C104.436 132.306 104.559 132.345 104.729 132.358H109.084C109.383 132.358 109.533 132.209 109.533 131.909V131.499H104.26V131.909ZM108.654 135.562C108.902 135.431 109.025 135.321 109.025 135.229C109.025 135.151 108.967 135.112 108.85 135.112H105.002C105.38 135.646 106.011 136.128 106.896 136.558L108.654 135.562ZM117.502 126.519C117.502 130.737 117.3 133.758 116.896 135.581C116.688 136.532 116.447 137.248 116.174 137.729C115.913 138.224 115.633 138.472 115.334 138.472C114.761 138.472 114.475 138.192 114.475 137.632C114.475 137.476 114.572 137.17 114.768 136.714C115.51 134.995 115.881 131.701 115.881 126.831C115.881 126.193 115.874 125.711 115.861 125.386L115.842 123.96C115.842 122.814 116.434 122.241 117.619 122.241H131.271C131.91 122.241 132.229 122.489 132.229 122.983C132.229 123.478 131.91 123.726 131.271 123.726H118.146C117.717 123.726 117.502 123.94 117.502 124.37V126.519ZM128.01 132.222C127.567 132.222 127.346 131.955 127.346 131.421V129.097C127.137 129.487 126.975 129.767 126.857 129.937C126.506 130.431 126.122 130.848 125.705 131.187C125.484 131.369 125.275 131.46 125.08 131.46C124.885 131.46 124.722 131.375 124.592 131.206C124.475 131.063 124.416 130.92 124.416 130.776C124.416 130.555 124.54 130.353 124.787 130.171C125.113 129.937 125.445 129.65 125.783 129.312C126.122 128.96 126.421 128.602 126.682 128.237H125.334C124.839 128.237 124.592 128.022 124.592 127.593C124.592 127.163 124.839 126.948 125.334 126.948H127.346V125.835C126.721 125.913 126.258 125.965 125.959 125.991C125.49 126.043 125.217 125.887 125.139 125.522C125.1 125.34 125.139 125.19 125.256 125.073C125.373 124.943 125.562 124.865 125.822 124.839C127.567 124.618 128.85 124.39 129.67 124.155C129.787 124.116 129.904 124.097 130.021 124.097C130.334 124.097 130.562 124.227 130.705 124.487C130.757 124.591 130.783 124.696 130.783 124.8C130.783 125.034 130.607 125.21 130.256 125.327C130.074 125.392 129.715 125.457 129.182 125.522L128.674 125.601V126.948H131.057C131.551 126.948 131.799 127.163 131.799 127.593C131.799 128.022 131.551 128.237 131.057 128.237H129.318C129.891 129.071 130.712 129.813 131.779 130.464C132.079 130.646 132.229 130.861 132.229 131.108C132.229 131.239 132.196 131.362 132.131 131.479C132.053 131.623 131.949 131.733 131.818 131.812C131.701 131.89 131.577 131.929 131.447 131.929C131.252 131.929 131.076 131.857 130.92 131.714C130.021 130.985 129.273 130.073 128.674 128.979V131.421C128.674 131.955 128.452 132.222 128.01 132.222ZM121.76 128.237V128.901L121.818 128.804C121.91 128.687 122.02 128.628 122.15 128.628C122.307 128.628 122.45 128.687 122.58 128.804C122.71 128.908 122.906 129.077 123.166 129.312C123.465 129.572 123.609 129.696 123.596 129.683C123.856 129.904 123.986 130.106 123.986 130.288C123.986 130.431 123.915 130.568 123.771 130.698C123.628 130.841 123.472 130.913 123.303 130.913C123.107 130.913 122.925 130.809 122.756 130.601L122.385 130.171C122.124 129.884 121.955 129.683 121.877 129.565C121.812 129.487 121.773 129.422 121.76 129.37V131.675C121.76 132.17 121.538 132.417 121.096 132.417C120.653 132.417 120.432 132.17 120.432 131.675V129.37C120.288 129.709 120.113 130.008 119.904 130.269C119.657 130.633 119.351 130.972 118.986 131.284C118.765 131.479 118.55 131.577 118.342 131.577C118.12 131.577 117.951 131.479 117.834 131.284C117.756 131.167 117.717 131.043 117.717 130.913C117.717 130.679 117.847 130.457 118.107 130.249C118.915 129.624 119.553 128.953 120.021 128.237H118.674C118.179 128.237 117.932 128.022 117.932 127.593C117.932 127.163 118.179 126.948 118.674 126.948H120.432V125.815C119.833 125.92 119.383 125.972 119.084 125.972C118.68 125.972 118.439 125.809 118.361 125.483C118.322 125.314 118.361 125.171 118.479 125.054C118.596 124.924 118.785 124.845 119.045 124.819C120.438 124.663 121.597 124.468 122.521 124.233C122.6 124.207 122.717 124.194 122.873 124.194C123.186 124.194 123.407 124.318 123.537 124.565C123.589 124.67 123.615 124.774 123.615 124.878C123.615 125.086 123.439 125.249 123.088 125.366C122.788 125.457 122.346 125.549 121.76 125.64V126.948H123.381C123.876 126.948 124.123 127.163 124.123 127.593C124.123 128.022 123.876 128.237 123.381 128.237H121.76ZM131.389 137.339C131.975 137.339 132.268 137.58 132.268 138.062C132.268 138.53 131.975 138.765 131.389 138.765H117.58C116.994 138.765 116.701 138.524 116.701 138.042C116.701 137.573 116.994 137.339 117.58 137.339H119.943V134.097C119.943 133.55 120.197 133.276 120.705 133.276C121.213 133.276 121.467 133.55 121.467 134.097V137.339H124.279V132.749C124.279 132.306 124.533 132.085 125.041 132.085C125.549 132.085 125.803 132.306 125.803 132.749V134.019H129.787C130.308 134.019 130.568 134.253 130.568 134.722C130.568 135.19 130.308 135.425 129.787 135.425H125.803V137.339H131.389ZM151.545 130.757C152.04 130.965 152.287 131.239 152.287 131.577C152.287 132.15 152.04 132.437 151.545 132.437C150.985 132.437 150.275 132.033 149.416 131.226C148.518 130.379 147.827 129.364 147.346 128.179H147.268C146.786 129.52 145.946 130.581 144.748 131.362C143.485 132.183 142.515 132.593 141.838 132.593C141.356 132.593 141.115 132.345 141.115 131.851C141.115 131.499 141.382 131.245 141.916 131.089C144.872 130.19 146.441 128.153 146.623 124.976H145.373C144.683 126.239 144.175 126.87 143.85 126.87C143.394 126.87 143.166 126.623 143.166 126.128C143.166 125.972 143.264 125.757 143.459 125.483C144.175 124.468 144.742 123.387 145.158 122.241C145.262 121.942 145.38 121.727 145.51 121.597C145.653 121.453 145.816 121.382 145.998 121.382C146.48 121.382 146.721 121.584 146.721 121.987C146.721 122.235 146.499 122.782 146.057 123.628H150.646C151.597 123.628 152.072 123.947 152.072 124.585C152.072 124.793 151.753 125.522 151.115 126.772C150.764 127.45 150.425 127.788 150.1 127.788C149.605 127.788 149.357 127.573 149.357 127.144C149.357 126.987 149.514 126.662 149.826 126.167C150.152 125.646 150.314 125.314 150.314 125.171C150.314 125.041 150.23 124.976 150.061 124.976H147.893L147.736 126.362C148.505 128.537 149.774 130.002 151.545 130.757ZM135.881 123.628C135.321 123.628 135.041 123.394 135.041 122.925C135.041 122.456 135.321 122.222 135.881 122.222H139.572C140.119 122.222 140.393 122.456 140.393 122.925C140.393 123.394 140.119 123.628 139.572 123.628H135.881ZM141.74 124.194C141.285 123.7 141.037 123.4 140.998 123.296C140.959 123.218 140.939 123.146 140.939 123.081C140.939 122.625 141.187 122.397 141.682 122.397C141.877 122.397 142.235 122.638 142.756 123.12C143.238 123.563 143.479 123.934 143.479 124.233C143.479 124.715 143.238 124.956 142.756 124.956C142.535 124.956 142.196 124.702 141.74 124.194ZM135.295 126.265C134.748 126.265 134.475 126.03 134.475 125.562C134.475 125.093 134.748 124.858 135.295 124.858H140.217C140.764 124.858 141.037 125.093 141.037 125.562C141.037 126.03 140.764 126.265 140.217 126.265H135.295ZM142.619 129.331C141.994 130.151 141.525 130.562 141.213 130.562C140.718 130.562 140.471 130.301 140.471 129.78C140.471 129.637 140.692 129.305 141.135 128.784L141.896 127.866C142.365 127.293 142.73 127.007 142.99 127.007C143.446 127.007 143.674 127.209 143.674 127.612C143.674 127.821 143.322 128.394 142.619 129.331ZM139.475 127.456C140.021 127.456 140.295 127.684 140.295 128.14C140.295 128.608 140.021 128.843 139.475 128.843H135.92C135.386 128.843 135.119 128.608 135.119 128.14C135.119 127.684 135.386 127.456 135.92 127.456H139.475ZM139.475 130.054C140.021 130.054 140.295 130.288 140.295 130.757C140.295 131.213 140.021 131.44 139.475 131.44H135.92C135.386 131.44 135.119 131.206 135.119 130.737C135.119 130.282 135.386 130.054 135.92 130.054H139.475ZM149.475 132.358C150.035 132.358 150.445 132.489 150.705 132.749C150.965 132.996 151.083 133.4 151.057 133.96V136.968C151.057 137.528 150.926 137.938 150.666 138.198C150.419 138.459 150.021 138.576 149.475 138.55H143.986C143.413 138.55 142.997 138.42 142.736 138.159C142.476 137.912 142.359 137.515 142.385 136.968V133.96C142.385 133.374 142.508 132.951 142.756 132.69C143.016 132.43 143.426 132.319 143.986 132.358H149.475ZM138.693 132.632C139.279 132.632 139.702 132.756 139.963 133.003C140.236 133.25 140.354 133.654 140.314 134.214V136.831C140.314 137.404 140.184 137.821 139.924 138.081C139.663 138.341 139.253 138.459 138.693 138.433H136.721C136.135 138.433 135.705 138.302 135.432 138.042C135.171 137.795 135.067 137.391 135.119 136.831V134.214C135.015 133.055 135.549 132.528 136.721 132.632H138.693ZM149.611 134.526C149.611 134.019 149.357 133.765 148.85 133.765H144.592C144.084 133.765 143.83 134.019 143.83 134.526V136.401C143.83 136.909 144.084 137.163 144.592 137.163H148.85C149.357 137.163 149.611 136.909 149.611 136.401V134.526ZM138.947 134.39C138.947 134.22 138.915 134.11 138.85 134.058C138.785 133.993 138.667 133.96 138.498 133.96H136.916C136.747 133.96 136.63 133.993 136.564 134.058C136.512 134.11 136.486 134.22 136.486 134.39V136.655C136.486 136.825 136.512 136.942 136.564 137.007C136.63 137.072 136.747 137.104 136.916 137.104H138.498C138.667 137.104 138.785 137.072 138.85 137.007C138.915 136.942 138.947 136.825 138.947 136.655V134.39ZM169.846 124.116C171.135 124.116 171.779 124.709 171.779 125.894C171.779 126.258 171.766 126.805 171.74 127.534C171.714 128.029 171.701 128.407 171.701 128.667C171.675 129.865 171.649 130.789 171.623 131.44C171.467 134.526 171.226 136.584 170.9 137.612C170.588 138.589 169.501 139.077 167.639 139.077C166.949 139.077 166.604 138.797 166.604 138.237C166.604 137.69 166.988 137.417 167.756 137.417C168.251 137.417 168.648 137.345 168.947 137.202C169.26 137.059 169.462 136.818 169.553 136.479C169.709 135.933 169.839 134.839 169.943 133.198C170.061 131.545 170.171 129.259 170.275 126.343C170.288 126.095 170.217 125.913 170.061 125.796C169.917 125.666 169.709 125.601 169.436 125.601H163.459C162.443 127.697 161.701 128.745 161.232 128.745C160.79 128.745 160.568 128.504 160.568 128.022C160.568 127.944 160.594 127.86 160.646 127.769C160.699 127.664 160.764 127.554 160.842 127.437C161.753 126.16 162.515 124.39 163.127 122.124C163.257 121.642 163.531 121.401 163.947 121.401C164.481 121.401 164.748 121.636 164.748 122.104C164.748 122.326 164.676 122.612 164.533 122.964L164.123 124.116H169.846ZM156.018 123.667C155.432 123.667 155.139 123.42 155.139 122.925C155.139 122.43 155.432 122.183 156.018 122.183H159.885C160.484 122.183 160.783 122.43 160.783 122.925C160.783 123.42 160.484 123.667 159.885 123.667H156.018ZM155.295 126.304C154.722 126.304 154.436 126.056 154.436 125.562C154.436 125.067 154.722 124.819 155.295 124.819H160.471C161.07 124.819 161.369 125.067 161.369 125.562C161.369 126.056 161.07 126.304 160.471 126.304H155.295ZM159.65 127.417C160.223 127.417 160.51 127.658 160.51 128.14C160.51 128.621 160.223 128.862 159.65 128.862H156.037C155.477 128.862 155.197 128.615 155.197 128.12C155.197 127.651 155.477 127.417 156.037 127.417H159.65ZM168.322 134.409C168.322 134.982 168.192 135.399 167.932 135.659C167.671 135.92 167.261 136.037 166.701 136.011H163.732C163.16 136.011 162.743 135.887 162.482 135.64C162.222 135.379 162.105 134.969 162.131 134.409V129.058C162.131 128.485 162.261 128.068 162.521 127.808C162.782 127.547 163.186 127.43 163.732 127.456H166.701C167.287 127.456 167.71 127.586 167.971 127.847C168.231 128.094 168.348 128.498 168.322 129.058V134.409ZM163.557 130.991H166.857V129.429C166.857 129.051 166.656 128.849 166.252 128.823H164.162C163.771 128.823 163.57 129.025 163.557 129.429V130.991ZM159.787 130.034C160.36 130.034 160.646 130.282 160.646 130.776C160.646 131.245 160.36 131.479 159.787 131.479H156.037C155.477 131.479 155.197 131.245 155.197 130.776C155.197 130.282 155.477 130.034 156.037 130.034H159.787ZM166.252 134.663C166.63 134.663 166.831 134.455 166.857 134.038V132.319H163.557V134.038C163.557 134.429 163.758 134.637 164.162 134.663H166.252ZM159.045 132.612C160.113 132.612 160.646 133.14 160.646 134.194V136.851C160.646 137.918 160.113 138.452 159.045 138.452H156.857C156.337 138.452 155.939 138.315 155.666 138.042C155.393 137.782 155.256 137.397 155.256 136.89V134.194C155.256 133.14 155.79 132.612 156.857 132.612H159.045ZM159.201 134.448C159.201 134.136 159.045 133.979 158.732 133.979H157.17C156.87 133.979 156.708 134.136 156.682 134.448V136.597C156.682 136.922 156.844 137.085 157.17 137.085H158.732C159.019 137.085 159.175 136.922 159.201 136.597V134.448Z" fill="#3D3C3C"/>
<path d="M92.0996 167.1H146.3" stroke="#3D3C3C" stroke-width="5" stroke-linecap="round"/>
<path d="M159 167.1H172.1" stroke="#3D3C3C" stroke-width="5" stroke-linecap="round"/>
<path d="M92.0996 181H172.1" stroke="#3D3C3C" stroke-width="5" stroke-linecap="round"/>
<path d="M92.0996 194.8H134.4" stroke="#3D3C3C" stroke-width="5" stroke-linecap="round"/>
<path opacity="0.5" d="M144.1 224.9H122.8C119.099 224.9 116.1 227.893 116.1 231.585C116.1 235.277 119.099 238.27 122.8 238.27H144.1C147.8 238.27 150.8 235.277 150.8 231.585C150.8 227.893 147.8 224.9 144.1 224.9Z" fill="#3D3C3C"/>
<path d="M255.674 124.683L254.709 127.021H261.407C262.075 127.021 262.558 127.169 262.854 127.466C263.164 127.75 263.294 128.214 263.244 128.857V136.799C263.244 137.467 263.096 137.949 262.799 138.246C262.514 138.555 262.05 138.685 261.407 138.636H249.773C249.118 138.636 248.642 138.493 248.345 138.209C248.048 137.924 247.912 137.454 247.937 136.799V128.857C247.937 128.202 248.079 127.719 248.363 127.41C248.66 127.101 249.13 126.971 249.773 127.021H253.058L253.855 124.683H248.029C247.448 124.683 247.157 124.441 247.157 123.959C247.157 123.477 247.448 123.235 248.029 123.235H263.151C263.745 123.235 264.042 123.477 264.042 123.959C264.042 124.441 263.745 124.683 263.151 124.683H255.674ZM252.186 128.412H250.274C250.002 128.412 249.804 128.48 249.681 128.616C249.557 128.74 249.495 128.932 249.495 129.191V136.465C249.495 136.737 249.557 136.935 249.681 137.059C249.804 137.182 250.002 137.244 250.274 137.244H252.186V128.412ZM257.288 128.412H253.67V130.323H257.288V128.412ZM258.754 137.244H260.925C261.185 137.244 261.376 137.182 261.5 137.059C261.624 136.923 261.686 136.725 261.686 136.465V129.173C261.686 128.666 261.432 128.412 260.925 128.412H258.754V137.244ZM257.288 133.7V131.659H253.67V133.7H257.288ZM257.288 137.244V135.018H253.67V137.244H257.288ZM282.355 134.257C282.826 134.257 283.061 134.504 283.061 134.999C283.061 136.063 282.912 136.984 282.615 137.764C282.479 138.135 282.306 138.413 282.096 138.599C281.885 138.797 281.657 138.896 281.409 138.896C280.951 138.896 280.512 138.63 280.092 138.098C279.671 137.578 279.288 136.805 278.941 135.778C278.286 133.824 277.896 131.041 277.772 127.429V127.188H273.078C272.781 127.188 272.565 127.132 272.429 127.021C272.293 126.897 272.225 126.711 272.225 126.464C272.225 126.229 272.293 126.056 272.429 125.944C272.565 125.833 272.781 125.777 273.078 125.777H277.735L277.717 123.755C277.704 123.52 277.698 123.254 277.698 122.957C277.698 122.438 277.952 122.178 278.459 122.178C278.917 122.178 279.146 122.369 279.146 122.753L279.201 125.777H282.096C282.405 125.777 282.628 125.833 282.764 125.944C282.912 126.056 282.986 126.235 282.986 126.482C282.986 126.73 282.912 126.909 282.764 127.021C282.628 127.132 282.405 127.188 282.096 127.188H279.22C279.232 127.398 279.238 127.639 279.238 127.911C279.288 130.237 279.566 132.346 280.073 134.238C280.556 136.081 280.964 137.003 281.298 137.003C281.521 137.003 281.669 136.323 281.743 134.962C281.756 134.715 281.811 134.535 281.91 134.424C282.009 134.312 282.158 134.257 282.355 134.257ZM281.632 125.313C281.397 125.313 281.05 124.992 280.593 124.349C280.172 123.755 279.962 123.421 279.962 123.347C279.962 123.136 280.011 122.988 280.11 122.901C280.222 122.802 280.395 122.753 280.63 122.753C280.865 122.753 281.205 123.019 281.65 123.551C282.108 124.107 282.337 124.479 282.337 124.664C282.337 125.097 282.102 125.313 281.632 125.313ZM267.456 124.33C266.912 124.33 266.64 124.101 266.64 123.644C266.64 123.186 266.912 122.957 267.456 122.957H270.963C271.495 122.957 271.761 123.186 271.761 123.644C271.761 124.101 271.495 124.33 270.963 124.33H267.456ZM271.093 125.462C271.649 125.462 271.928 125.691 271.928 126.148C271.928 126.606 271.649 126.835 271.093 126.835H266.899C266.368 126.835 266.102 126.606 266.102 126.148C266.102 125.691 266.368 125.462 266.899 125.462H271.093ZM267.53 129.266C267.011 129.266 266.751 129.037 266.751 128.579C266.751 128.146 267.011 127.93 267.53 127.93H270.87C271.118 127.93 271.309 127.985 271.445 128.097C271.581 128.208 271.649 128.369 271.649 128.579C271.649 129.037 271.39 129.266 270.87 129.266H267.53ZM277.29 135.259C277.513 135.259 277.674 135.314 277.772 135.426C277.884 135.537 277.939 135.723 277.939 135.982C277.939 136.217 277.828 136.397 277.605 136.521C277.482 136.595 276.69 136.836 275.23 137.244C273.845 137.64 273.016 137.838 272.744 137.838C272.299 137.838 272.076 137.584 272.076 137.077C272.076 136.694 272.231 136.465 272.54 136.391L274.08 136.02V130.731H273.078C272.521 130.731 272.243 130.503 272.243 130.045C272.243 129.798 272.311 129.618 272.447 129.507C272.583 129.396 272.794 129.34 273.078 129.34H276.715C276.999 129.34 277.21 129.396 277.346 129.507C277.482 129.618 277.55 129.798 277.55 130.045C277.55 130.503 277.271 130.731 276.715 130.731H275.564V135.667L277.29 135.259ZM267.53 131.752C267.011 131.752 266.751 131.529 266.751 131.084C266.751 130.639 267.011 130.416 267.53 130.416H270.87C271.39 130.416 271.649 130.645 271.649 131.103C271.649 131.313 271.581 131.474 271.445 131.585C271.309 131.696 271.118 131.752 270.87 131.752H267.53ZM270.146 132.865C270.703 132.865 271.105 132.983 271.353 133.218C271.612 133.453 271.724 133.836 271.687 134.368V136.854C271.687 137.399 271.563 137.795 271.315 138.042C271.068 138.289 270.678 138.401 270.146 138.376H268.291C267.734 138.376 267.326 138.252 267.066 138.005C266.819 137.77 266.72 137.386 266.77 136.854V134.368C266.671 133.292 267.178 132.791 268.291 132.865H270.146ZM269.924 137.114C270.085 137.114 270.196 137.083 270.258 137.021C270.332 136.96 270.363 136.848 270.351 136.688V134.535C270.351 134.374 270.32 134.263 270.258 134.201C270.196 134.139 270.085 134.115 269.924 134.127H268.514C268.353 134.127 268.242 134.158 268.18 134.22C268.118 134.269 268.087 134.374 268.087 134.535V136.688C268.087 136.848 268.118 136.966 268.18 137.04C268.242 137.102 268.353 137.127 268.514 137.114H269.924ZM290.835 132.847C290.724 132.847 290.606 132.791 290.482 132.68C290.371 132.568 290.235 132.364 290.074 132.067L289.555 131.103L289.258 130.472V138.376C289.258 138.871 289.017 139.118 288.534 139.118C288.064 139.118 287.829 138.871 287.829 138.376V130.212C287.52 131.523 287.174 132.581 286.79 133.385C286.419 134.189 286.085 134.591 285.788 134.591C285.343 134.591 285.12 134.337 285.12 133.83C285.12 133.657 285.213 133.422 285.398 133.125C286.462 131.492 287.211 129.587 287.644 127.41H286.085C285.504 127.41 285.213 127.169 285.213 126.687C285.213 126.216 285.504 125.981 286.085 125.981H287.829V122.938C287.829 122.431 288.07 122.178 288.553 122.178C289.023 122.178 289.258 122.431 289.258 122.938V125.981H290.594C291.175 125.981 291.466 126.216 291.466 126.687C291.466 127.169 291.175 127.41 290.594 127.41H289.258V129.507C289.357 129.42 289.48 129.377 289.629 129.377C289.728 129.377 289.858 129.482 290.019 129.692C290.179 129.903 290.402 130.237 290.687 130.694C291.194 131.486 291.447 132.006 291.447 132.253C291.447 132.438 291.392 132.587 291.28 132.698C291.169 132.797 291.021 132.847 290.835 132.847ZM291.373 125.184C290.903 125.184 290.668 124.973 290.668 124.553C290.668 124.12 290.903 123.903 291.373 123.903H293.544V122.827C293.544 122.394 293.773 122.178 294.23 122.178C294.688 122.178 294.917 122.394 294.917 122.827V123.903H297.626V122.846C297.626 122.4 297.867 122.178 298.35 122.178C298.82 122.178 299.055 122.4 299.055 122.846V123.903H301.17C301.652 123.903 301.894 124.12 301.894 124.553C301.894 124.973 301.652 125.184 301.17 125.184H299.055V125.926C299.055 126.346 298.813 126.557 298.331 126.557C297.861 126.557 297.626 126.346 297.626 125.926V125.184H294.917V125.944C294.917 126.353 294.682 126.557 294.212 126.557C293.767 126.557 293.544 126.353 293.544 125.944V125.184H291.373ZM301.411 137.43C301.856 137.541 302.079 137.795 302.079 138.19C302.079 138.698 301.832 138.951 301.337 138.951C300.669 138.951 299.797 138.636 298.721 138.005C297.57 137.337 296.692 136.558 296.086 135.667C295.653 136.508 295.065 137.195 294.323 137.727C293.581 138.258 292.647 138.66 291.521 138.933L291.058 138.988C290.6 139.038 290.371 138.803 290.371 138.283C290.371 138.11 290.439 137.962 290.575 137.838C290.724 137.727 290.952 137.634 291.262 137.56C292.264 137.325 293.08 136.991 293.711 136.558C294.342 136.112 294.775 135.58 295.01 134.962H291.058C290.81 134.962 290.631 134.912 290.52 134.813C290.408 134.702 290.353 134.541 290.353 134.331C290.353 133.923 290.588 133.719 291.058 133.719H295.325L295.437 132.531H293.21C292.629 132.531 292.202 132.401 291.93 132.142C291.67 131.882 291.565 131.48 291.614 130.936V128.486C291.515 127.385 292.047 126.854 293.21 126.891H299.352C299.945 126.891 300.372 127.021 300.632 127.28C300.904 127.54 301.015 127.942 300.966 128.486V130.936C301.015 131.48 300.904 131.882 300.632 132.142C300.372 132.401 299.945 132.531 299.352 132.531H296.791L296.68 133.719H301.263C301.733 133.719 301.968 133.923 301.968 134.331C301.968 134.541 301.912 134.702 301.801 134.813C301.689 134.912 301.51 134.962 301.263 134.962H296.865C297.83 136.112 299.345 136.935 301.411 137.43ZM293.062 129.154H299.537V128.598C299.537 128.424 299.488 128.288 299.389 128.189C299.29 128.09 299.154 128.041 298.98 128.041H293.618C293.445 128.041 293.309 128.09 293.21 128.189C293.111 128.288 293.062 128.424 293.062 128.598V129.154ZM293.062 130.824C293.062 130.997 293.111 131.133 293.21 131.232C293.309 131.331 293.445 131.381 293.618 131.381H298.98C299.154 131.381 299.29 131.331 299.389 131.232C299.488 131.133 299.537 130.997 299.537 130.824V130.23H293.062V130.824ZM305.066 138.988C304.609 138.988 304.38 138.741 304.38 138.246C304.38 137.764 304.609 137.522 305.066 137.522H305.623C305.969 137.522 306.155 137.325 306.18 136.929V132.346L305.809 132.513C305.734 132.55 305.555 132.63 305.271 132.754C304.998 132.878 304.831 132.939 304.77 132.939C304.337 132.939 304.12 132.68 304.12 132.16C304.12 131.913 304.194 131.715 304.343 131.566L306.18 130.861V127.188H304.881C304.423 127.188 304.194 126.952 304.194 126.482C304.194 126.025 304.423 125.796 304.881 125.796H306.18V122.901C306.18 122.419 306.409 122.178 306.866 122.178C307.324 122.178 307.553 122.419 307.553 122.901V125.796H308.313C308.771 125.796 309 126.025 309 126.482C309 126.952 308.771 127.188 308.313 127.188H307.553V130.286C307.998 130.063 308.295 129.952 308.443 129.952C308.814 129.952 309 130.156 309 130.564C309 130.861 308.518 131.245 307.553 131.715V137.244C307.553 137.863 307.417 138.314 307.145 138.599C306.885 138.883 306.458 139.013 305.864 138.988H305.066ZM311.022 128.394C309.934 128.394 309.39 127.985 309.39 127.169V123.031C309.39 122.536 309.6 122.289 310.021 122.289C310.453 122.289 310.67 122.536 310.67 123.031V124.404C311.363 124.058 311.95 123.724 312.433 123.402C312.643 123.266 312.81 123.198 312.934 123.198C313.379 123.198 313.602 123.415 313.602 123.848C313.602 124.268 312.624 124.85 310.67 125.592V126.742C310.67 127.064 310.992 127.225 311.635 127.225C312.29 127.225 312.674 127.163 312.785 127.039C312.884 126.94 312.965 126.656 313.026 126.186C313.063 125.864 313.261 125.703 313.62 125.703C314.041 125.703 314.251 125.926 314.251 126.371C314.251 126.878 314.133 127.348 313.898 127.781C313.676 128.189 313.144 128.394 312.303 128.394H311.022ZM318.073 128.134C317.9 128.134 317.634 127.973 317.275 127.651C316.632 127.07 316.038 126.637 315.494 126.353C315.185 126.192 315.03 126 315.03 125.777C315.03 125.394 315.222 125.202 315.605 125.202C315.754 125.202 316.261 125.474 317.127 126.019L318.37 124.794C318.568 124.608 318.667 124.479 318.667 124.404C318.667 124.293 318.593 124.237 318.444 124.237H314.752C314.294 124.237 314.065 124.033 314.065 123.625C314.065 123.229 314.294 123.031 314.752 123.031H319.409C320.139 123.031 320.504 123.279 320.504 123.773C320.504 124.182 319.712 125.103 318.129 126.538L318.036 126.631C318.543 127.014 318.797 127.311 318.797 127.521C318.797 127.93 318.556 128.134 318.073 128.134ZM313.323 138.691C312.903 138.691 312.692 138.481 312.692 138.061C312.692 137.875 312.816 137.659 313.063 137.411C314.004 136.508 314.474 134.634 314.474 131.789C314.474 131.146 314.684 130.824 315.104 130.824C315.513 130.824 315.717 131.028 315.717 131.437C315.717 132.488 315.618 133.57 315.42 134.684C315.754 135.463 316.187 136.069 316.719 136.502V129.47H314.492C314.035 129.47 313.806 129.259 313.806 128.839C313.806 128.418 314.035 128.208 314.492 128.208H319.78C320.547 128.208 320.931 128.48 320.931 129.024C320.931 129.284 320.733 129.828 320.337 130.657C319.916 131.548 319.558 131.993 319.261 131.993C318.853 131.993 318.648 131.82 318.648 131.474C318.648 131.313 318.815 130.936 319.149 130.342C319.248 130.169 319.316 130.02 319.354 129.896C319.403 129.773 319.434 129.692 319.446 129.655C319.446 129.532 319.372 129.47 319.224 129.47H317.98V132.939H319.817C320.275 132.939 320.504 133.156 320.504 133.589C320.504 133.997 320.275 134.201 319.817 134.201H317.98V137.021C318.253 137.046 318.463 137.071 318.611 137.096C319.032 137.145 319.347 137.17 319.558 137.17L319.966 137.151C320.052 137.139 320.182 137.133 320.355 137.133C320.603 137.133 320.782 137.188 320.894 137.3C321.017 137.411 321.079 137.59 321.079 137.838C321.079 138.345 320.819 138.599 320.3 138.599C318.964 138.599 317.906 138.432 317.127 138.098C316.36 137.776 315.68 137.127 315.086 136.149C314.888 136.867 314.616 137.461 314.27 137.931C313.898 138.438 313.583 138.691 313.323 138.691ZM308.87 138.487C308.425 138.487 308.202 138.258 308.202 137.801C308.202 137.689 308.264 137.566 308.388 137.43C308.524 137.294 308.722 137.12 308.981 136.91C309.81 136.279 310.354 135.296 310.614 133.96H309.13C308.697 133.96 308.48 133.756 308.48 133.348C308.48 132.927 308.697 132.717 309.13 132.717H310.763C310.812 132.123 310.849 131.535 310.874 130.954H310.28C310.107 131.362 309.952 131.665 309.816 131.863C309.68 132.049 309.55 132.142 309.427 132.142C309.216 132.142 309.056 132.098 308.944 132.012C308.833 131.925 308.777 131.801 308.777 131.641C308.777 131.48 308.876 131.201 309.074 130.806C309.235 130.472 309.421 130.008 309.631 129.414C309.804 128.882 310.021 128.616 310.28 128.616C310.713 128.616 310.93 128.777 310.93 129.099L310.744 129.767H313.193C313.651 129.767 313.88 129.965 313.88 130.36C313.88 130.756 313.651 130.954 313.193 130.954H312.08C312.08 131.35 312.074 131.641 312.062 131.826L312.024 132.717H313.416C313.923 132.717 314.177 132.933 314.177 133.366C314.177 133.762 313.929 133.96 313.435 133.96H311.876C311.839 134.356 311.765 134.715 311.653 135.036C311.777 134.95 311.913 134.906 312.062 134.906C312.235 134.906 312.507 135.092 312.878 135.463C313.274 135.846 313.472 136.131 313.472 136.316C313.472 136.749 313.261 136.966 312.841 136.966C312.717 136.966 312.519 136.817 312.247 136.521L311.969 136.205C311.833 136.044 311.746 135.951 311.709 135.927C311.585 135.815 311.505 135.729 311.468 135.667C311.27 136.224 310.88 136.848 310.299 137.541C309.755 138.172 309.278 138.487 308.87 138.487Z" fill="#3D3C3C"/>
<path d="M242.8 167.1H297" stroke="#3D3C3C" stroke-width="5" stroke-linecap="round"/>
<path d="M309.7 167.1H322.7" stroke="#3D3C3C" stroke-width="5" stroke-linecap="round"/>
<path d="M242.8 181H322.7" stroke="#3D3C3C" stroke-width="5" stroke-linecap="round"/>
<path d="M242.8 194.8H285.1" stroke="#3D3C3C" stroke-width="5" stroke-linecap="round"/>
<path opacity="0.5" d="M294.8 224.9H273.5C269.799 224.9 266.8 227.893 266.8 231.585C266.8 235.277 269.799 238.27 273.5 238.27H294.8C298.5 238.27 301.5 235.277 301.5 231.585C301.5 227.893 298.5 224.9 294.8 224.9Z" fill="#3D3C3C"/>
<path d="M208.3 225V255.4C208.326 257.58 208.781 259.733 209.64 261.738C210.498 263.742 211.743 265.557 213.303 267.08C214.863 268.603 216.708 269.803 218.732 270.613C220.756 271.423 222.92 271.826 225.1 271.8C270.5 270.9 306.6 270.5 354.5 272.5" stroke="#3D3C3C" stroke-width="5" stroke-linecap="round"/>
<path d="M65.5 88.3C105 90.1 158.9 88.3001 188.5 87.0001C191.266 86.877 194.028 87.321 196.616 88.3049C199.204 89.2887 201.564 90.7917 203.549 92.7212C205.535 94.6507 207.105 96.966 208.163 99.5248C209.221 102.084 209.744 104.832 209.7 107.6C209.5 117.6 209.3 176.3 209.1 190.6" stroke="#3D3C3C" stroke-width="5" stroke-linecap="round"/>
<path d="M347.3 260.6L359.2 269.9C359.529 270.064 359.781 270.352 359.9 270.7C360 271.2 359.5 271.7 359 272.1L343.6 284.3" stroke="#3D3C3C" stroke-width="5" stroke-linecap="round"/>
<path d="M73.5 75.5C69.3478 78.685 65.6473 82.4191 62.5 86.6L77.1 98.4" stroke="#3D3C3C" stroke-width="5" stroke-linecap="round"/>
</g>
<defs>
<clipPath id="clip0_172_754">
<rect width="303.3" height="213.8" fill="white" transform="translate(59 73)"/>
</clipPath>
</defs>
</svg>
