<svg width="422" height="360" viewBox="0 0 422 360" fill="none" xmlns="http://www.w3.org/2000/svg">
<g clip-path="url(#clip0_172_756)">
<path d="M220.3 140.3V134.7C220.3 130.961 218.814 127.374 216.17 124.73C213.526 122.086 209.94 120.6 206.2 120.6H174.8C171.06 120.6 167.474 122.086 164.83 124.73C162.186 127.374 160.7 130.961 160.7 134.7V140.3M175.6 140.3V133.2H205.4V140.3M134.5 149.8C132.666 149.8 130.85 150.163 129.157 150.868C127.464 151.572 125.928 152.605 124.636 153.907C123.344 155.208 122.322 156.752 121.629 158.45C120.937 160.148 120.587 161.966 120.6 163.8V235.5C120.6 239.213 122.075 242.774 124.7 245.4C127.326 248.025 130.887 249.5 134.6 249.5H247.3C250.801 249.5 254.158 248.109 256.634 245.634C259.109 243.158 260.5 239.801 260.5 236.3V163C260.5 159.499 259.109 156.142 256.634 153.666C254.158 151.191 250.801 149.8 247.3 149.8H134.5Z" stroke="#3D3C3C" stroke-width="5" stroke-linecap="round"/>
<path d="M218.8 191.7C220.3 186.2 220.3 179.3 215.7 176.2C211.1 173.1 204.7 175.5 200.8 179.5C196.9 183.5 194.5 188.4 192.1 193.4C189.637 189.101 186.72 185.078 183.4 181.4C181.1 178.9 178.5 176.4 175.2 175.8C169.5 174.7 164.1 179.6 162.3 185.1C161.239 188.362 161.066 191.849 161.8 195.2C163.3 201.8 168 207.1 173 211.6C177.461 215.529 182.244 219.075 187.3 222.2C188.888 223.391 190.741 224.18 192.7 224.5C197.8 225.1 205.6 215.3 208.6 211.7C213.395 205.842 216.873 199.021 218.8 191.7" stroke="#3D3C3C" stroke-width="5" stroke-linecap="round"/>
<g opacity="0.5">
<path opacity="0.5" d="M270.1 126.4L275.4 110.5" stroke="#3D3C3C" stroke-width="5" stroke-linecap="round"/>
<path opacity="0.5" d="M278.1 137.5L302 125.6" stroke="#3D3C3C" stroke-width="5" stroke-linecap="round"/>
<path opacity="0.5" d="M283.399 151.7H300.699" stroke="#3D3C3C" stroke-width="5" stroke-linecap="round"/>
</g>
</g>
<defs>
<clipPath id="clip0_172_756">
<rect width="186.5" height="144" fill="white" transform="translate(118 108)"/>
</clipPath>
</defs>
</svg>
