<svg width="1100" height="274" viewBox="0 0 1100 274" fill="none" xmlns="http://www.w3.org/2000/svg">
<path opacity="0.5" d="M-375 2.7832C-324.239 14.6807 -177.707 40.754 -239.424 66.533C-303.056 93.112 -140.025 88.8105 -31.1907 127.598C85.2328 169.091 -231.432 156.746 -168.043 205.908C-116.993 245.5 88.836 260.793 131.51 245.391C166.941 232.603 100.724 202.841 84.2081 229.65C69.9913 252.727 110.616 271.527 135.744 255.005C159.192 239.587 149.332 198.329 117.265 203.488C79.409 209.579 143.423 268.426 162.272 247.303C191.128 214.966 91.1712 228.091 117.287 255.013C141.523 279.996 210.623 272.631 256.183 249.485C305 224.683 386.462 205.517 405 237.681C415.362 255.659 382.13 256.688 369.5 245.391C360.288 237.151 360.215 219.766 405 210.378C511.185 188.118 871 341 1201.19 226.854" stroke="white" stroke-width="5" stroke-linecap="round"/>
</svg>
