<svg width="17" height="16" viewBox="0 0 17 16" fill="none" xmlns="http://www.w3.org/2000/svg">
<path d="M15.3512 4.80948C14.6163 3.12324 13.3235 1.74132 11.6898 0.895955C10.0562 0.0505915 8.18139 -0.206691 6.38042 0.167344C4.57945 0.541379 2.96212 1.52393 1.80021 2.94989C0.638302 4.37585 0.00263769 6.15829 4.02908e-05 7.99769C-0.000858741 8.26776 0.0132884 8.53767 0.0424159 8.80617C0.0713327 9.09512 0.116756 9.38218 0.178464 9.66595C0.289361 10.1873 0.452629 10.6962 0.665783 11.1848C1.40089 12.8727 2.69466 14.2562 4.32964 15.1026C5.96463 15.9491 7.84116 16.2069 9.64383 15.8327C9.91197 15.7781 10.177 15.7092 10.4378 15.6264C11.5043 15.2862 12.4876 14.7261 13.3243 13.9824C14.161 13.2387 14.8325 12.3278 15.2955 11.3085C15.7585 10.2893 16.0026 9.18433 16.0122 8.06492C16.0218 6.9455 15.7966 5.8365 15.3512 4.80948Z" fill="#E0D8C5"/>
<path d="M12.9806 10.5055C12.9349 10.0963 12.6059 9.80632 11.9982 9.55764C12.1496 9.45818 12.2941 9.34864 12.4309 9.22979C12.9026 8.82053 12.9282 8.38116 12.8669 8.08454C12.6974 7.27159 11.6648 6.57128 10.6277 6.05943C10.6199 4.83277 10.4682 3.82913 9.91955 3.35408C9.7761 3.23088 9.60556 3.14333 9.42185 3.09856C9.23813 3.0538 9.04643 3.05308 8.86239 3.09648C7.48184 3.35743 6.60087 3.87709 6.16931 4.68222C5.26269 4.57071 4.3505 4.59524 3.89775 5.0268C3.14726 5.73827 2.85509 6.41516 3.03352 7.03964C3.33238 8.08788 4.89804 8.66887 6.75811 9.12385C6.85178 9.33461 6.9488 9.54984 7.05251 9.76729C5.47569 9.72492 3.67138 9.47847 1.73995 9.1272C1.45893 9.07813 1.17568 9.02572 0.890203 8.96996C0.610301 8.91866 0.33263 8.85845 0.0449219 8.80603C0.0731024 9.09494 0.117781 9.38201 0.17874 9.66581C0.476112 9.72529 0.769767 9.78179 1.05971 9.83532C1.36303 9.89219 1.66188 9.94683 1.95851 10.0004C3.97581 10.3561 5.82919 10.5892 7.44838 10.597C7.52421 10.7553 7.60116 10.9159 7.68145 11.0754C8.18549 12.108 8.71407 13.1941 9.13114 14.2691C9.23262 14.529 9.3274 14.7877 9.41216 15.0497C9.49691 15.3118 9.57831 15.575 9.64522 15.8303C9.91294 15.7764 10.1776 15.7083 10.4381 15.6263C10.3704 15.3653 10.2928 15.1051 10.205 14.8457C10.1225 14.5892 10.0311 14.3338 9.93293 14.0773C9.49691 12.9321 8.94379 11.8002 8.41521 10.7196L8.34608 10.5769C8.79775 10.5547 9.24763 10.5048 9.69317 10.4275C9.72886 11.3006 9.88163 11.8771 10.2786 12.147C10.466 12.2741 10.7894 12.379 11.2533 12.1637C12.5301 11.5705 13.0464 11.0742 12.9806 10.5055ZM3.81858 6.81661C3.70706 6.43412 4.1074 5.95349 4.45979 5.61894C4.58022 5.50743 4.87462 5.44164 5.30172 5.44164C5.5044 5.44268 5.70688 5.45422 5.90836 5.47621C5.78681 6.25904 5.98977 7.17346 6.36669 8.17709C5.07535 7.82024 3.98028 7.38422 3.81858 6.81661ZM9.01405 3.89939C9.07642 3.87894 9.14295 3.87456 9.20747 3.88665C9.27199 3.89873 9.33241 3.92689 9.38316 3.96853C9.65749 4.21051 9.769 4.88072 9.80023 5.68697C9.19693 5.43718 8.68508 5.26767 8.46205 5.19965C8.17323 5.10932 7.65022 4.95655 7.04916 4.83054C7.40489 4.38559 8.05279 4.07781 9.01405 3.89939ZM7.95466 9.76841C7.88775 9.63013 7.82307 9.49073 7.75728 9.35246C8.08401 9.42383 8.41298 9.49297 8.74195 9.56099C8.89473 9.59333 9.06312 9.63013 9.23708 9.66581C8.81194 9.72471 8.38375 9.75897 7.95466 9.76841ZM9.74558 8.14364C9.72997 8.41908 9.71882 8.68337 9.70767 8.93316C9.45676 8.87963 9.18913 8.82165 8.90811 8.76366C8.41521 8.65995 7.87994 8.54844 7.3469 8.42242C6.88969 7.3307 6.60422 6.34937 6.72019 5.59553C7.22607 5.69533 7.72605 5.82303 8.21783 5.97802C8.75843 6.14588 9.28931 6.34357 9.80803 6.57017C9.79688 7.10544 9.769 7.65186 9.74558 8.14364ZM10.5596 8.18378C10.5808 7.77118 10.602 7.36303 10.6143 6.96827C11.4941 7.45336 12.0004 7.92618 12.064 8.25069C12.0762 8.30979 12.1008 8.43246 11.8945 8.61311C11.6016 8.86239 11.2726 9.0658 10.9187 9.21641C10.7894 9.18295 10.6533 9.1495 10.5139 9.11605C10.5284 8.81496 10.5429 8.50272 10.5596 8.18378ZM10.9087 11.4233C10.8564 11.4543 10.7966 11.4705 10.7358 11.4701C10.7358 11.4701 10.563 11.3586 10.5128 10.5245C10.5061 10.4308 10.5028 10.336 10.4994 10.2368C10.6622 10.1899 10.8206 10.1375 10.9722 10.0784C11.5845 10.2502 12.0696 10.4297 12.1655 10.597C12.1409 10.6583 11.9681 10.9315 10.9087 11.4233Z" fill="#3D3C3C"/>
</svg>
