<svg width="257" height="48" viewBox="0 0 257 48" fill="none" xmlns="http://www.w3.org/2000/svg">
<g clip-path="url(#clip0_357_8824)">
<path d="M178.128 17.328H168.48V15.216H178.128V17.328ZM176.88 34.992H171.744V36.24H169.44V26.592H176.88V34.992ZM169.488 19.008H176.976V21.072H169.488V19.008ZM169.488 22.752H176.976V24.864H169.488V22.752ZM172.8 14.88C172.464 13.5418 171.998 12.2397 171.408 10.992L173.664 10.464C174.257 11.6773 174.77 12.9279 175.2 14.208L172.8 14.88ZM171.744 28.752V32.832H174.672V28.752H171.744ZM183.792 21.408H178.08V19.296H183.792V21.408ZM183.12 14.88H178.704V12.816H183.12V14.88ZM180.528 25.968H192.864V36.528H190.272V35.472H183.024V36.672H180.528V25.968ZM189.744 15.456C189.62 16.2348 189.443 17.0045 189.216 17.76C189.687 19.0255 190.417 20.1787 191.359 21.1458C192.302 22.1129 193.436 22.8725 194.688 23.376C194.056 23.9407 193.521 24.6056 193.104 25.344C190.951 24.2874 189.223 22.5259 188.208 20.352C186.981 22.6926 184.954 24.515 182.496 25.488C182.146 24.8424 181.692 24.2587 181.152 23.76C185.52 21.984 186.768 18.72 187.296 15.456H186C185.463 16.7215 184.77 17.9148 183.936 19.008C183.315 18.5108 182.658 18.0615 181.968 17.664C183.456 15.888 184.56 13.152 185.184 10.416L187.488 10.896C187.296 11.712 187.056 12.576 186.816 13.344H192.576L192.912 13.248L194.544 13.584C194.064 15.36 193.488 17.328 193.008 18.576L191.04 18.144C191.28 17.424 191.568 16.464 191.808 15.456H189.744ZM183.024 28.272V33.168H190.272V28.272H183.024Z" fill="#3D3C3C"/>
<path d="M210.288 17.328H199.92V15.216H204.864C204.242 13.8772 203.536 12.5786 202.752 11.328L204.624 10.272C205.453 11.4197 206.176 12.6408 206.784 13.92L204.912 15.216H210.288V17.328ZM201.024 21.072V19.008H209.088V21.072H201.024ZM201.024 22.752H209.088V24.816H201.024V22.752ZM209.088 34.992H203.136V36.24H201.024V26.592H209.088V34.992ZM203.136 28.752V32.832H206.976V28.752H203.136ZM225.456 14.592C225.456 14.592 225.408 15.552 225.408 15.888C225.072 29.136 224.784 33.744 223.68 35.136C223.434 35.5202 223.103 35.8417 222.711 36.0751C222.319 36.3084 221.879 36.447 221.424 36.48C220.132 36.6209 218.83 36.637 217.536 36.528C217.471 35.5968 217.192 34.6932 216.72 33.888C218.256 34.032 219.696 34.032 220.32 34.032C220.53 34.0563 220.743 34.0247 220.936 33.9404C221.13 33.8561 221.298 33.7221 221.424 33.552C222.192 32.592 222.576 28.272 222.864 16.992H214.272C213.826 17.8527 213.329 18.6862 212.784 19.488H219.84V30.912H213.936V32.256H211.824V20.784L211.44 21.168L209.184 19.584C211.344 17.424 213.024 14.016 213.984 10.512L216.624 11.088C216.295 12.2852 215.878 13.4564 215.376 14.592H225.456ZM213.936 21.6V24.144H217.68V21.6H213.936ZM217.68 28.8V26.256H213.936V28.8H217.68Z" fill="#3D3C3C"/>
<path d="M256.752 33.5039V35.8079H231.696V33.5039H242.784V30.2879H234.192V27.9839H242.784V25.3439H245.472V27.9839H254.352V30.2879H245.472V33.5039H256.752ZM234.528 18.0479H231.936V12.8639H243.072C242.818 12.1707 242.513 11.4969 242.16 10.8479L244.752 10.1279C245.277 11.0003 245.726 11.9156 246.096 12.8639H256.464V18.0479H253.728V15.2639H234.528V18.0479ZM252.528 26.2079C252.048 25.5601 251.518 24.9503 250.944 24.3839C237.888 25.4879 236.4 25.5359 235.392 25.9679C235.221 25.1488 234.98 24.3459 234.672 23.5679C235.394 23.4183 236.059 23.0691 236.592 22.5599C237.789 21.6921 238.928 20.746 240 19.7279H234.912V17.4239H253.584V19.7279H249.12C251.115 21.2123 252.949 22.9015 254.592 24.7679L252.528 26.2079ZM243.408 19.7279C242.101 20.9745 240.723 22.1444 239.28 23.2319L249.024 22.5599L247.104 20.9279L248.928 19.7279H243.408Z" fill="#3D3C3C"/>
<path d="M150.624 26.784C150.713 26.7882 150.802 26.7732 150.885 26.7401C150.968 26.707 151.042 26.6565 151.104 26.5921L156.192 21.5041C156.296 21.3654 156.347 21.1939 156.334 21.021C156.322 20.8481 156.248 20.6855 156.125 20.5629C156.003 20.4404 155.84 20.3661 155.667 20.3539C155.494 20.3416 155.323 20.3921 155.184 20.4961L150.096 25.5361C149.961 25.6787 149.886 25.8676 149.886 26.0641C149.886 26.2605 149.961 26.4494 150.096 26.5921C150.167 26.6578 150.25 26.7087 150.341 26.7417C150.431 26.7747 150.528 26.7891 150.624 26.784Z" fill="#3D3C3C"/>
<g opacity="0.5">
<path opacity="0.5" d="M155.664 26.784C155.761 26.7891 155.857 26.7747 155.948 26.7417C156.038 26.7087 156.121 26.6578 156.192 26.5921C156.327 26.4494 156.402 26.2605 156.402 26.0641C156.402 25.8676 156.327 25.6787 156.192 25.5361L151.104 20.4961C150.966 20.3921 150.794 20.3416 150.621 20.3539C150.448 20.3661 150.286 20.4404 150.163 20.5629C150.04 20.6855 149.966 20.8481 149.954 21.021C149.942 21.1939 149.992 21.3654 150.096 21.5041L155.184 26.5921C155.246 26.6565 155.321 26.707 155.403 26.7401C155.486 26.7732 155.575 26.7882 155.664 26.784Z" fill="#3D3C3C"/>
</g>
<path d="M62.3038 0H38.4478C35.2966 0.00907338 32.2331 1.03795 29.7154 2.93278C27.1976 4.8276 25.3608 7.48656 24.4798 10.512C24.4318 10.608 24.4318 10.752 24.3838 10.848L23.9038 12.72L21.5518 22.944C22.4568 19.9838 24.2886 17.3924 26.7773 15.5518C29.2661 13.7111 32.2803 12.7184 35.3758 12.72H48.6718C51.9478 12.7126 55.1279 11.6137 57.7096 9.59696C60.2913 7.58026 62.1274 4.76076 62.9278 1.584L63.0718 1.008C63.1004 0.890007 63.1023 0.767112 63.0774 0.648278C63.0525 0.529443 63.0014 0.417664 62.9278 0.321086C62.8542 0.224509 62.76 0.145569 62.6521 0.090022C62.5441 0.0344748 62.4251 0.00371944 62.3038 0Z" fill="#3D3C3C"/>
<path d="M35.1356 13.7759C28.7036 13.7759 22.7996 18.9119 20.9276 25.5839L15.9836 47.0399C15.963 47.1545 15.9671 47.2722 15.9957 47.3851C16.0243 47.498 16.0768 47.6034 16.1495 47.6944C16.2223 47.7853 16.3136 47.8596 16.4175 47.9123C16.5214 47.965 16.6353 47.9949 16.7516 47.9999H17.0876C20.4109 48.016 23.6402 46.8972 26.2412 44.8286C28.8422 42.76 30.6592 39.8655 31.3916 36.6239L36.7196 13.7759H35.1356Z" fill="#3D3C3C"/>
<path d="M23.8562 10.032C24.8023 6.72724 26.8956 3.86806 29.7602 1.968C27.5441 0.680613 25.0272 0.00169711 22.4642 0H0.768246C0.651893 0.00500354 0.53796 0.0348533 0.434102 0.0875464C0.330244 0.140239 0.238869 0.214553 0.166117 0.305493C0.0933643 0.396434 0.0409196 0.501896 0.0123098 0.614788C-0.0163 0.727679 -0.0204125 0.845387 0.000246853 0.96L0.0962472 1.296C0.827229 4.54234 2.64234 7.4428 5.24248 9.51942C7.84262 11.596 11.0726 12.7249 14.4002 12.72H23.1362C23.1362 12.72 23.8082 10.128 23.8562 10.032Z" fill="#3D3C3C"/>
<path d="M139.104 34.8C139.093 34.5157 139.159 34.2339 139.296 33.984C139.382 33.7137 139.53 33.4672 139.728 33.264C139.921 33.0767 140.149 32.9298 140.4 32.832C140.661 32.7047 140.949 32.6385 141.24 32.6385C141.531 32.6385 141.818 32.7047 142.08 32.832C142.33 32.9298 142.559 33.0767 142.752 33.264C142.95 33.4672 143.098 33.7137 143.184 33.984C143.31 34.2374 143.376 34.5168 143.376 34.8C143.376 35.0833 143.31 35.3627 143.184 35.616C143.086 35.8666 142.939 36.0951 142.752 36.288C142.548 36.4747 142.322 36.6359 142.08 36.768C141.802 36.8666 141.51 36.9154 141.216 36.912C140.937 36.9108 140.661 36.8621 140.4 36.768C140.157 36.6359 139.931 36.4747 139.728 36.288C139.54 36.0951 139.393 35.8666 139.296 35.616C139.159 35.3662 139.093 35.0844 139.104 34.8ZM139.488 34.8C139.489 35.0316 139.538 35.2604 139.632 35.472C139.725 35.6848 139.855 35.8796 140.016 36.048C140.173 36.1875 140.351 36.3009 140.544 36.384C140.755 36.4778 140.984 36.5269 141.216 36.528C141.463 36.5268 141.707 36.4779 141.936 36.384C142.128 36.3009 142.307 36.1875 142.464 36.048C142.624 35.8796 142.754 35.6848 142.848 35.472C142.941 35.2604 142.99 35.0316 142.992 34.8C142.995 34.568 142.946 34.3383 142.848 34.128C142.779 33.9025 142.645 33.7022 142.464 33.552L141.936 33.168L141.216 33.024C140.984 33.0252 140.755 33.0743 140.544 33.168L140.016 33.552C139.834 33.7022 139.7 33.9025 139.632 34.128C139.533 34.3383 139.484 34.568 139.488 34.8ZM140.4 33.552H141.36C141.648 33.552 141.888 33.6 141.984 33.744C142.061 33.8085 142.122 33.8895 142.164 33.9808C142.205 34.0722 142.226 34.1717 142.224 34.272C142.235 34.3618 142.224 34.4531 142.19 34.5372C142.157 34.6212 142.102 34.6952 142.032 34.752C141.99 34.8147 141.933 34.8654 141.865 34.8991C141.798 34.9328 141.723 34.9483 141.648 34.944L142.272 36H141.792L141.216 34.992H140.88V36H140.4V33.552ZM140.88 34.608H141.6C141.625 34.608 141.649 34.5979 141.667 34.5799C141.685 34.5619 141.696 34.5375 141.696 34.512C141.725 34.4897 141.75 34.4607 141.766 34.4274C141.783 34.3941 141.792 34.3573 141.792 34.32C141.792 34.2828 141.783 34.246 141.766 34.2127C141.75 34.1794 141.725 34.1504 141.696 34.128C141.696 34.1026 141.685 34.0782 141.667 34.0602C141.649 34.0422 141.625 34.032 141.6 34.032H140.88V34.608Z" fill="#3D3C3C"/>
<path d="M123.84 11.088L123.504 13.632H122.16L118.896 36.816H116.352L117.12 31.344C114.768 32.16 112.368 32.928 109.92 33.552L109.632 30.912L111.312 30.576L113.712 13.632H112.416L112.8 11.088H123.84ZM119.088 17.184L119.568 13.632H116.208L115.728 17.184H119.088ZM118.224 23.184L118.752 19.68H115.392L114.864 23.184H118.224ZM117.456 28.752L117.888 25.68H114.528L113.952 29.904C115.104 29.568 116.304 29.184 117.456 28.752ZM137.136 24.192L136.8 26.592H127.536L126.384 28.512H135.12C134.352 32.496 133.632 34.8 132.816 35.568C132 36.336 130.704 36.624 128.784 36.624C127.709 36.6151 126.636 36.5511 125.568 36.432L125.088 34.032C126.25 34.1771 127.42 34.2572 128.592 34.272C129.84 34.272 130.656 34.08 131.04 33.696C131.376 33.264 131.712 32.352 132.096 30.816H122.64L124.8 26.592H121.056L121.392 24.192H137.136ZM129.84 12.336C129.929 11.7715 130.213 11.2561 130.643 10.8791C131.073 10.5021 131.621 10.2873 132.192 10.272H132.624L132.336 12.336H137.76L136.32 22.752H122.928L124.416 12.336H129.84ZM129.264 16.56L129.504 14.592H126.528L126.24 16.56H129.264ZM128.928 18.624H125.952L125.712 20.544H128.688L128.928 18.624ZM131.76 16.56H134.688L134.976 14.592H132.048L131.76 16.56ZM134.4 18.624H131.472L131.184 20.544H134.112L134.4 18.624Z" fill="#3D3C3C"/>
<path d="M92.7837 12.9121L92.3037 13.8241C92.4477 13.4881 92.6397 13.2001 92.7837 12.9121Z" fill="#3D3C3C"/>
<path d="M94.704 33.408C96.2491 32.6563 97.6345 31.6132 98.784 30.336L99.024 28.512H91.008L91.968 27.552H94.656C95.3587 27.5669 96.0583 27.453 96.72 27.216C97.152 26.976 97.536 26.304 97.872 25.296C98.7123 26.1241 99.4387 27.0603 100.032 28.08L101.808 26.544C100.95 25.3992 99.9681 24.3528 98.88 23.424L97.488 24.624L96 24.144C95.808 24.912 95.568 25.392 95.328 25.536C95.0877 25.6992 94.8024 25.7831 94.512 25.776H91.584C91.152 25.776 90.96 25.584 91.008 25.248L91.296 23.28H88.992L88.656 25.728C88.5617 26.0528 88.5934 26.4012 88.7446 26.7037C88.8959 27.0062 89.1556 27.2406 89.472 27.36L87.6 28.752L86.736 27.696L84.816 28.944L85.584 29.952C84.751 30.4024 83.8844 30.7875 82.992 31.104L83.952 33.12L87.024 31.488C87.7283 32.1334 88.4652 32.7422 89.232 33.312C86.7856 33.9519 84.3004 34.4329 81.792 34.752L82.416 36.96C85.5588 36.4766 88.657 35.7381 91.68 34.752C94.4749 36.0256 97.491 36.743 100.56 36.864L101.472 34.608C99.1709 34.527 96.8926 34.1231 94.704 33.408ZM89.328 30.432H95.76C94.6497 31.1998 93.4586 31.8437 92.208 32.352C91.1874 31.8079 90.2228 31.1648 89.328 30.432Z" fill="#3D3C3C"/>
<path d="M103.44 12.912L103.776 10.752H86.2562L85.9682 12.912H92.7842C92.6402 13.2 92.4482 13.4879 92.3042 13.8239H87.4082L86.4482 20.7359H84.1442L83.6162 24.3359H86.1602L86.4002 22.6559H93.5042L92.0162 23.0879C92.5831 23.7286 93.0669 24.4382 93.4562 25.2L95.2322 24.432C94.8818 23.7591 94.4099 23.1569 93.8402 22.6559H100.128L99.8882 24.3359H102.432L102.96 20.7359H100.608L101.568 13.8239H95.0882C95.2364 13.5289 95.3647 13.2242 95.4722 12.912H103.44ZM98.1122 20.7359H88.9442L89.0402 19.92H98.2082L98.1122 20.7359ZM98.4002 18.48H89.2322L89.3762 17.712H98.5442L98.4002 18.48ZM98.8322 15.456L98.7362 16.32H89.5682L89.6642 15.456H98.8322Z" fill="#3D3C3C"/>
<path d="M83.4718 9.93604C82.7998 11.52 82.0798 12.96 81.3118 14.4C80.5438 15.84 77.9038 20.208 75.2158 22.368C76.0798 23.424 77.8078 23.328 78.8158 22.128L79.2958 21.552L77.1358 36.912H79.7758L82.5598 17.04C83.7595 15.1439 84.8029 13.1534 85.6798 11.088L83.4718 9.93604Z" fill="#3D3C3C"/>
<path d="M83.376 26.448L84.48 28.224C85.9458 27.3168 87.2717 26.2011 88.416 24.912L87.12 23.616C86.0308 24.7533 84.7668 25.7094 83.376 26.448Z" fill="#3D3C3C"/>
</g>
<defs>
<clipPath id="clip0_357_8824">
<rect width="256.752" height="48" fill="white"/>
</clipPath>
</defs>
</svg>
