<svg width="257" height="48" viewBox="0 0 257 48" fill="none" xmlns="http://www.w3.org/2000/svg">
<path d="M178.141 17.328H168.493V15.216H178.141V17.328ZM176.893 34.992H171.757V36.24H169.453V26.592H176.893V34.992ZM169.501 19.008H176.989V21.072H169.501V19.008ZM169.501 22.752H176.989V24.864H169.501V22.752ZM172.813 14.88C172.477 13.5418 172.01 12.2397 171.421 10.992L173.677 10.464C174.27 11.6773 174.783 12.9279 175.213 14.208L172.813 14.88ZM171.757 28.752V32.832H174.685V28.752H171.757ZM183.805 21.408H178.093V19.296H183.805V21.408ZM183.133 14.88H178.717V12.816H183.133V14.88ZM180.541 25.968H192.877V36.528H190.285V35.472H183.037V36.672H180.541V25.968ZM189.757 15.456C189.632 16.2348 189.456 17.0045 189.229 17.76C189.7 19.0255 190.43 20.1787 191.372 21.1458C192.314 22.1129 193.448 22.8725 194.701 23.376C194.069 23.9407 193.534 24.6056 193.117 25.344C190.963 24.2874 189.236 22.5259 188.221 20.352C186.993 22.6926 184.967 24.515 182.509 25.488C182.159 24.8424 181.705 24.2587 181.165 23.76C185.533 21.984 186.781 18.72 187.309 15.456H186.013C185.476 16.7215 184.783 17.9148 183.949 19.008C183.328 18.5108 182.67 18.0615 181.981 17.664C183.469 15.888 184.573 13.152 185.197 10.416L187.501 10.896C187.309 11.712 187.069 12.576 186.829 13.344H192.589L192.925 13.248L194.557 13.584C194.077 15.36 193.501 17.328 193.021 18.576L191.053 18.144C191.293 17.424 191.581 16.464 191.821 15.456H189.757ZM183.037 28.272V33.168H190.285V28.272H183.037Z" fill="#E0D8C5"/>
<path d="M210.301 17.328H199.933V15.216H204.877C204.254 13.8772 203.549 12.5786 202.765 11.328L204.637 10.272C205.466 11.4197 206.189 12.6408 206.797 13.92L204.925 15.216H210.301V17.328ZM201.037 21.072V19.008H209.101V21.072H201.037ZM201.037 22.752H209.101V24.816H201.037V22.752ZM209.101 34.992H203.149V36.24H201.037V26.592H209.101V34.992ZM203.149 28.752V32.832H206.989V28.752H203.149ZM225.469 14.592C225.469 14.592 225.421 15.552 225.421 15.888C225.085 29.136 224.797 33.744 223.693 35.136C223.447 35.5202 223.115 35.8417 222.724 36.0751C222.332 36.3084 221.891 36.447 221.437 36.48C220.145 36.6209 218.843 36.637 217.549 36.528C217.484 35.5968 217.205 34.6932 216.733 33.888C218.269 34.032 219.709 34.032 220.333 34.032C220.543 34.0563 220.755 34.0247 220.949 33.9404C221.143 33.8561 221.311 33.7221 221.437 33.552C222.205 32.592 222.589 28.272 222.877 16.992H214.285C213.838 17.8527 213.342 18.6862 212.797 19.488H219.853V30.912H213.949V32.256H211.837V20.784L211.453 21.168L209.197 19.584C211.357 17.424 213.037 14.016 213.997 10.512L216.637 11.088C216.308 12.2852 215.891 13.4564 215.389 14.592H225.469ZM213.949 21.6V24.144H217.693V21.6H213.949ZM217.693 28.8V26.256H213.949V28.8H217.693Z" fill="#E0D8C5"/>
<path d="M256.765 33.5039V35.8079H231.709V33.5039H242.797V30.2879H234.205V27.9839H242.797V25.3439H245.485V27.9839H254.365V30.2879H245.485V33.5039H256.765ZM234.541 18.0479H231.949V12.8639H243.085C242.83 12.1707 242.526 11.4969 242.173 10.8479L244.765 10.1279C245.29 11.0003 245.739 11.9156 246.109 12.8639H256.477V18.0479H253.741V15.2639H234.541V18.0479ZM252.541 26.2079C252.061 25.5601 251.531 24.9503 250.957 24.3839C237.901 25.4879 236.413 25.5359 235.405 25.9679C235.234 25.1488 234.993 24.3459 234.685 23.5679C235.407 23.4183 236.072 23.0691 236.605 22.5599C237.802 21.6921 238.941 20.746 240.013 19.7279H234.925V17.4239H253.597V19.7279H249.133C251.128 21.2123 252.962 22.9015 254.605 24.7679L252.541 26.2079ZM243.421 19.7279C242.114 20.9745 240.735 22.1444 239.293 23.2319L249.037 22.5599L247.117 20.9279L248.941 19.7279H243.421Z" fill="#E0D8C5"/>
<path d="M150.637 26.7841C150.726 26.7882 150.815 26.7732 150.898 26.7401C150.98 26.707 151.055 26.6565 151.117 26.5921L156.205 21.5041C156.309 21.3654 156.359 21.1939 156.347 21.021C156.335 20.8481 156.26 20.6855 156.138 20.5629C156.015 20.4404 155.853 20.3661 155.68 20.3539C155.507 20.3416 155.335 20.3921 155.197 20.4961L150.109 25.5361C149.974 25.6787 149.898 25.8676 149.898 26.0641C149.898 26.2605 149.974 26.4494 150.109 26.5921C150.179 26.6578 150.263 26.7087 150.353 26.7417C150.444 26.7747 150.54 26.7891 150.637 26.7841V26.7841Z" fill="#E0D8C5"/>
<g opacity="0.5">
<path opacity="0.5" d="M155.677 26.7841C155.773 26.7891 155.87 26.7747 155.96 26.7417C156.051 26.7087 156.134 26.6578 156.205 26.5921C156.34 26.4494 156.415 26.2605 156.415 26.0641C156.415 25.8676 156.34 25.6787 156.205 25.5361L151.117 20.4961C150.978 20.3921 150.807 20.3416 150.634 20.3539C150.461 20.3661 150.298 20.4404 150.176 20.5629C150.053 20.6855 149.979 20.8481 149.967 21.021C149.954 21.1939 150.005 21.3654 150.109 21.5041L155.197 26.5921C155.258 26.6565 155.333 26.707 155.416 26.7401C155.499 26.7732 155.588 26.7882 155.677 26.7841V26.7841Z" fill="#E0D8C5"/>
</g>
<path d="M62.3165 0H38.4605C35.3093 0.00907338 32.2458 1.03795 29.728 2.93278C27.2103 4.8276 25.3735 7.48656 24.4925 10.512C24.4445 10.608 24.4445 10.752 24.3965 10.848L23.9165 12.72L21.5645 22.944C22.4694 19.9838 24.3013 17.3924 26.79 15.5518C29.2788 13.7111 32.293 12.7184 35.3884 12.72H48.6845C51.9605 12.7126 55.1406 11.6137 57.7223 9.59696C60.304 7.58026 62.1401 4.76076 62.9405 1.584L63.0845 1.008C63.1131 0.890007 63.115 0.767113 63.0901 0.648278C63.0652 0.529443 63.0141 0.417664 62.9405 0.321086C62.8669 0.224509 62.7727 0.145569 62.6648 0.090022C62.5568 0.0344748 62.4378 0.00371944 62.3165 0V0Z" fill="#E0D8C5"/>
<path d="M35.1483 13.7759C28.7163 13.7759 22.8123 18.9119 20.9403 25.5839L15.9963 47.0399C15.9757 47.1545 15.9798 47.2722 16.0084 47.3851C16.037 47.498 16.0895 47.6034 16.1622 47.6944C16.235 47.7853 16.3263 47.8596 16.4302 47.9123C16.5341 47.965 16.648 47.9949 16.7643 47.9999H17.1003C20.4236 48.016 23.6529 46.8972 26.2539 44.8286C28.8549 42.76 30.6719 39.8655 31.4043 36.6239L36.7323 13.7759H35.1483Z" fill="#E0D8C5"/>
<path d="M23.8689 10.032C24.815 6.72724 26.9083 3.86806 29.7729 1.968C27.5568 0.680613 25.0399 0.00169711 22.4769 0H0.780941C0.664589 0.00500354 0.550656 0.0348533 0.446798 0.0875464C0.34294 0.140239 0.251564 0.214553 0.178812 0.305493C0.10606 0.396433 0.053615 0.501896 0.0250052 0.614788C-0.00360465 0.727679 -0.00771721 0.845387 0.0129422 0.96L0.108943 1.296C0.839925 4.54234 2.65504 7.4428 5.25518 9.51942C7.85531 11.596 11.0853 12.7249 14.4129 12.72H23.1489C23.1489 12.72 23.8209 10.128 23.8689 10.032Z" fill="#E0D8C5"/>
<path d="M139.116 34.8002C139.106 34.5159 139.172 34.234 139.308 33.9842C139.394 33.7138 139.542 33.4673 139.74 33.2642C139.933 33.0768 140.162 32.9299 140.412 32.8322C140.674 32.7048 140.961 32.6387 141.252 32.6387C141.543 32.6387 141.831 32.7048 142.092 32.8322C142.343 32.9299 142.571 33.0768 142.764 33.2642C142.962 33.4673 143.11 33.7138 143.196 33.9842C143.323 34.2375 143.389 34.5169 143.389 34.8002C143.389 35.0834 143.323 35.3628 143.196 35.6162C143.099 35.8667 142.952 36.0952 142.764 36.2882C142.561 36.4748 142.335 36.636 142.092 36.7682C141.815 36.8667 141.523 36.9155 141.228 36.9122C140.95 36.9109 140.674 36.8622 140.412 36.7682C140.17 36.636 139.944 36.4748 139.74 36.2882C139.553 36.0952 139.406 35.8667 139.308 35.6162C139.172 35.3663 139.106 35.0845 139.116 34.8002ZM139.5 34.8002C139.501 35.0317 139.551 35.2605 139.644 35.4722C139.738 35.6849 139.868 35.8797 140.028 36.0482C140.185 36.1876 140.364 36.301 140.556 36.3842C140.768 36.478 140.997 36.527 141.228 36.5282C141.475 36.5269 141.72 36.478 141.948 36.3842C142.141 36.301 142.319 36.1876 142.476 36.0482C142.637 35.8797 142.766 35.6849 142.86 35.4722C142.954 35.2605 143.003 35.0317 143.004 34.8002C143.008 34.5682 142.958 34.3384 142.86 34.1282C142.792 33.9026 142.658 33.7023 142.476 33.5522L141.948 33.1682L141.228 33.0242C140.997 33.0253 140.768 33.0744 140.556 33.1682L140.028 33.5522C139.846 33.7023 139.713 33.9026 139.644 34.1282C139.546 34.3384 139.497 34.5682 139.5 34.8002ZM140.412 33.5522H141.372C141.66 33.5522 141.9 33.6002 141.996 33.7442C142.073 33.8087 142.135 33.8896 142.176 33.9809C142.218 34.0723 142.238 34.1718 142.236 34.2722C142.248 34.3619 142.237 34.4532 142.203 34.5373C142.169 34.6213 142.115 34.6953 142.044 34.7522C142.003 34.8149 141.945 34.8656 141.878 34.8992C141.81 34.9329 141.735 34.9484 141.66 34.9442L142.284 36.0002H141.804L141.228 34.9922H140.892V36.0002H140.412V33.5522ZM140.892 34.6082H141.612C141.638 34.6082 141.662 34.5981 141.68 34.5801C141.698 34.562 141.708 34.5376 141.708 34.5122C141.738 34.4898 141.762 34.4608 141.779 34.4275C141.796 34.3942 141.804 34.3574 141.804 34.3202C141.804 34.2829 141.796 34.2462 141.779 34.2128C141.762 34.1795 141.738 34.1505 141.708 34.1282C141.708 34.1027 141.698 34.0783 141.68 34.0603C141.662 34.0423 141.638 34.0322 141.612 34.0322H140.892V34.6082Z" fill="#E0D8C5"/>
<path d="M123.853 11.088L123.517 13.632H122.173L118.909 36.816H116.365L117.133 31.344C114.781 32.16 112.381 32.928 109.933 33.552L109.645 30.912L111.325 30.576L113.725 13.632H112.429L112.813 11.088H123.853ZM119.101 17.184L119.581 13.632H116.221L115.741 17.184H119.101ZM118.237 23.184L118.765 19.68H115.405L114.877 23.184H118.237ZM117.469 28.752L117.901 25.68H114.541L113.965 29.904C115.117 29.568 116.317 29.184 117.469 28.752ZM137.149 24.192L136.813 26.592H127.549L126.397 28.512H135.133C134.365 32.496 133.645 34.8 132.829 35.568C132.013 36.336 130.717 36.624 128.797 36.624C127.722 36.6151 126.649 36.5511 125.581 36.432L125.101 34.032C126.263 34.1771 127.433 34.2572 128.605 34.272C129.853 34.272 130.669 34.08 131.053 33.696C131.389 33.264 131.725 32.352 132.109 30.816H122.653L124.813 26.592H121.069L121.405 24.192H137.149ZM129.853 12.336C129.942 11.7715 130.226 11.2561 130.656 10.8791C131.085 10.5021 131.633 10.2873 132.205 10.272H132.637L132.349 12.336H137.773L136.333 22.752H122.941L124.429 12.336H129.853ZM129.277 16.56L129.517 14.592H126.541L126.253 16.56H129.277ZM128.941 18.624H125.965L125.725 20.544H128.701L128.941 18.624ZM131.773 16.56H134.701L134.989 14.592H132.061L131.773 16.56ZM134.413 18.624H131.485L131.197 20.544H134.125L134.413 18.624Z" fill="#E0D8C5"/>
<path d="M92.7964 12.9121L92.3164 13.8241C92.4604 13.4881 92.6524 13.2001 92.7964 12.9121Z" fill="#E0D8C5"/>
<path d="M94.7167 33.4078C96.2618 32.656 97.6472 31.6129 98.7967 30.3358L99.0367 28.5118H91.0207L91.9807 27.5518H94.6687C95.3714 27.5667 96.071 27.4528 96.7327 27.2158C97.1647 26.9758 97.5487 26.3038 97.8847 25.2958C98.725 26.1238 99.4514 27.0601 100.045 28.0798L101.821 26.5438C100.963 25.399 99.9808 24.3526 98.8927 23.4238L97.5007 24.6238L96.0127 24.1438C95.8207 24.9118 95.5807 25.3918 95.3407 25.5358C95.1004 25.699 94.8151 25.7829 94.5247 25.7758H91.5967C91.1647 25.7758 90.9727 25.5838 91.0207 25.2478L91.3087 23.2798H89.0047L88.6687 25.7278C88.5744 26.0526 88.6061 26.401 88.7573 26.7035C88.9086 27.006 89.1683 27.2403 89.4847 27.3598L87.6127 28.7518L86.7487 27.6958L84.8287 28.9438L85.5967 29.9518C84.7637 30.4021 83.8971 30.7873 83.0047 31.1038L83.9647 33.1198L87.0367 31.4878C87.741 32.1332 88.4779 32.742 89.2447 33.3118C86.7983 33.9517 84.3131 34.4327 81.8047 34.7518L82.4287 36.9598C85.5715 36.4763 88.6697 35.7379 91.6927 34.7518C94.4876 36.0254 97.5037 36.7427 100.573 36.8638L101.485 34.6078C99.1836 34.5268 96.9053 34.1229 94.7167 33.4078ZM89.3407 30.4318H95.7727C94.6624 31.1996 93.4713 31.8434 92.2207 32.3518C91.2001 31.8076 90.2355 31.1645 89.3407 30.4318V30.4318Z" fill="#E0D8C5"/>
<path d="M103.453 12.912L103.789 10.752H86.2689L85.9809 12.912H92.7969C92.6529 13.2 92.4609 13.4879 92.3169 13.8239H87.4209L86.4609 20.7359H84.1569L83.6289 24.3359H86.1729L86.4129 22.6559H93.5169L92.0289 23.0879C92.5958 23.7286 93.0796 24.4382 93.4689 25.2L95.2449 24.432C94.8945 23.7591 94.4226 23.1569 93.8529 22.6559H100.141L99.9009 24.3359H102.445L102.973 20.7359H100.621L101.581 13.8239H95.1009C95.2491 13.5289 95.3774 13.2242 95.4849 12.912H103.453ZM98.1249 20.7359H88.9569L89.0529 19.92H98.2209L98.1249 20.7359ZM98.4129 18.48H89.2449L89.3889 17.712H98.5569L98.4129 18.48ZM98.8449 15.456L98.7489 16.32H89.5809L89.6769 15.456H98.8449Z" fill="#E0D8C5"/>
<path d="M83.4845 9.93604C82.8125 11.52 82.0925 12.96 81.3245 14.4C80.5565 15.84 77.9165 20.208 75.2285 22.368C76.0925 23.424 77.8205 23.328 78.8285 22.128L79.3085 21.552L77.1485 36.912H79.7885L82.5725 17.04C83.7722 15.1439 84.8156 13.1534 85.6925 11.088L83.4845 9.93604Z" fill="#E0D8C5"/>
<path d="M83.3887 26.4482L84.4927 28.2242C85.9585 27.3171 87.2844 26.2014 88.4287 24.9122L87.1327 23.6162C86.0435 24.7536 84.7795 25.7096 83.3887 26.4482V26.4482Z" fill="#E0D8C5"/>
</svg>
